<?xml version="1.0" encoding="iso-8859-1"?>
<!-- Generator: Adobe Illustrator 19.0.0, SVG Export Plug-In . SVG Version: 6.00 Build 0)  -->
<svg version="1.1" id="Capa_1" xmlns="http://www.w3.org/2000/svg" xmlns:xlink="http://www.w3.org/1999/xlink" x="0px" y="0px"
	 viewBox="0 0 512 512" style="enable-background:new 0 0 512 512;" xml:space="preserve">
<g>
	<g>
		<path d="M506.805,169.145c-5.035-33.91-22.126-65.039-48.126-87.653c-26.262-22.841-59.916-35.42-94.762-35.42
			c-41.647,0-80.481,17.536-107.916,48.418c-27.435-30.882-66.27-48.418-107.917-48.418c-34.739,0-68.314,12.512-94.54,35.229
			c-25.958,22.485-43.095,53.468-48.255,87.241c-0.628,4.095,2.186,7.923,6.283,8.549c4.095,0.624,7.924-2.188,8.551-6.284
			c4.622-30.252,19.981-58.012,43.245-78.164c23.499-20.355,53.584-31.565,84.715-31.565c40.089,0,77.268,18.131,102.008,49.745
			c1.422,1.817,3.601,2.879,5.909,2.879c2.308,0,4.487-1.062,5.909-2.879c24.74-31.614,61.92-49.745,102.007-49.745
			c31.226,0,61.382,11.271,84.914,31.737c23.304,20.268,38.621,48.159,43.13,78.534c0.553,3.725,3.756,6.402,7.413,6.402
			c0.366,0,0.739-0.027,1.112-0.082C504.584,177.06,507.414,173.244,506.805,169.145z"/>
	</g>
</g>
<g>
	<g>
		<path d="M471.637,291.212c-3.484-2.235-8.129-1.227-10.368,2.261c-18.637,29.034-56.016,72.91-128.247,117.06
			c-36.601,22.371-67.832,35.96-77.022,39.787c-9.191-3.827-40.422-17.415-77.022-39.787
			c-72.231-44.15-109.609-88.026-128.247-117.06c-2.239-3.488-6.881-4.498-10.368-2.261c-3.487,2.238-4.499,6.88-2.261,10.368
			c35.358,55.081,92.008,96.699,133.305,121.914c44.576,27.216,80.358,41.33,81.858,41.917c0.879,0.344,1.807,0.516,2.735,0.516
			c0.928,0,1.855-0.172,2.735-0.516c1.501-0.587,37.283-14.701,81.858-41.917c41.297-25.215,97.947-66.833,133.305-121.914
			C476.136,298.092,475.124,293.451,471.637,291.212z"/>
	</g>
</g>
<g>
	<g>
		<path d="M510.88,212.739c-0.38-1.757-2.481-10.653-6.599-13.324c-1.633-1.058-3.568-1.419-5.404-1.096v-0.002
			c-39.92,7.048-80.703,12.429-121.31,16.046c-2.863-6.286-6.437-11.989-10.757-16.777c-6.882-7.627-15.458-11.599-25.49-11.803
			c-0.265-0.006-0.527-0.009-0.79-0.009c-22.916,0-47.445,20.138-60.298,32.448c-2.38-1.004-4.993-1.561-7.734-1.561h-32.997
			c-2.74,0-5.353,0.556-7.733,1.561c-12.996-12.454-37.923-32.922-61.09-32.439c-10.032,0.204-18.608,4.176-25.49,11.803
			c-4.321,4.788-7.894,10.491-10.758,16.777c-40.607-3.617-81.389-8.998-121.309-16.046v0.002c-1.835-0.322-3.772,0.038-5.404,1.096
			C3.6,202.086,1.5,210.982,1.12,212.739c-1.799,8.326-1.424,18.025,1.081,28.05c5.008,20.033,19.306,30.566,21.912,31.809
			c0.651,0.31,1.342,0.525,2.054,0.638c34.272,5.444,69.222,9.728,103.976,12.776c3.186,10.923,8.189,20.802,15.046,28.401
			c6.882,7.626,15.458,11.598,25.489,11.803c0.265,0.005,0.527,0.008,0.791,0.008c22.915,0,47.444-20.137,60.298-32.447
			c2.38,1.004,4.993,1.561,7.734,1.561h32.997c2.741,0,5.354-0.557,7.734-1.561c12.854,12.311,37.382,32.449,60.298,32.447
			c0.263,0,0.529-0.003,0.791-0.008c10.031-0.205,18.607-4.177,25.489-11.803c6.857-7.6,11.86-17.479,15.046-28.401
			c34.754-3.048,69.705-7.332,103.977-12.776c0.711-0.113,1.403-0.328,2.054-0.638c2.607-1.244,16.902-11.776,21.912-31.81
			C512.305,230.764,512.679,221.065,510.88,212.739z M127.88,235.382c-0.015,0.08-0.031,0.161-0.046,0.241
			c-0.235,1.267-0.451,2.542-0.642,3.828c-0.016,0.106-0.029,0.213-0.045,0.319c-0.165,1.136-0.311,2.279-0.442,3.427
			c-0.025,0.215-0.051,0.429-0.075,0.644c-0.128,1.191-0.237,2.387-0.328,3.587c-0.019,0.255-0.035,0.509-0.053,0.764
			c-0.079,1.146-0.143,2.294-0.188,3.445c-0.004,0.096-0.01,0.192-0.013,0.288c-0.047,1.292-0.067,2.586-0.07,3.881
			c0,0.131,0,0.262,0,0.393c0.005,4.848,0.307,9.702,0.928,14.471c-32.322-2.935-64.787-6.959-96.666-11.984
			c-2.592-2.08-10.398-9.199-13.483-21.538c-2.798-11.195-1.746-18.845-0.532-23.058c37.263,6.421,75.225,11.422,113.06,14.894
			C128.751,231.081,128.287,233.218,127.88,235.382z M221.126,283.192c-15.134,14.428-35.117,28.292-50.141,28.021
			c-5.807-0.119-10.601-2.36-14.654-6.853c-20.392-22.599-20.392-74.122,0-96.721c4.054-4.493,8.848-6.735,14.655-6.853
			c0.164-0.004,0.327-0.006,0.492-0.006c14.992,0,34.68,13.755,49.648,28.026c-1.037,2.436-1.58,5.078-1.58,7.808v38.768
			C219.546,278.112,220.09,280.755,221.126,283.192z M277.448,275.383L277.448,275.383c-0.001,0.339-0.036,0.67-0.101,0.989
			c-0.02,0.1-0.063,0.193-0.089,0.292c-0.058,0.216-0.112,0.434-0.198,0.637c-0.09,0.214-0.212,0.414-0.332,0.614
			c-0.045,0.074-0.076,0.157-0.124,0.229c-0.181,0.267-0.389,0.518-0.623,0.751c-0.895,0.887-2.124,1.437-3.481,1.437h-32.997
			c-1.357,0-2.587-0.55-3.482-1.438c-0.234-0.232-0.442-0.483-0.622-0.749c-0.093-0.138-0.16-0.292-0.239-0.439
			c-0.072-0.135-0.159-0.262-0.218-0.403c-0.092-0.217-0.152-0.449-0.212-0.681c-0.022-0.084-0.059-0.163-0.076-0.249
			c-0.065-0.32-0.1-0.651-0.1-0.99v-38.768c0-0.339,0.035-0.67,0.1-0.99c0.016-0.077,0.049-0.148,0.068-0.224
			c0.061-0.241,0.125-0.481,0.22-0.706c0.052-0.124,0.13-0.236,0.192-0.355c0.086-0.164,0.162-0.334,0.265-0.487
			c0.18-0.266,0.388-0.516,0.622-0.748c0.895-0.887,2.125-1.438,3.482-1.438H272.5c1.357,0,2.586,0.55,3.481,1.437
			c0.234,0.232,0.442,0.483,0.623,0.749c0.085,0.125,0.144,0.267,0.217,0.4c0.081,0.147,0.174,0.288,0.239,0.443
			c0.091,0.215,0.15,0.446,0.21,0.676c0.022,0.086,0.06,0.166,0.078,0.254c0.065,0.32,0.1,0.651,0.1,0.99V275.383z M355.669,304.36
			c-4.054,4.492-8.847,6.734-14.654,6.853c-15.086,0.293-35.008-13.593-50.142-28.021c1.037-2.437,1.581-5.08,1.581-7.809v-38.768
			c0-2.729-0.544-5.373-1.581-7.808c15.133-14.428,35.074-28.359,50.141-28.021c5.807,0.118,10.602,2.359,14.655,6.853
			C376.06,230.237,376.06,281.761,355.669,304.36z M495.24,237.149c-3.085,12.34-10.891,19.459-13.483,21.539
			c-31.879,5.025-64.344,9.049-96.667,11.984c0.621-4.768,0.923-9.621,0.928-14.469c0-0.132,0-0.264,0-0.396
			c-0.003-1.295-0.024-2.59-0.07-3.882c-0.003-0.094-0.009-0.187-0.013-0.28c-0.045-1.156-0.109-2.31-0.189-3.461
			c-0.017-0.249-0.033-0.499-0.051-0.748c-0.091-1.204-0.2-2.405-0.329-3.6c-0.023-0.21-0.049-0.418-0.073-0.627
			c-0.131-1.155-0.278-2.304-0.444-3.448c-0.015-0.102-0.028-0.204-0.043-0.306c-0.191-1.287-0.407-2.565-0.643-3.834
			c-0.015-0.079-0.03-0.158-0.045-0.237c-0.407-2.165-0.871-4.303-1.408-6.399c37.837-3.472,75.798-8.474,113.061-14.894
			C496.986,218.304,498.039,225.954,495.24,237.149z"/>
	</g>
</g>
<g>
</g>
<g>
</g>
<g>
</g>
<g>
</g>
<g>
</g>
<g>
</g>
<g>
</g>
<g>
</g>
<g>
</g>
<g>
</g>
<g>
</g>
<g>
</g>
<g>
</g>
<g>
</g>
<g>
</g>
</svg>
