<?xml version="1.0" encoding="iso-8859-1"?>
<!-- Generator: Adobe Illustrator 19.0.0, SVG Export Plug-In . SVG Version: 6.00 Build 0)  -->
<svg version="1.1" id="Capa_1" xmlns="http://www.w3.org/2000/svg" xmlns:xlink="http://www.w3.org/1999/xlink" x="0px" y="0px"
	 viewBox="0 0 512 512" style="enable-background:new 0 0 512 512;" xml:space="preserve">
<g>
	<g>
		<path d="M284.373,331.586c-10.581,0-20.558,3.764-28.373,10.532c-7.815-6.768-17.792-10.532-28.373-10.532
			c-23.952,0-43.437,19.486-43.437,43.436c0,49.74,66.282,76.248,69.104,77.352c0.869,0.341,1.788,0.511,2.706,0.511
			c0.918,0,1.837-0.17,2.707-0.511c2.822-1.104,69.103-27.612,69.103-77.352C327.81,351.071,308.325,331.586,284.373,331.586z
			 M255.992,437.382c-5.055-2.246-16.423-7.728-27.753-16.142c-19.371-14.385-29.192-29.935-29.192-46.218
			c0-15.759,12.821-28.579,28.58-28.579c8.851,0,17.06,4.004,22.523,10.985c1.408,1.799,3.566,2.851,5.851,2.851
			c2.285,0,4.443-1.051,5.85-2.851c5.463-6.982,13.672-10.985,22.523-10.985c15.759,0,28.58,12.82,28.58,28.579
			C312.955,409.703,267.641,432.179,255.992,437.382z"/>
	</g>
</g>
<g>
	<g>
		<path d="M481.901,151.986c-16.675-22.368-40.164-39.491-66.426-48.495C387.399,40.508,325.175,0,256,0
			C186.825,0,124.602,40.508,96.526,103.491c-26.262,9.004-49.752,26.127-66.427,48.495c-17.965,24.098-27.46,52.766-27.46,82.906
			c0,15.301,2.479,30.347,7.369,44.72c4.181,12.286,15.743,20.595,28.819,20.676l0.41,0.001c20.684,0,31.365-8.603,40.788-16.193
			c8.598-6.926,16.024-12.907,31.468-12.907c15.445,0,22.871,5.982,31.469,12.907c9.424,7.59,20.105,16.193,40.789,16.193
			c20.683,0,31.364-8.603,40.787-16.193c8.598-6.926,16.024-12.907,31.468-12.907c15.444,0,22.869,5.982,31.466,12.906
			c9.423,7.591,20.104,16.194,40.787,16.194c20.684,0,31.366-8.603,40.79-16.194c8.598-6.925,16.024-12.906,31.468-12.906
			c15.444,0,22.869,5.982,31.467,12.907c9.424,7.59,20.105,16.193,40.788,16.193h0.224c13.222-0.041,24.967-8.627,29.228-21.368
			c4.735-14.163,7.136-28.977,7.136-44.029C509.362,204.752,499.867,176.084,481.901,151.986z M488.135,274.21
			c-2.237,6.692-8.339,11.201-15.159,11.222h-0.202c-15.444,0-22.869-5.982-31.467-12.907c-9.424-7.59-20.105-16.193-40.788-16.193
			c-20.684,0-31.365,8.603-40.788,16.193c-8.599,6.926-16.025,12.907-31.47,12.907c-15.444,0-22.869-5.982-31.466-12.906
			c-9.423-7.591-20.104-16.194-40.787-16.194c-20.684,0-31.364,8.603-40.788,16.194c-8.598,6.925-16.024,12.906-31.467,12.906
			c-15.445,0-22.871-5.982-31.469-12.907c-9.424-7.59-20.105-16.193-40.789-16.193c-20.684,0-31.365,8.603-40.788,16.193
			c-8.598,6.926-16.024,12.907-31.468,12.907l-0.364-0.001c-6.708-0.042-12.655-4.303-14.799-10.605
			c-4.364-12.828-6.577-26.263-6.577-39.934c0-26.915,8.477-52.513,24.515-74.027c15.511-20.805,37.611-36.529,62.231-44.273
			c2.078-0.654,3.765-2.186,4.613-4.193C133.911,53.145,191.669,14.857,256,14.857c64.33,0,122.088,38.288,147.147,97.542
			c0.848,2.007,2.534,3.539,4.612,4.193c24.62,7.744,46.72,23.468,62.231,44.273c16.037,21.513,24.515,47.111,24.515,74.027
			C494.505,248.34,492.362,261.57,488.135,274.21z"/>
	</g>
</g>
<g>
	<g>
		<path d="M447.693,315.556c-4.005-0.837-7.955,1.721-8.802,5.736l-28.647,135.801c-4.895,23.207-25.663,40.05-49.38,40.05H151.138
			c-23.718,0-44.485-16.843-49.38-40.05L73.136,321.412c-0.847-4.014-4.788-6.577-8.802-5.736c-4.015,0.847-6.582,4.788-5.735,8.802
			l28.622,135.681C93.555,490.198,120.436,512,151.138,512h209.727c30.699,0,57.581-21.802,63.919-51.841l28.647-135.801
			C454.276,320.344,451.708,316.403,447.693,315.556z"/>
	</g>
</g>
<g>
	<g>
		<path d="M316.093,80.081c-16.7,0-30.286,13.586-30.286,30.286s13.586,30.286,30.286,30.286s30.286-13.586,30.286-30.286
			S332.792,80.081,316.093,80.081z M316.093,125.796c-8.507,0-15.429-6.922-15.429-15.429s6.922-15.429,15.429-15.429
			c8.507,0,15.429,6.922,15.429,15.429S324.599,125.796,316.093,125.796z"/>
	</g>
</g>
<g>
	<g>
		<path d="M178.745,57.223c-16.7,0-30.286,13.586-30.286,30.286c0,16.7,13.586,30.286,30.286,30.286s30.286-13.586,30.286-30.286
			C209.031,70.809,195.445,57.223,178.745,57.223z M178.745,102.938c-8.508,0-15.429-6.922-15.429-15.429
			c0-8.507,6.921-15.429,15.429-15.429s15.429,6.922,15.429,15.429C194.174,96.016,187.252,102.938,178.745,102.938z"/>
	</g>
</g>
<g>
	<g>
		<path d="M88.724,183.165c-16.7,0-30.286,13.586-30.286,30.286s13.586,30.286,30.286,30.286s30.286-13.586,30.286-30.286
			S105.425,183.165,88.724,183.165z M88.724,228.881c-8.508,0-15.429-6.922-15.429-15.429c0-8.507,6.921-15.429,15.429-15.429
			s15.429,6.922,15.429,15.429C104.154,221.959,97.232,228.881,88.724,228.881z"/>
	</g>
</g>
<g>
	<g>
		<path d="M242.133,160.307c-16.7,0-30.286,13.586-30.286,30.286c0,16.7,13.586,30.286,30.286,30.286s30.286-13.586,30.286-30.286
			C272.419,173.893,258.833,160.307,242.133,160.307z M242.133,206.023c-8.508,0-15.429-6.922-15.429-15.429
			s6.921-15.429,15.429-15.429s15.429,6.922,15.429,15.429S250.641,206.023,242.133,206.023z"/>
	</g>
</g>
<g>
	<g>
		<path d="M412.497,188.046c-16.7,0-30.286,13.586-30.286,30.286c0,16.7,13.586,30.286,30.286,30.286s30.286-13.586,30.286-30.286
			C442.784,201.632,429.198,188.046,412.497,188.046z M412.497,233.761c-8.507,0-15.429-6.922-15.429-15.429
			c0-8.507,6.922-15.429,15.429-15.429c8.507,0,15.429,6.922,15.429,15.429C427.927,226.84,421.005,233.761,412.497,233.761z"/>
	</g>
</g>
<g>
</g>
<g>
</g>
<g>
</g>
<g>
</g>
<g>
</g>
<g>
</g>
<g>
</g>
<g>
</g>
<g>
</g>
<g>
</g>
<g>
</g>
<g>
</g>
<g>
</g>
<g>
</g>
<g>
</g>
</svg>
