<?xml version="1.0" encoding="iso-8859-1"?>
<!-- Generator: Adobe Illustrator 19.0.0, SVG Export Plug-In . SVG Version: 6.00 Build 0)  -->
<svg version="1.1" id="Capa_1" xmlns="http://www.w3.org/2000/svg" xmlns:xlink="http://www.w3.org/1999/xlink" x="0px" y="0px"
	 viewBox="0 0 512 512" style="enable-background:new 0 0 512 512;" xml:space="preserve">
<g>
	<g>
		<path d="M511.205,118.578c-1.122-2.244-3.291-3.78-5.78-4.095l-48.091-6.069c-4.118-0.514-7.877,2.398-8.396,6.515
			c-0.52,4.118,2.397,7.878,6.515,8.397l24.256,3.061l-132.908,69.312c-3.68,1.92-5.107,6.458-3.188,10.138
			c1.34,2.57,3.958,4.042,6.669,4.042c1.171,0,2.359-0.275,3.469-0.853l132.91-69.313l-11.375,21.644
			c-1.931,3.674-0.518,8.217,3.157,10.148c1.115,0.587,2.311,0.865,3.489,0.865c2.703-0.001,5.314-1.463,6.659-4.021l22.549-42.908
			C512.264,123.299,512.287,120.741,511.205,118.578z"/>
	</g>
</g>
<g>
	<g>
		<path d="M447.224,195.192c-0.509-4.119-4.263-7.049-8.379-6.538c-4.119,0.508-7.046,4.259-6.538,8.379
			c0.462,3.747,0.697,7.577,0.697,11.386c0,26.919-8.874,53.419-26.376,78.765c-14.25,20.636-34.205,40.572-59.311,59.252
			c-36.993,27.526-74.5,44.225-84.768,48.555c-10.238-4.312-47.528-20.901-84.501-48.359
			c-25.172-18.695-45.183-38.649-59.477-59.308c-17.566-25.389-26.473-51.936-26.473-78.904c0-50.741,41.281-92.022,92.022-92.022
			c28.497,0,54.927,12.889,72.512,35.362c1.425,1.82,3.607,2.884,5.918,2.884c2.311,0,4.494-1.064,5.918-2.884
			c17.587-22.473,44.017-35.362,72.513-35.362c22.244,0,43.715,8.042,60.457,22.644c3.126,2.726,7.874,2.403,10.603-0.724
			c2.728-3.127,2.404-7.875-0.724-10.603c-19.479-16.989-44.458-26.346-70.335-26.346c-30.092,0-58.201,12.353-78.431,34.182
			c-20.229-21.829-48.339-34.182-78.431-34.182c-59.028,0-107.051,48.023-107.051,107.051c0,30.082,9.805,59.506,29.142,87.456
			c4.278,6.182,9.041,12.294,14.24,18.326l-14.899,7.77l-45.765-5.776c-1.517-0.192-3.059,0.084-4.416,0.793L4.04,343.758
			c-2.913,1.52-4.502,4.756-3.921,7.991c0.58,3.234,3.195,5.716,6.455,6.128l37.339,4.712l-17.506,33.32
			c-1.528,2.909-0.989,6.474,1.331,8.8c1.445,1.45,3.372,2.209,5.324,2.209c1.182,0,2.374-0.279,3.473-0.851l51.331-26.77
			c1.357-0.708,2.466-1.813,3.178-3.168l21.45-40.827l18.482-9.639c11.094,11.374,23.818,22.419,38.112,33.034
			c44.783,33.258,88.871,50.691,90.726,51.417c0.88,0.344,1.809,0.517,2.738,0.517s1.858-0.172,2.738-0.517
			c1.855-0.726,45.942-18.159,90.726-51.417c26.493-19.674,47.647-40.811,62.876-62.822c19.338-27.95,29.142-57.374,29.142-87.456
			C448.034,203.998,447.762,199.548,447.224,195.192z M32.293,345.974l27.944-14.573l21.921,2.767l-27.943,14.573L32.293,345.974z
			 M78.832,367.058l-27.947,14.575l10.28-19.567l27.943-14.569L78.832,367.058z"/>
	</g>
</g>
<g>
</g>
<g>
</g>
<g>
</g>
<g>
</g>
<g>
</g>
<g>
</g>
<g>
</g>
<g>
</g>
<g>
</g>
<g>
</g>
<g>
</g>
<g>
</g>
<g>
</g>
<g>
</g>
<g>
</g>
</svg>
