<?xml version="1.0" encoding="iso-8859-1"?>
<!-- Generator: Adobe Illustrator 19.0.0, SVG Export Plug-In . SVG Version: 6.00 Build 0)  -->
<svg version="1.1" id="Capa_1" xmlns="http://www.w3.org/2000/svg" xmlns:xlink="http://www.w3.org/1999/xlink" x="0px" y="0px"
	 viewBox="0 0 511.999 511.999" style="enable-background:new 0 0 511.999 511.999;" xml:space="preserve">
<g>
	<g>
		<path d="M176.269,85.234H150.3c-4.138,0-7.491,3.353-7.491,7.491s3.353,7.491,7.491,7.491h25.969c4.138,0,7.491-3.353,7.491-7.491
			S180.407,85.234,176.269,85.234z"/>
	</g>
</g>
<g>
	<g>
		<path d="M176.269,117.197H150.3c-4.138,0-7.491,3.353-7.491,7.491c0,4.137,3.353,7.491,7.491,7.491h25.969
			c4.138,0,7.491-3.353,7.491-7.491S180.407,117.197,176.269,117.197z"/>
	</g>
</g>
<g>
	<g>
		<path d="M274.787,136.334c-10.775,0-20.934,3.84-28.884,10.745c-7.95-6.905-18.109-10.745-28.884-10.745
			c-24.342,0-44.147,19.805-44.147,44.148c0,50.587,67.432,77.554,70.301,78.678c0.878,0.343,1.805,0.515,2.73,0.515
			c0.926,0,1.852-0.172,2.73-0.515c2.87-1.124,70.301-28.091,70.301-78.678C318.934,156.139,299.129,136.334,274.787,136.334z
			 M245.894,244.042c-5.135-2.28-16.735-7.868-28.295-16.452c-19.738-14.659-29.745-30.508-29.745-47.108
			c0-16.082,13.083-29.166,29.165-29.166c9.031,0,17.409,4.086,22.985,11.21c1.42,1.814,3.595,2.875,5.899,2.875
			c2.304,0,4.479-1.06,5.899-2.875c5.575-7.124,13.953-11.21,22.985-11.21c16.082,0,29.165,13.085,29.165,29.166
			C303.952,215.859,257.713,238.767,245.894,244.042z"/>
	</g>
</g>
<g>
	<g>
		<path d="M504.598,57.866c-4.14-2.921-9.462-3.653-14.238-1.956l-43.163,15.342c-6.212,2.208-10.387,8.122-10.387,14.716v4.777
			h-27.003V80.053c0-12.598-10.25-22.848-22.849-22.848h-59.693c-4.138,0-7.491,3.353-7.491,7.491s3.353,7.491,7.491,7.491h59.693
			c4.338,0,7.867,3.529,7.867,7.866v154.105h-59.88c-10.633,0-19.284,8.65-19.284,19.283v55.728H107.188
			c-4.338,0-7.867-3.529-7.867-7.867V269.61c0-4.138-3.353-7.491-7.491-7.491s-7.491,3.353-7.491,7.491v31.692
			c0,12.599,10.25,22.849,22.849,22.849h54.636v6.787c0,12.78,10.397,23.177,23.177,23.177h10.808l-53.471,126.667
			c-2.334,5.531-2.375,11.639-0.115,17.2c2.259,5.562,6.55,9.91,12.079,12.243c2.788,1.177,5.727,1.774,8.735,1.774
			c9.058,0,17.188-5.392,20.711-13.737l60.849-144.147h2.614l60.849,144.147c3.523,8.345,11.653,13.737,20.711,13.737
			c3.01,0,5.949-0.597,8.733-1.773c5.531-2.334,9.821-6.683,12.081-12.244c2.26-5.561,2.219-11.669-0.115-17.2
			c-0.001-0.001-0.001-0.001-0.001-0.001l-53.47-126.666h10.808c12.78,0,23.177-10.397,23.177-23.177v-6.787h56.974h0.001
			c9.449,0,17.577-5.765,21.05-13.964c1.158-2.733,1.798-5.736,1.798-8.886V175.466h27.13c0.712,5.811,4.65,10.83,10.261,12.825
			l43.162,15.342v0.001c1.698,0.603,3.466,0.899,5.224,0.899c3.187,0,6.346-0.973,9.014-2.856c4.14-2.922,6.611-7.693,6.611-12.76
			V70.626C511.209,65.559,508.737,60.788,504.598,57.866z M169.945,492.436c-1.175,2.783-3.887,4.582-6.909,4.582
			c-0.995,0-1.972-0.2-2.908-0.595c-1.843-0.777-3.273-2.227-4.026-4.08c-0.753-1.853-0.739-3.89,0.038-5.733l55.93-132.493h16.263
			L169.945,492.436z M335.665,486.608c0.778,1.845,0.792,3.881,0.039,5.734c-0.753,1.853-2.183,3.303-4.028,4.082
			c-0.932,0.393-1.909,0.593-2.905,0.593c-3.022,0-5.733-1.799-6.909-4.582l-58.389-138.32h16.263L335.665,486.608z
			 M306.806,339.133H185.001c-4.518,0-8.194-3.676-8.194-8.194v-6.787H315v6.787h0C315,335.457,311.324,339.133,306.806,339.133z
			 M394.823,301.303c0,0.542-0.055,1.072-0.16,1.583c-0.735,3.581-3.911,6.283-7.707,6.283h-56.315v-55.728
			c0-2.371,1.929-4.301,4.302-4.301h59.88V301.303z M436.809,160.483h-27.003v-54.756h27.003V160.483z M495.958,189.437
			c-0.269,0.189-0.488,0.112-0.58,0.079v0.001l-43.161-15.342c-0.254-0.091-0.424-0.332-0.424-0.6V85.968
			c0-0.268,0.171-0.509,0.423-0.6l43.162-15.341c0.093-0.033,0.312-0.11,0.58,0.079c0.269,0.19,0.269,0.421,0.269,0.52v118.291h0
			C496.227,189.016,496.227,189.247,495.958,189.437z"/>
	</g>
</g>
<g>
	<g>
		<path d="M292.408,57.205h-48.895c-13.663-20.526-36.91-33.111-61.691-33.111H60.174v-4.631C60.174,8.731,51.443,0,40.712,0h-20.46
			C9.52,0,0.789,8.731,0.789,19.463v90.822c0,10.732,8.731,19.462,19.462,19.462h20.46c10.732,0,19.462-8.731,19.462-19.462v-4.631
			h24.166v129.102c0,4.138,3.353,7.491,7.491,7.491s7.491-3.353,7.491-7.491V80.053c0-4.338,3.529-7.866,7.867-7.866h185.22
			c4.138,0,7.491-3.353,7.491-7.491S296.546,57.205,292.408,57.205z M45.192,110.285c0,2.471-2.009,4.48-4.48,4.48h-20.46
			c-2.471,0-4.48-2.009-4.48-4.48V19.463c0-2.471,2.009-4.481,4.48-4.481h20.46c2.471,0,4.48,2.011,4.48,4.481V110.285z
			 M107.188,57.205c-12.599,0-22.849,10.25-22.849,22.848v10.618H60.174V39.077h121.648c16.17,0,31.524,6.717,42.546,18.128H107.188
			z"/>
	</g>
</g>
<g>
</g>
<g>
</g>
<g>
</g>
<g>
</g>
<g>
</g>
<g>
</g>
<g>
</g>
<g>
</g>
<g>
</g>
<g>
</g>
<g>
</g>
<g>
</g>
<g>
</g>
<g>
</g>
<g>
</g>
</svg>
