<?xml version="1.0" encoding="iso-8859-1"?>
<!-- Generator: Adobe Illustrator 19.0.0, SVG Export Plug-In . SVG Version: 6.00 Build 0)  -->
<svg version="1.1" id="Capa_1" xmlns="http://www.w3.org/2000/svg" xmlns:xlink="http://www.w3.org/1999/xlink" x="0px" y="0px"
	 viewBox="0 0 511.999 511.999" style="enable-background:new 0 0 511.999 511.999;" xml:space="preserve">
<g>
	<g>
		<path d="M478.231,48.858h-27.938V29.987C450.293,13.453,436.84,0,420.306,0c-16.535,0-29.988,13.453-29.988,29.987v18.871h-49.563
			V29.987C340.755,13.453,327.303,0,310.768,0c-16.535,0-29.988,13.453-29.988,29.987v18.871h-49.563V29.987
			C231.218,13.453,217.765,0,201.23,0s-29.987,13.453-29.987,29.987v18.871H121.68V29.987C121.679,13.453,108.228,0,91.692,0
			S61.705,13.453,61.705,29.987v18.871H33.767c-17.978,0-32.603,14.626-32.603,32.603v66.987c0,4.132,3.349,7.481,7.481,7.481
			h494.711c4.131,0,7.481-3.349,7.481-7.481V81.461C510.834,63.484,496.209,48.858,478.231,48.858z M405.28,29.987
			c0-8.285,6.741-15.026,15.026-15.026s15.026,6.741,15.026,15.026v54.009c0,8.285-6.741,15.026-15.026,15.026
			s-15.026-6.741-15.026-15.026V29.987z M295.741,29.987c0-8.285,6.74-15.026,15.026-15.026c8.285,0,15.026,6.741,15.026,15.026
			v54.009c0,8.285-6.74,15.026-15.026,15.026s-15.026-6.741-15.026-15.026V29.987z M186.203,29.987
			c0-8.285,6.74-15.026,15.026-15.026s15.026,6.741,15.026,15.026v54.009c0,8.285-6.741,15.026-15.026,15.026
			s-15.026-6.741-15.026-15.026V29.987z M76.666,29.987c0-8.285,6.74-15.026,15.026-15.026s15.026,6.741,15.026,15.026v54.009
			c0,8.285-6.741,15.026-15.026,15.026s-15.026-6.741-15.026-15.026V29.987z M495.874,140.968H16.124V81.461
			c0-9.729,7.915-17.642,17.642-17.642h27.938v20.178c0,16.535,13.453,29.988,29.987,29.988c16.535,0,29.988-13.453,29.988-29.988
			V63.818h49.563v20.178c0,16.535,13.453,29.988,29.987,29.988c16.535,0,29.988-13.453,29.988-29.988V63.818h49.563v20.178
			c0,16.535,13.453,29.988,29.988,29.988s29.987-13.453,29.987-29.988V63.818h49.563v20.178c0,16.535,13.453,29.988,29.988,29.988
			s29.987-13.453,29.987-29.988V63.818h27.938c9.728,0,17.642,7.914,17.642,17.642V140.968z"/>
	</g>
</g>
<g>
	<g>
		<path d="M503.355,175.774c-4.131,0-7.481,3.349-7.481,7.481v296.142c0,9.729-7.915,17.642-17.642,17.642H33.767
			c-9.728,0-17.642-7.914-17.642-17.642V183.254c0-4.132-3.349-7.481-7.481-7.481c-4.132,0-7.481,3.349-7.481,7.481v296.142
			c0,17.978,14.626,32.603,32.603,32.603H478.23c17.978,0,32.603-14.626,32.603-32.603V183.254
			C510.834,179.123,507.486,175.774,503.355,175.774z"/>
	</g>
</g>
<g>
	<g>
		<path d="M117.162,214.379h-52.67c-8.951,0-16.233,7.282-16.233,16.232v52.67c0.001,8.951,7.283,16.233,16.233,16.233h52.67
			c8.951,0,16.233-7.282,16.233-16.233v-52.67C133.395,221.66,126.113,214.379,117.162,214.379z M118.433,283.281
			c0,0.701-0.57,1.272-1.271,1.272h-52.67c-0.701,0-1.271-0.57-1.271-1.272v-52.67c0-0.701,0.57-1.271,1.271-1.271h52.67
			c0.701,0,1.271,0.569,1.271,1.271V283.281z"/>
	</g>
</g>
<g>
	<g>
		<path d="M337.391,214.379h-52.67c-8.951,0-16.233,7.282-16.233,16.232v52.67c0.001,8.951,7.283,16.233,16.233,16.233h52.67
			c8.951,0,16.233-7.282,16.233-16.233v-52.67C353.624,221.66,346.342,214.379,337.391,214.379z M338.662,283.281
			c0,0.701-0.57,1.272-1.271,1.272h-52.67c-0.701,0-1.271-0.57-1.271-1.272v-52.67c0-0.701,0.57-1.271,1.271-1.271h52.67
			c0.701,0,1.271,0.569,1.271,1.271V283.281z"/>
	</g>
</g>
<g>
	<g>
		<path d="M447.506,214.379h-52.67c-8.951,0-16.233,7.282-16.233,16.232v52.67c0,8.951,7.282,16.233,16.233,16.233h52.67
			c8.951,0,16.233-7.282,16.233-16.233v-52.67C463.738,221.66,456.457,214.379,447.506,214.379z M448.776,283.281
			c0,0.701-0.57,1.272-1.271,1.272h-52.669c-0.702,0-1.272-0.57-1.272-1.272v-52.67c0-0.701,0.57-1.271,1.271-1.271h52.67
			c0.701,0,1.271,0.569,1.271,1.271V283.281z"/>
	</g>
</g>
<g>
	<g>
		<path d="M117.163,339.364H64.491c-8.951,0-16.233,7.282-16.233,16.233v52.67h0.001c0,8.951,7.282,16.233,16.233,16.233h52.67
			c8.951,0,16.233-7.282,16.233-16.233v-52.67C133.396,346.645,126.114,339.364,117.163,339.364z M118.433,408.267
			c0,0.701-0.57,1.272-1.271,1.272h-52.67c-0.701,0-1.271-0.57-1.271-1.272v-52.67c0-0.701,0.57-1.272,1.271-1.272h52.67
			c0.701,0,1.271,0.57,1.271,1.272V408.267z"/>
	</g>
</g>
<g>
	<g>
		<path d="M227.277,339.364h-52.67c-8.951,0-16.233,7.282-16.233,16.233v52.67c0,8.951,7.282,16.233,16.233,16.233h52.67
			c8.951,0,16.233-7.282,16.233-16.233v-52.67C243.51,346.645,236.228,339.364,227.277,339.364z M228.549,408.267
			c0,0.701-0.57,1.272-1.271,1.272h-52.67c-0.701,0-1.271-0.57-1.271-1.272v-52.67c0-0.701,0.57-1.272,1.271-1.272h52.67
			c0.701,0,1.271,0.57,1.271,1.272V408.267z"/>
	</g>
</g>
<g>
	<g>
		<path d="M337.392,339.364h-52.67c-8.951,0-16.233,7.282-16.233,16.233v52.67c0,8.951,7.282,16.233,16.233,16.233h52.67
			c8.951,0,16.233-7.282,16.233-16.233v-52.67C353.625,346.645,346.343,339.364,337.392,339.364z M338.662,408.267
			c0,0.701-0.57,1.272-1.271,1.272h-52.67c-0.701,0-1.271-0.57-1.271-1.272v-52.67c0-0.701,0.57-1.272,1.271-1.272h52.67
			c0.701,0,1.271,0.57,1.271,1.272V408.267z"/>
	</g>
</g>
<g>
	<g>
		<path d="M437.461,347.166c-5.944,0-11.593,1.832-16.292,5.176c-4.699-3.344-10.348-5.176-16.292-5.176
			c-15.525,0-28.156,12.631-28.156,28.156c0.002,30.729,40.02,46.742,41.723,47.408c0.876,0.342,1.801,0.515,2.726,0.515
			c0.925,0,1.85-0.171,2.726-0.515c1.703-0.666,41.721-16.679,41.721-47.408C465.617,359.797,452.987,347.166,437.461,347.166z
			 M421.171,407.625c-10.22-4.715-29.487-16.804-29.487-32.303c0-7.275,5.919-13.195,13.195-13.195c4.086,0,7.877,1.85,10.401,5.074
			c1.418,1.812,3.591,2.871,5.891,2.871c2.301,0,4.474-1.059,5.891-2.871c2.523-3.224,6.314-5.074,10.401-5.074
			c7.276,0,13.195,5.919,13.195,13.195C450.657,390.824,431.381,402.914,421.171,407.625z"/>
	</g>
</g>
<g>
	<g>
		<path d="M217.234,221.899c-5.944,0-11.594,1.832-16.292,5.176c-4.698-3.344-10.348-5.176-16.292-5.176
			c-15.525,0-28.156,12.631-28.156,28.156c0,30.73,40.018,46.742,41.721,47.408c0.876,0.342,1.801,0.515,2.726,0.515
			c0.925,0,1.85-0.171,2.726-0.515c1.703-0.666,41.722-16.679,41.722-47.408C245.389,234.531,232.759,221.899,217.234,221.899z
			 M200.993,282.334c-7.73-3.661-29.538-15.489-29.538-32.279c0-7.276,5.919-13.195,13.195-13.195c4.086,0,7.877,1.85,10.401,5.074
			c1.417,1.812,3.591,2.871,5.891,2.871c2.301,0,4.474-1.059,5.891-2.871c2.523-3.224,6.314-5.074,10.401-5.074
			c7.276,0,13.195,5.919,13.195,13.195C230.428,265.533,211.216,277.609,200.993,282.334z"/>
	</g>
</g>
<g>
</g>
<g>
</g>
<g>
</g>
<g>
</g>
<g>
</g>
<g>
</g>
<g>
</g>
<g>
</g>
<g>
</g>
<g>
</g>
<g>
</g>
<g>
</g>
<g>
</g>
<g>
</g>
<g>
</g>
</svg>
