<?xml version="1.0" encoding="iso-8859-1"?>
<!-- Generator: Adobe Illustrator 19.0.0, SVG Export Plug-In . SVG Version: 6.00 Build 0)  -->
<svg version="1.1" id="Capa_1" xmlns="http://www.w3.org/2000/svg" xmlns:xlink="http://www.w3.org/1999/xlink" x="0px" y="0px"
	 viewBox="0 0 512 512" style="enable-background:new 0 0 512 512;" xml:space="preserve">
<g>
	<g>
		<path d="M365.025,71.743c-6.97-7.169-15.647-10.803-25.788-10.803c-0.003,0-0.007,0-0.01,0
			c-23.946,0.005-50.068,21.244-61.075,31.282c-3.004-1.926-6.564-3.058-10.39-3.058h-4.254V7.508C263.508,3.361,260.147,0,256,0
			c-4.147,0-7.508,3.361-7.508,7.508v81.657h-3.192c-4.092,0-7.883,1.287-11.011,3.466c-10.771-9.89-37.254-31.684-61.516-31.69
			c-0.003,0-0.006,0-0.01,0c-10.14,0-18.817,3.635-25.788,10.803c-25.53,26.254-25.53,81.791,0,108.044
			c6.971,7.169,15.648,10.804,25.789,10.804c0.003,0,0.006,0,0.01,0c24.277-0.005,50.778-21.827,61.517-31.689
			c3.127,2.178,6.918,3.464,11.009,3.464h22.462c3.826,0,7.387-1.132,10.391-3.059c11.045,10.071,37.145,31.278,61.073,31.283
			c0.004,0,0.006,0,0.01,0c10.141,0,18.818-3.636,25.789-10.804C390.555,153.534,390.555,97.997,365.025,71.743z M172.77,175.577
			c-0.002,0-0.004,0-0.006,0c-6.015,0-10.93-2.046-15.023-6.256c-19.791-20.354-19.791-66.756,0-87.108
			c4.091-4.207,9.002-6.253,15.013-6.255c0.003,0,0.006,0,0.009,0c18.672,0,42.99,19.627,53.432,29.644
			c-0.029,0.193-0.043,0.39-0.066,0.584c-0.021,0.179-0.044,0.357-0.061,0.538c-0.053,0.584-0.089,1.17-0.089,1.762v34.56
			c0,0.593,0.036,1.18,0.089,1.765c0.016,0.18,0.039,0.357,0.061,0.536c0.024,0.197,0.037,0.395,0.067,0.591
			C215.823,155.914,191.514,175.573,172.77,175.577z M272.065,143.047c0,0.265-0.032,0.521-0.078,0.773
			c-0.01,0.056-0.02,0.113-0.033,0.169c-0.053,0.237-0.123,0.468-0.214,0.688c-0.024,0.057-0.055,0.112-0.081,0.168
			c-0.683,1.475-2.168,2.507-3.898,2.507h-22.462c-1.722,0-3.2-1.023-3.888-2.487c-0.129-0.274-0.225-0.553-0.294-0.837
			c-0.005-0.019-0.013-0.037-0.018-0.057c-0.07-0.304-0.105-0.613-0.105-0.924v-34.561c0-0.311,0.036-0.62,0.106-0.924
			c0.004-0.018,0.012-0.035,0.017-0.053c0.069-0.285,0.166-0.567,0.296-0.843c0.688-1.463,2.165-2.484,3.886-2.484h22.462
			c1.73,0,3.215,1.031,3.898,2.506c0.026,0.056,0.058,0.111,0.081,0.169c0.091,0.221,0.161,0.451,0.214,0.688
			c0.013,0.056,0.022,0.112,0.033,0.169c0.046,0.251,0.078,0.508,0.078,0.773V143.047z M354.26,169.321
			c-4.091,4.208-9.002,6.254-15.013,6.256c-0.004,0-0.006,0-0.01,0c-18.155,0-41.648-18.556-52.523-28.781
			c0.031-0.155,0.043-0.314,0.07-0.47c0.078-0.453,0.157-0.905,0.203-1.368c0.064-0.634,0.097-1.271,0.097-1.91v-34.56
			c-0.002-0.641-0.035-1.278-0.098-1.912c-0.045-0.455-0.123-0.899-0.199-1.343c-0.028-0.164-0.041-0.332-0.073-0.495
			c10.852-10.204,34.359-28.779,52.524-28.779c0.002,0,0.007,0,0.009,0c6.011,0.002,10.922,2.048,15.013,6.255
			C374.05,102.566,374.05,148.969,354.26,169.321z"/>
	</g>
</g>
<g>
	<g>
		<path d="M422.396,370.119c-21.114-9.732-34.756-31.043-34.756-54.292v-51.771c0-19.67-4.238-38.595-12.597-56.249
			c-1.773-3.749-6.252-5.351-9.998-3.573c-3.748,1.774-5.348,6.251-3.573,9.998c7.4,15.631,11.152,32.393,11.152,49.824v51.771
			c0,29.089,17.069,55.753,43.487,67.93c20.016,9.226,33.317,28.858,34.647,50.683H61.242c1.33-21.824,14.631-41.457,34.647-50.683
			c26.417-12.177,43.487-38.841,43.487-67.93v-51.771c0-17.381,3.732-34.1,11.09-49.692c1.77-3.75,0.165-8.225-3.585-9.994
			c-3.75-1.77-8.226-0.165-9.994,3.585c-8.313,17.612-12.527,36.487-12.527,56.102v51.771c0,23.249-13.643,44.56-34.756,54.292
			c-26.417,12.177-43.487,38.841-43.487,67.93v3.899c0,4.147,3.361,7.508,7.508,7.508h125.482C186.567,485.545,218.509,512,256,512
			c37.491,0,69.433-26.455,76.893-62.544h125.482c4.147,0,7.508-3.361,7.508-7.508v-3.899
			C465.882,408.96,448.813,382.296,422.396,370.119z M256,496.984c-29.259,0-54.349-19.913-61.492-47.528h122.985
			C310.349,477.071,285.259,496.984,256,496.984z"/>
	</g>
</g>
<g>
</g>
<g>
</g>
<g>
</g>
<g>
</g>
<g>
</g>
<g>
</g>
<g>
</g>
<g>
</g>
<g>
</g>
<g>
</g>
<g>
</g>
<g>
</g>
<g>
</g>
<g>
</g>
<g>
</g>
</svg>
