<?xml version="1.0" encoding="iso-8859-1"?>
<!-- Generator: Adobe Illustrator 19.0.0, SVG Export Plug-In . SVG Version: 6.00 Build 0)  -->
<svg version="1.1" id="Capa_1" xmlns="http://www.w3.org/2000/svg" xmlns:xlink="http://www.w3.org/1999/xlink" x="0px" y="0px"
	 viewBox="0 0 511.997 511.997" style="enable-background:new 0 0 511.997 511.997;" xml:space="preserve">
<g>
	<g>
		<path d="M254.306,246.456V226.56c7.575,0.566,10.174,4.183,13.339,4.183c4.183,0,5.992-5.2,5.992-7.8
			c0-6.558-11.983-8.704-19.331-8.931v-2.94c0-1.469-1.922-2.826-3.843-2.826c-2.148,0-3.844,1.356-3.844,2.826v3.166
			c-11.305,1.469-21.931,7.687-21.931,22.043c0,14.47,11.644,18.879,21.931,22.723V281.5c-9.948-1.13-13.34-8.479-17.636-8.479
			c-3.504,0-6.331,4.749-6.331,7.914c0,6.331,10.288,13.679,23.965,14.018v3.165c0,1.469,1.696,2.826,3.844,2.826
			c1.922,0,3.843-1.357,3.843-2.826v-3.504c12.661-2.036,21.366-10.062,21.366-23.967
			C275.672,255.273,264.367,250.187,254.306,246.456z M247.524,243.97c-5.2-2.036-9.044-4.183-9.044-9.157
			c0-4.297,3.391-7.008,9.044-7.913V243.97z M253.401,281.388v-19.671c4.861,2.149,8.48,4.861,8.48,10.401
			C261.881,277.432,258.376,280.37,253.401,281.388z"/>
	</g>
</g>
<g>
	<g>
		<path d="M497.23,167.436c-0.352-0.439-0.749-0.845-1.199-1.197c-2.361-2.233-5.004-4.137-7.869-5.667l-1.862-1.339v-20.773
			c0-9.199-7.484-16.683-16.683-16.683H42.376c-9.199,0-16.683,7.484-16.683,16.683v20.772l-1.862,1.339
			c-2.864,1.53-5.506,3.432-7.868,5.666c-0.452,0.354-0.851,0.761-1.203,1.202c-6.567,6.811-10.182,15.726-10.182,25.218v282.98
			c0,10.316,4.325,19.635,11.249,26.26c0.099,0.104,0.193,0.212,0.3,0.31c0.384,0.358,0.777,0.709,1.176,1.051
			c0.029,0.026,0.06,0.052,0.089,0.077c0.389,0.331,0.786,0.653,1.219,0.992c0.017,0.013,0.081,0.062,0.097,0.076
			c0.395,0.305,0.797,0.602,1.129,0.838l0.244,0.175c0.173,0.121,0.35,0.235,0.524,0.353c0.016,0.011,0.031,0.021,0.046,0.031
			c0.201,0.136,0.4,0.274,0.603,0.406l0.243,0.154c0.17,0.109,0.354,0.215,0.528,0.321c0.051,0.031,0.102,0.062,0.152,0.093
			c0.17,0.102,0.33,0.205,0.509,0.309l0.291,0.166c0.169,0.096,0.347,0.189,0.519,0.283c0.081,0.044,0.163,0.089,0.245,0.134
			c0.138,0.075,0.27,0.151,0.412,0.225l0.37,0.19c0.168,0.085,0.346,0.168,0.517,0.251c0.089,0.043,0.178,0.087,0.268,0.131
			c0.117,0.056,0.228,0.114,0.349,0.17l0.435,0.196c0.167,0.075,0.334,0.143,0.502,0.216c0.114,0.049,0.228,0.099,0.343,0.147
			c0.081,0.034,0.165,0.073,0.246,0.106c0.173,0.071,0.348,0.139,0.527,0.208c0.146,0.058,0.295,0.11,0.441,0.166
			c0.153,0.058,0.305,0.117,0.46,0.173c0.061,0.022,0.121,0.047,0.182,0.068l0.599,0.204c0.147,0.049,0.302,0.096,0.45,0.144
			c0.148,0.047,0.295,0.097,0.444,0.142c0.048,0.015,0.092,0.03,0.14,0.045c0.201,0.061,0.405,0.118,0.668,0.191
			c0.138,0.039,0.276,0.075,0.414,0.112c0.164,0.044,0.326,0.091,0.491,0.133c0.03,0.008,0.061,0.018,0.092,0.025
			c0.22,0.055,0.441,0.105,0.662,0.154l0.266,0.061c0.089,0.021,0.174,0.037,0.262,0.057c0.155,0.033,0.31,0.07,0.466,0.101
			c0.017,0.003,0.035,0.008,0.052,0.011c0.24,0.048,0.481,0.09,0.724,0.132l0.307,0.054c0.134,0.024,0.27,0.048,0.412,0.072
			c0.089,0.014,0.178,0.029,0.267,0.042c0.019,0.003,0.034,0.006,0.053,0.009c0.277,0.041,0.556,0.075,0.837,0.108l0.236,0.029
			c0.077,0.01,0.151,0.018,0.228,0.026c0.152,0.017,0.302,0.038,0.456,0.053c0.003,0,0.007,0.001,0.01,0.001
			c0.329,0.032,0.661,0.057,0.993,0.079l0.268,0.02c0.088,0.007,0.176,0.012,0.264,0.019c0.087,0.005,0.174,0.014,0.261,0.018
			c0.002,0,0.004,0,0.006,0c0.604,0.029,1.212,0.046,1.824,0.046h430.111h0.002c0.61,0,1.217-0.017,1.819-0.046
			c0.001,0,0.002,0,0.004,0c0.104-0.005,0.207-0.016,0.311-0.022c0.084-0.006,0.17-0.011,0.254-0.018l0.158-0.012
			c0.357-0.024,0.715-0.049,1.061-0.082c0.007-0.001,0.014-0.002,0.021-0.002c0.147-0.015,0.294-0.035,0.441-0.052
			c0.08-0.01,0.16-0.018,0.239-0.029l0.244-0.029c0.277-0.032,0.554-0.067,0.872-0.114c0.005-0.001,0.01-0.002,0.015-0.002
			c0.149-0.023,0.296-0.051,0.444-0.075c0.079-0.014,0.157-0.026,0.236-0.039l0.307-0.054c0.239-0.04,0.477-0.083,0.699-0.127
			c0.023-0.004,0.044-0.01,0.067-0.015c0.151-0.03,0.301-0.066,0.451-0.098c0.096-0.021,0.193-0.04,0.289-0.062l0.251-0.058
			c0.225-0.05,0.448-0.101,0.669-0.156c0.029-0.007,0.055-0.016,0.084-0.023c0.164-0.041,0.326-0.088,0.489-0.132
			c0.133-0.036,0.274-0.072,0.399-0.107l0.103-0.03c0.197-0.055,0.395-0.11,0.608-0.174c0.046-0.014,0.095-0.031,0.141-0.045
			c0.138-0.042,0.273-0.088,0.41-0.133c0.162-0.053,0.319-0.101,0.489-0.158l0.571-0.194c0.067-0.024,0.129-0.049,0.195-0.073
			c0.134-0.048,0.265-0.099,0.398-0.149c0.154-0.058,0.317-0.116,0.463-0.173c0.182-0.071,0.361-0.141,0.553-0.22
			c0.081-0.033,0.16-0.07,0.242-0.103c0.117-0.049,0.233-0.099,0.349-0.149c0.161-0.07,0.325-0.136,0.483-0.207l0.483-0.219
			c0.115-0.053,0.223-0.109,0.337-0.164c0.083-0.039,0.164-0.08,0.246-0.12c0.172-0.084,0.351-0.168,0.516-0.251l0.397-0.202
			c0.141-0.074,0.286-0.157,0.427-0.234c0.061-0.032,0.122-0.066,0.182-0.099c0.185-0.101,0.365-0.195,0.555-0.303l0.303-0.175
			c0.394-0.229,0.783-0.466,1.114-0.676l0.293-0.187c0.4-0.258,0.795-0.522,1.12-0.751l0.254-0.18
			c0.401-0.286,0.798-0.578,1.148-0.849l0.156-0.122c0.405-0.316,0.801-0.638,1.137-0.924c0.034-0.029,0.082-0.069,0.124-0.105
			c0.409-0.35,0.809-0.707,1.203-1.074c0.105-0.098,0.199-0.206,0.298-0.31c6.922-6.624,11.245-15.943,11.245-26.257V192.656
			C507.417,183.164,503.801,174.246,497.23,167.436z M40.425,138.461c0-1.076,0.876-1.951,1.951-1.951h427.241
			c1.076,0,1.951,0.876,1.951,1.951v41.504l-21.376,19.042c-1.126-2.625-3.733-4.465-6.771-4.465
			c-16.479,0-29.887-13.407-29.887-29.887c0-4.069-3.297-7.366-7.366-7.366H105.822c-4.068,0-7.366,3.297-7.366,7.366
			c0,16.479-13.407,29.887-29.885,29.887c-3.038,0-5.644,1.839-6.771,4.465l-21.376-19.042V138.461z M213.374,334.032L75.937,211.6
			v-2.935c18.715-3.121,33.522-17.929,36.643-36.644h286.833c3.121,18.715,17.929,33.523,36.644,36.644v2.935L298.62,334.032
			H213.374z M282.084,348.763l-18.539,16.515c-0.269,0.24-0.546,0.465-0.831,0.674c-3.544,2.607-8.242,2.886-12.045,0.86
			c-0.783-0.417-1.531-0.921-2.219-1.535l-18.538-16.514H282.084z M492.686,475.637L492.686,475.637
			c-0.001,3.883-1.034,7.527-2.833,10.68l-152.591-129.75c-3.1-2.634-7.747-2.258-10.383,0.84c-2.635,3.099-2.259,7.748,0.84,10.383
			l150.737,128.174c-0.265,0.097-0.534,0.186-0.804,0.273c-0.08,0.026-0.161,0.053-0.238,0.078c-0.234,0.072-0.47,0.138-0.708,0.201
			c-0.109,0.03-0.218,0.061-0.328,0.089c-0.258,0.066-0.52,0.125-0.782,0.181c-0.078,0.018-0.157,0.035-0.242,0.053
			c-0.21,0.042-0.423,0.078-0.636,0.114l-0.403,0.071c-0.173,0.027-0.348,0.044-0.521,0.067l-0.568,0.071
			c-0.197,0.02-0.397,0.03-0.595,0.044c-0.013,0.001-0.103,0.007-0.116,0.008l-0.369,0.029c-0.361,0.019-0.726,0.028-1.093,0.028
			H40.941c-0.366,0-0.731-0.011-1.08-0.027l-0.54-0.039c-0.186-0.013-0.37-0.024-0.56-0.043l-0.566-0.07
			c-0.162-0.021-0.325-0.038-0.485-0.062l-0.628-0.109c-0.151-0.028-0.304-0.051-0.454-0.082c-0.087-0.018-0.174-0.038-0.261-0.058
			c-0.255-0.055-0.511-0.112-0.763-0.177c-0.095-0.025-0.199-0.054-0.301-0.083c-0.24-0.065-0.478-0.131-0.715-0.203
			c-0.085-0.027-0.165-0.053-0.247-0.08c-0.27-0.086-0.539-0.176-0.804-0.273l148.199-126.015c3.1-2.636,3.476-7.284,0.84-10.383
			c-2.636-3.1-7.285-3.474-10.383-0.84L22.142,486.317c-1.798-3.154-2.832-6.797-2.832-10.68v-282.98
			c0-3.435,0.796-6.746,2.298-9.725L238.65,376.278c3.469,3.091,7.558,5.073,11.829,5.995c6.804,1.47,14.061,0.189,20.049-3.842
			c0.971-0.654,1.921-1.354,2.817-2.152l217.043-193.346c1.503,2.978,2.298,6.288,2.298,9.724V475.637z"/>
	</g>
</g>
<g>
	<g>
		<path d="M406.337,101.732L272.079,5.188c-9.619-6.916-22.544-6.918-32.164,0L108.501,99.687
			c-3.303,2.375-4.054,6.977-1.679,10.281c2.375,3.301,6.978,4.056,10.281,1.679l131.413-94.498
			c4.474-3.217,10.489-3.218,14.962-0.001l134.258,96.544c1.301,0.936,2.805,1.387,4.295,1.387c2.289,0,4.547-1.066,5.986-3.066
			C410.392,108.71,409.639,104.107,406.337,101.732z"/>
	</g>
</g>
<g>
</g>
<g>
</g>
<g>
</g>
<g>
</g>
<g>
</g>
<g>
</g>
<g>
</g>
<g>
</g>
<g>
</g>
<g>
</g>
<g>
</g>
<g>
</g>
<g>
</g>
<g>
</g>
<g>
</g>
</svg>
