<?xml version="1.0" encoding="iso-8859-1"?>
<!-- Generator: Adobe Illustrator 19.0.0, SVG Export Plug-In . SVG Version: 6.00 Build 0)  -->
<svg version="1.1" id="Capa_1" xmlns="http://www.w3.org/2000/svg" xmlns:xlink="http://www.w3.org/1999/xlink" x="0px" y="0px"
	 viewBox="0 0 512.001 512.001" style="enable-background:new 0 0 512.001 512.001;" xml:space="preserve">
<g>
	<g>
		<path d="M356.934,118.259c-38.906,0-75.196,16.298-100.933,45.021c-25.737-28.723-62.028-45.021-100.933-45.021
			c-74.791,0-135.639,60.847-135.639,135.639c0,38.272,12.491,75.732,37.126,111.338c19.466,28.136,46.528,55.169,80.434,80.35
			c57.407,42.634,113.887,64.966,116.263,65.896c0.884,0.346,1.816,0.519,2.749,0.519c0.933,0,1.865-0.173,2.749-0.519
			c2.376-0.93,58.856-23.262,116.263-65.896c33.906-25.181,60.968-52.214,80.434-80.35c24.635-35.606,37.126-73.066,37.126-111.338
			C492.573,179.106,431.724,118.259,356.934,118.259z M443.136,356.51c-18.483,26.755-44.341,52.583-76.856,76.766
			c-48.802,36.297-98.263,58.006-110.281,63.029c-11.993-5.008-61.232-26.605-110.014-62.833
			c-32.581-24.196-58.495-50.043-77.022-76.821c-22.857-33.035-34.445-67.607-34.445-102.753c0-66.472,54.079-120.55,120.55-120.55
			c37.331,0,71.954,16.884,94.992,46.324c1.43,1.827,3.621,2.895,5.941,2.895c2.32,0,4.511-1.068,5.941-2.895
			c23.038-29.44,57.662-46.324,94.992-46.324c66.472,0,120.55,54.079,120.55,120.55C477.484,288.994,465.927,323.518,443.136,356.51
			z"/>
	</g>
</g>
<g>
	<g>
		<path d="M256,214.934c-33.557,0-60.859,27.302-60.859,60.86c0,18.722,8.61,36.309,23.221,47.818v63.627
			c0,20.753,16.885,37.638,37.638,37.638s37.638-16.885,37.638-37.638v-63.627c14.611-11.509,23.221-29.096,23.221-47.818
			C316.859,242.236,289.557,214.934,256,214.934z M281.831,313.576c-2.053,1.407-3.28,3.736-3.28,6.224v67.439
			c0,12.434-10.116,22.55-22.55,22.55c-12.434,0-22.55-10.116-22.55-22.55V319.8c0-2.488-1.227-4.817-3.28-6.224
			c-12.486-8.554-19.941-22.679-19.941-37.782c0-25.239,20.532-45.771,45.77-45.771c25.238,0,45.77,20.532,45.77,45.771
			C301.771,290.897,294.317,305.022,281.831,313.576z"/>
	</g>
</g>
<g>
	<g>
		<path d="M365.031,91.041C355.497,38.288,309.641,0,256,0c-53.642,0-99.496,38.288-109.031,91.04
			c-0.741,4.1,1.982,8.025,6.082,8.766c0.454,0.082,0.905,0.121,1.351,0.121c3.579,0,6.756-2.557,7.415-6.203
			c8.236-45.565,47.845-78.636,94.183-78.636c46.337,0,85.947,33.071,94.183,78.636c0.742,4.1,4.667,6.823,8.766,6.083
			C363.049,99.065,365.772,95.141,365.031,91.041z"/>
	</g>
</g>
<g>
	<g>
		<path d="M328.062,95.642C320.943,61.759,290.638,37.167,256,37.167s-64.943,24.592-72.06,58.475
			c-0.857,4.078,1.755,8.078,5.833,8.934c4.081,0.861,8.077-1.755,8.934-5.832c5.657-26.938,29.753-46.489,57.293-46.489
			s51.636,19.551,57.294,46.489c0.747,3.554,3.882,5.995,7.376,5.995c0.514,0,1.035-0.053,1.558-0.163
			C326.307,103.719,328.918,99.719,328.062,95.642z"/>
	</g>
</g>
<g>
</g>
<g>
</g>
<g>
</g>
<g>
</g>
<g>
</g>
<g>
</g>
<g>
</g>
<g>
</g>
<g>
</g>
<g>
</g>
<g>
</g>
<g>
</g>
<g>
</g>
<g>
</g>
<g>
</g>
</svg>
