<?xml version="1.0" encoding="iso-8859-1"?>
<!-- Generator: Adobe Illustrator 19.0.0, SVG Export Plug-In . SVG Version: 6.00 Build 0)  -->
<svg version="1.1" id="Capa_1" xmlns="http://www.w3.org/2000/svg" xmlns:xlink="http://www.w3.org/1999/xlink" x="0px" y="0px"
	 viewBox="0 0 512.003 512.003" style="enable-background:new 0 0 512.003 512.003;" xml:space="preserve">
<g>
	<g>
		<path d="M191.414,67.684c-15.016-15.014-38.799-15.13-55.322-0.271c-19.766,17.774-20.68,41.866-17.967,58.948
			c0.266,1.67-0.262,3.308-1.447,4.493s-2.825,1.71-4.493,1.447c-17.083-2.716-41.174-1.8-58.948,17.966
			c-14.859,16.524-14.742,40.307,0.272,55.322c10.445,10.444,29.642,21.508,64.088,21.508c8.16,0,17.18-0.622,27.138-2.02
			c19.947-2.798,37.977-7.991,49.59-11.855c2.231-0.742,3.982-2.493,4.724-4.724c3.863-11.611,9.055-29.639,11.855-49.589
			C218.201,106.915,204.333,80.602,191.414,67.684z M196.126,156.838c-2.373,16.911-6.587,32.418-10.077,43.388
			c-10.971,3.49-26.478,7.704-43.388,10.077c-45.904,6.438-68.081-4.746-78.601-15.264c-9.31-9.311-9.193-24.268,0.272-34.794
			c6.121-6.805,16.772-14.137,34.26-14.137c3.473,0,7.221,0.29,11.252,0.931c6.442,1.024,12.781-1.029,17.385-5.634
			c4.604-4.605,6.657-10.942,5.633-17.385c-3.864-24.325,5.049-38.175,13.207-45.51c10.526-9.468,25.483-9.582,34.793-0.272
			C191.382,88.756,202.569,110.931,196.126,156.838z"/>
	</g>
</g>
<g>
	<g>
		<path d="M474.094,442.129l-231.64-231.643c3.614-12.251,7.32-27.311,9.75-43.767c8.218-55.652-2.535-100.164-31.098-128.728
			c-15.358-15.358-35.777-23.816-57.496-23.816c-21.72,0-42.139,8.458-57.497,23.816C90.429,53.675,81.996,74.603,82.295,96.47
			c-21.86-0.301-42.796,8.134-58.479,23.818C8.458,135.646,0,156.065,0,177.785c0,21.72,8.458,42.139,23.816,57.497
			c22.336,22.335,54.42,33.781,93.962,33.78c11.024-0.001,22.633-0.891,34.766-2.682c16.456-2.43,31.515-6.137,43.766-9.75
			l231.642,231.642c6.163,6.162,14.356,9.556,23.071,9.556c8.716-0.001,16.909-3.395,23.071-9.557
			c6.163-6.163,9.557-14.356,9.557-23.071C483.651,456.485,480.257,448.292,474.094,442.129z M34.367,224.73
			c-25.886-25.885-25.886-68.005,0-93.89c12.586-12.586,29.308-19.453,46.834-19.453c2.718,0,5.457,0.165,8.201,0.499
			c2.276,0.277,4.557-0.508,6.179-2.129c1.623-1.623,2.408-3.901,2.13-6.18c-2.493-20.438,4.414-40.497,18.952-55.034
			c25.886-25.886,68.005-25.886,93.891,0c31.63,31.629,32.106,80.363,26.935,115.676c-2.524,17.234-6.602,33.06-10.397,45.426
			c-0.193,0.458-0.34,0.931-0.438,1.412c-3.233,10.372-6.206,18.149-7.757,22.011C200.246,240.54,90.618,280.982,34.367,224.73z
			 M463.544,477.719c-6.904,6.905-18.136,6.905-25.041,0L212.277,251.493c9.173-3.208,14.773-5.634,15.322-5.874
			c1.719-0.752,3.092-2.126,3.845-3.845c0.24-0.549,2.666-6.148,5.874-15.32l226.226,226.227
			C470.447,459.583,470.447,470.816,463.544,477.719z"/>
	</g>
</g>
<g>
	<g>
		<path d="M504.212,344.076c-5.022-5.022-11.699-7.787-18.802-7.787c-7.103,0-13.779,2.766-18.801,7.787l-18.728,18.729
			l-14.794-14.794l18.728-18.728c5.022-5.022,7.788-11.699,7.788-18.802c0-7.103-2.766-13.779-7.787-18.801
			c-5.023-5.022-11.699-7.788-18.802-7.788c-7.103,0-13.779,2.766-18.801,7.787l-26.207,26.207c-2.914,2.914-2.914,7.638,0,10.552
			c2.913,2.912,7.638,2.912,10.551,0l26.208-26.208c2.203-2.203,5.133-3.417,8.25-3.417s6.046,1.213,8.25,3.418
			c2.204,2.203,3.417,5.133,3.417,8.25s-1.213,6.046-3.417,8.25l-24.004,24.004c-2.914,2.914-2.914,7.638,0,10.552l25.345,25.345
			c1.399,1.399,3.297,2.185,5.276,2.185s3.877-0.786,5.276-2.185l24.004-24.005c2.203-2.203,5.133-3.417,8.25-3.417
			s6.047,1.213,8.251,3.418c2.204,2.203,3.417,5.133,3.417,8.25s-1.213,6.046-3.417,8.25l-26.077,26.077
			c-2.914,2.914-2.914,7.638,0,10.552c1.457,1.456,3.366,2.185,5.276,2.185c1.91,0,3.819-0.729,5.276-2.185l26.077-26.077
			c5.022-5.023,7.788-11.699,7.788-18.802C512.003,355.775,509.234,349.099,504.212,344.076z"/>
	</g>
</g>
<g>
</g>
<g>
</g>
<g>
</g>
<g>
</g>
<g>
</g>
<g>
</g>
<g>
</g>
<g>
</g>
<g>
</g>
<g>
</g>
<g>
</g>
<g>
</g>
<g>
</g>
<g>
</g>
<g>
</g>
</svg>
