<?xml version="1.0" encoding="iso-8859-1"?>
<!-- Generator: Adobe Illustrator 19.0.0, SVG Export Plug-In . SVG Version: 6.00 Build 0)  -->
<svg version="1.1" id="Capa_1" xmlns="http://www.w3.org/2000/svg" xmlns:xlink="http://www.w3.org/1999/xlink" x="0px" y="0px"
	 viewBox="0 0 511.999 511.999" style="enable-background:new 0 0 511.999 511.999;" xml:space="preserve">
<g>
	<g>
		<path d="M463.344,231.946c-4.146,0-7.506,3.36-7.506,7.506v239.333c0,4.386-3.569,7.955-7.956,7.955H64.117
			c-4.386,0-7.955-3.569-7.955-7.955V239.451c0-4.146-3.36-7.506-7.506-7.506s-7.506,3.36-7.506,7.506v239.333
			c0,12.664,10.303,22.967,22.967,22.967h383.765c12.664,0,22.968-10.303,22.968-22.967V239.451
			C470.85,235.306,467.49,231.946,463.344,231.946z"/>
	</g>
</g>
<g>
	<g>
		<path d="M492.592,130.489H376.415c0.833-0.359,1.672-0.704,2.5-1.072c35.381-15.736,60.595-38.051,67.445-59.692
			c3.635-11.483,5.307-33.234-24.335-49.888c-18.464-10.372-37.874-12.341-57.692-5.849c-32.808,10.747-60.969,43.024-80.677,72.041
			c0.003,0.002,0.007,0.005,0.01,0.008c-7.851-5.482-17.387-8.709-27.668-8.709c-10.276,0-19.808,3.225-27.657,8.702
			c-19.708-29.017-47.869-61.294-80.677-72.041c-19.817-6.491-39.23-4.524-57.692,5.849C60.333,36.491,62.005,58.242,65.639,69.726
			c6.851,21.64,32.064,43.955,67.445,59.692c0.828,0.368,1.668,0.713,2.5,1.072H19.408C8.707,130.489,0,139.196,0,149.897v42.913
			c0,10.701,8.707,19.408,19.408,19.408H207.54v158.619c0,2.986,1.769,5.687,4.505,6.88c0.966,0.42,1.986,0.625,2.998,0.625
			c1.86,0,3.693-0.691,5.109-2.005L256,343.052l35.845,33.286c2.187,2.03,5.369,2.571,8.108,1.38
			c2.736-1.193,4.505-3.895,4.505-6.88V212.219h188.133c10.701,0,19.408-8.707,19.408-19.408v-42.913
			C512,139.196,503.293,130.489,492.592,130.489z M19.408,197.208c-2.425,0-4.397-1.972-4.397-4.397v-42.913
			c0-2.425,1.972-4.397,4.397-4.397H207.54v51.707H19.408z M207.541,125.787v4.702h-21.705c-16.1-3.279-31.92-8.237-46.65-14.789
			c-31.046-13.808-53.744-33.161-59.234-50.506c-4.014-12.679,1.832-23.536,17.376-32.269c9.127-5.128,18.284-7.682,27.674-7.682
			c5.884,0,11.861,1.004,17.975,3.005c29.584,9.683,55.883,40.786,74.318,68.418C211.175,104.779,207.541,114.866,207.541,125.787z
			 M250.892,327.31l-28.341,26.316V212.219h66.895v141.406l-28.339-26.315C258.226,324.636,253.771,324.636,250.892,327.31z
			 M289.447,197.208h-66.895v-51.707h66.895V197.208z M289.447,130.489h-66.895v-4.702c0-18.444,15.005-33.448,33.448-33.448
			s33.447,15.004,33.447,33.448V130.489z M294.705,96.667c18.434-27.632,44.733-58.735,74.318-68.418
			c15.873-5.196,30.804-3.665,45.65,4.676c15.544,8.733,21.39,19.59,17.376,32.269c-5.49,17.345-28.188,36.698-59.234,50.506
			c-14.73,6.551-30.548,11.51-46.646,14.789h-21.71v-4.702C304.458,114.866,300.824,104.78,294.705,96.667z M492.592,197.208
			H304.458v-51.707h188.133c2.425,0,4.397,1.972,4.397,4.397v42.913h0.001C496.989,195.236,495.017,197.208,492.592,197.208z"/>
	</g>
</g>
<g>
</g>
<g>
</g>
<g>
</g>
<g>
</g>
<g>
</g>
<g>
</g>
<g>
</g>
<g>
</g>
<g>
</g>
<g>
</g>
<g>
</g>
<g>
</g>
<g>
</g>
<g>
</g>
<g>
</g>
</svg>
