<?xml version="1.0" encoding="iso-8859-1"?>
<!-- Generator: Adobe Illustrator 19.0.0, SVG Export Plug-In . SVG Version: 6.00 Build 0)  -->
<svg version="1.1" id="Capa_1" xmlns="http://www.w3.org/2000/svg" xmlns:xlink="http://www.w3.org/1999/xlink" x="0px" y="0px"
	 viewBox="0 0 512 512" style="enable-background:new 0 0 512 512;" xml:space="preserve">
<g>
	<g>
		<path d="M416.251,45.145h-320.5c-23.382,0-42.404,19.022-42.404,42.404v92.718c0,4.146,3.36,7.506,7.506,7.506
			s7.506-3.36,7.506-7.506V87.549c0-15.104,12.289-27.393,27.393-27.393H416.25c15.104,0,27.393,12.289,27.393,27.393v92.718
			c0,4.146,3.36,7.506,7.506,7.506c4.146,0,7.506-3.36,7.506-7.506V87.549C458.655,64.166,439.633,45.145,416.251,45.145z"/>
	</g>
</g>
<g>
	<g>
		<path d="M486.674,333.799V87.549c0-38.833-31.592-70.425-70.425-70.425H95.751c-38.833,0-70.425,31.592-70.425,70.425v246.25
			C11.082,335.497,0,347.643,0,362.336v34.333c0,54.152,44.056,98.208,98.208,98.208h315.584c54.152,0,98.208-44.056,98.208-98.208
			v-34.333C512,347.643,500.918,335.497,486.674,333.799z M40.337,87.549c0-30.555,24.859-55.414,55.414-55.414h320.498
			c30.555,0,55.414,24.859,55.414,55.414v246.039H460.67c-0.607-1.938-1.28-3.84-2.016-5.707V215.19c0-4.146-3.36-7.506-7.506-7.506
			c-4.146,0-7.506,3.36-7.506,7.506v88.155c-13.679-15.499-32.919-25.637-54.332-27.736c-2.799-52.524-36.519-98.674-85.227-117.484
			l26.66-24.781c2.703-2.513,3.178-6.617,1.121-9.681l-26.597-39.609c-1.395-2.077-3.73-3.322-6.231-3.322h-86.071
			c-2.501,0-4.837,1.245-6.231,3.322l-26.597,39.609c-2.057,3.064-1.582,7.168,1.121,9.681l26.66,24.781
			c-48.7,18.808-82.418,64.949-85.225,117.484c-21.414,2.099-40.655,12.237-54.334,27.737V215.19c0-4.146-3.36-7.506-7.506-7.506
			s-7.506,3.36-7.506,7.506V327.88c-0.736,1.867-1.409,3.769-2.016,5.707H40.337V87.549z M67.578,333.587
			c0.402-0.813,0.663-1.706,0.747-2.652c10.643-24.173,34.418-40.3,61.594-40.717c0.027,0,0.054,0.004,0.082,0.004
			c0.029,0,0.059,0,0.088-0.001c0.206-0.002,0.41-0.009,0.615-0.016h250.594c0.204,0.007,0.409,0.014,0.615,0.016
			c0.028,0.001,0.058,0.001,0.087,0.001c0.027,0,0.054-0.004,0.081-0.004c27.61,0.422,51.704,17.066,62.089,41.884
			c0.039,0.098,0.078,0.195,0.12,0.291c0.164,0.398,0.336,0.792,0.493,1.194H67.578z M292.861,348.599v22.149
			c0,1.935-1.573,3.509-3.509,3.509h-66.705c-1.935,0-3.509-1.573-3.509-3.509v-22.149H292.861z M306.597,135.292L256,182.323
			l-50.597-47.031H306.597z M200.488,120.279l16.477-24.538h78.069l16.477,24.538H200.488z M273.424,186.62l18.241-16.955
			c46.581,14.68,79.487,56.917,82.589,105.521l-20.911-0.001C349.941,230.685,316.567,194.427,273.424,186.62z M338.261,275.187
			H173.739c3.806-42.049,39.237-75.111,82.261-75.111C299.023,200.076,334.454,233.138,338.261,275.187z M238.576,186.62
			c-43.143,7.807-76.517,44.064-79.919,88.566h-20.912c3.094-48.59,36.002-90.839,82.59-105.521L238.576,186.62z M496.99,396.669
			L496.99,396.669c-0.001,45.874-37.323,83.197-83.198,83.197H98.208c-45.874,0-83.197-37.322-83.197-83.197v-34.333
			c0-7.574,6.162-13.737,13.736-13.737h175.381v22.149c0,10.212,8.308,18.52,18.52,18.52h66.705c10.212,0,18.52-8.308,18.52-18.52
			v-22.149h175.381c7.574,0,13.736,6.163,13.736,13.737V396.669z"/>
	</g>
</g>
<g>
</g>
<g>
</g>
<g>
</g>
<g>
</g>
<g>
</g>
<g>
</g>
<g>
</g>
<g>
</g>
<g>
</g>
<g>
</g>
<g>
</g>
<g>
</g>
<g>
</g>
<g>
</g>
<g>
</g>
</svg>
