<?xml version="1.0" encoding="iso-8859-1"?>
<!-- Generator: Adobe Illustrator 19.0.0, SVG Export Plug-In . SVG Version: 6.00 Build 0)  -->
<svg version="1.1" id="Capa_1" xmlns="http://www.w3.org/2000/svg" xmlns:xlink="http://www.w3.org/1999/xlink" x="0px" y="0px"
	 viewBox="0 0 512 512" style="enable-background:new 0 0 512 512;" xml:space="preserve">
<g>
	<g>
		<path d="M391.452,204.401H120.55c-4.143,0-7.502,3.358-7.502,7.502c0,4.144,3.359,7.502,7.502,7.502h270.901
			c4.144,0,7.502-3.358,7.502-7.502C398.953,207.76,395.595,204.401,391.452,204.401z"/>
	</g>
</g>
<g>
	<g>
		<path d="M214.098,401.806H120.55c-4.143,0-7.502,3.358-7.502,7.502c0,4.144,3.359,7.502,7.502,7.502h93.547
			c4.143,0,7.502-3.358,7.502-7.502C221.599,405.164,218.241,401.806,214.098,401.806z"/>
	</g>
</g>
<g>
	<g>
		<path d="M214.098,336.005H120.55c-4.143,0-7.502,3.358-7.502,7.502c0,4.144,3.359,7.502,7.502,7.502h93.547
			c4.143,0,7.502-3.358,7.502-7.502C221.6,339.363,218.241,336.005,214.098,336.005z"/>
	</g>
</g>
<g>
	<g>
		<path d="M249.473,72.955H120.55c-4.143,0-7.502,3.358-7.502,7.502c0,4.144,3.359,7.502,7.502,7.502h128.922
			c4.143,0,7.502-3.358,7.502-7.502C256.975,76.313,253.616,72.955,249.473,72.955z"/>
	</g>
</g>
<g>
	<g>
		<path d="M148.885,138.638H120.55c-4.143,0-7.502,3.358-7.502,7.502c0,4.144,3.359,7.502,7.502,7.502h28.334
			c4.143,0,7.502-3.358,7.502-7.502C156.387,141.996,153.028,138.638,148.885,138.638z"/>
	</g>
</g>
<g>
	<g>
		<path d="M391.451,138.638H183.79c-4.143,0-7.502,3.359-7.502,7.502c0,4.144,3.359,7.502,7.502,7.502h207.661
			c4.144,0,7.502-3.358,7.502-7.502C398.953,141.996,395.595,138.638,391.451,138.638z"/>
	</g>
</g>
<g>
	<g>
		<path d="M315.155,270.203H120.55c-4.143,0-7.502,3.358-7.502,7.502c0,4.144,3.359,7.502,7.502,7.502h194.604
			c4.144,0,7.502-3.358,7.502-7.502C322.657,273.561,319.299,270.203,315.155,270.203z"/>
	</g>
</g>
<g>
	<g>
		<path d="M391.451,270.203H350.06c-4.144,0-7.502,3.358-7.502,7.502c0,4.144,3.358,7.502,7.502,7.502h41.391
			c4.144,0,7.502-3.358,7.502-7.502C398.953,273.561,395.595,270.203,391.451,270.203z"/>
	</g>
</g>
<g>
	<g>
		<path d="M459.041,111.245c-0.003-0.084-0.007-0.168-0.012-0.252c-0.022-0.32-0.057-0.638-0.118-0.95
			c-0.001-0.003-0.001-0.007-0.002-0.01c-0.063-0.317-0.154-0.627-0.257-0.932c-0.027-0.079-0.055-0.156-0.084-0.234
			c-0.108-0.288-0.228-0.57-0.371-0.843c-0.009-0.017-0.015-0.034-0.024-0.051c-0.152-0.286-0.329-0.558-0.517-0.823
			c-0.049-0.068-0.098-0.135-0.149-0.201c-0.201-0.263-0.413-0.519-0.65-0.756L352.861,2.197c-0.237-0.237-0.494-0.45-0.758-0.652
			c-0.066-0.05-0.131-0.099-0.198-0.147c-0.265-0.189-0.538-0.366-0.824-0.519c-0.017-0.009-0.035-0.016-0.052-0.025
			c-0.271-0.142-0.552-0.262-0.839-0.369c-0.08-0.03-0.159-0.059-0.24-0.086c-0.303-0.102-0.61-0.192-0.924-0.255
			c-0.013-0.003-0.027-0.003-0.04-0.006c-0.3-0.058-0.606-0.092-0.914-0.114c-0.091-0.006-0.182-0.011-0.274-0.014
			C347.716,0.009,347.637,0,347.556,0H80.82C65.451,0,52.948,12.503,52.948,27.872v456.256C52.948,499.497,65.451,512,80.82,512
			h350.362c15.368,0,27.871-12.503,27.871-27.872v-372.63C459.053,111.413,459.044,111.329,459.041,111.245z M355.056,25.613h0.001
			l78.383,78.383h-63.25c-8.345,0-15.134-6.789-15.134-15.133V25.613z M444.05,484.128c0,7.095-5.772,12.868-12.867,12.868H80.82
			c-7.095,0-12.868-5.773-12.868-12.868V27.872c0-7.095,5.772-12.868,12.868-12.868h259.234v73.86
			c0,16.617,13.52,30.136,30.137,30.136h73.859V484.128z"/>
	</g>
</g>
<g>
	<g>
		<path d="M371.802,315.165c-9.828,0.001-19.103,3.436-26.43,9.627c-7.326-6.19-16.602-9.626-26.428-9.626
			c-22.632,0-41.043,18.412-41.043,41.043c0,24.133,16.564,42.425,32.947,54.616v52.395c0,2.599,1.346,5.014,3.557,6.381
			s4.974,1.489,7.298,0.329l23.67-11.83l23.671,11.83c1.058,0.528,2.207,0.791,3.353,0.791c1.371,0,2.74-0.376,3.944-1.12
			c2.211-1.368,3.557-3.782,3.557-6.381v-52.396c16.382-12.191,32.947-30.483,32.947-54.616
			C412.845,333.576,394.433,315.165,371.802,315.165z M364.895,451.085l-16.169-8.081c-1.055-0.527-2.205-0.791-3.353-0.791
			s-2.298,0.264-3.353,0.791l-16.168,8.081v-30.508c8.599,4.89,15.288,7.631,16.627,8.163c0.079,0.031,0.133,0.053,0.159,0.063
			c0.628,0.246,1.281,0.4,1.941,0.47c0.264,0.028,0.528,0.046,0.794,0.046c0.928,0,1.856-0.172,2.734-0.516
			c0.845-0.331,7.766-3.097,16.788-8.227V451.085z M345.368,413.657c-3.806-1.706-11.125-5.239-19.107-10.424
			c-0.06-0.039-0.12-0.077-0.18-0.117c-0.445-0.29-0.893-0.589-1.342-0.889c-0.174-0.117-0.348-0.232-0.523-0.351
			c-0.391-0.265-0.784-0.536-1.177-0.808c-1.056-0.733-2.117-1.486-3.179-2.275c-17.886-13.284-26.956-27.611-26.956-42.585
			c0-14.358,11.682-26.04,26.04-26.04c8.063,0,15.543,3.648,20.521,10.009c1.421,1.817,3.6,2.879,5.908,2.879
			s4.485-1.062,5.908-2.879c4.979-6.361,12.458-10.009,20.522-10.009c14.357,0.001,26.038,11.683,26.038,26.041
			C397.841,387.937,356.5,408.655,345.368,413.657z"/>
	</g>
</g>
<g>
</g>
<g>
</g>
<g>
</g>
<g>
</g>
<g>
</g>
<g>
</g>
<g>
</g>
<g>
</g>
<g>
</g>
<g>
</g>
<g>
</g>
<g>
</g>
<g>
</g>
<g>
</g>
<g>
</g>
</svg>
