<?xml version="1.0" encoding="iso-8859-1"?>
<!-- Generator: Adobe Illustrator 19.0.0, SVG Export Plug-In . SVG Version: 6.00 Build 0)  -->
<svg version="1.1" id="Capa_1" xmlns="http://www.w3.org/2000/svg" xmlns:xlink="http://www.w3.org/1999/xlink" x="0px" y="0px"
	 viewBox="0 0 512 512" style="enable-background:new 0 0 512 512;" xml:space="preserve">
<g>
	<g>
		<path d="M292.183,91.829c-13.603,0-26.393,5.06-36.183,14.112c-9.789-9.052-22.58-14.112-36.183-14.112
			c-29.446,0-53.401,23.955-53.401,53.4c0,26.052,15.24,51.139,44.072,72.552c21.086,15.66,41.909,23.893,42.786,24.236
			c0.876,0.342,1.801,0.514,2.726,0.514s1.85-0.171,2.726-0.514c0.876-0.343,21.699-8.576,42.786-24.236
			c28.832-21.413,44.072-46.5,44.072-72.552C345.584,115.784,321.628,91.829,292.183,91.829z M255.995,226.928
			c-13.751-6.029-74.616-35.351-74.616-81.7c0-21.195,17.243-38.438,38.439-38.438c11.903,0,22.943,5.385,30.291,14.772
			c1.418,1.812,3.591,2.871,5.891,2.871c2.301,0,4.474-1.059,5.891-2.871c7.348-9.388,18.388-14.772,30.291-14.772
			c21.195,0,38.439,17.243,38.439,38.438C330.621,191.477,269.735,220.884,255.995,226.928z"/>
	</g>
</g>
<g>
	<g>
		<path d="M256,0C169.865,0,99.789,70.076,99.789,156.21c0,105.13,108.232,242.237,141.403,281.755
			c3.685,4.389,9.081,6.906,14.808,6.906c5.726,0,11.123-2.517,14.807-6.906C303.978,398.447,412.21,261.34,412.21,156.21
			C412.21,70.076,342.135,0,256,0z M259.347,428.344c-1.142,1.361-2.587,1.563-3.347,1.563s-2.205-0.203-3.347-1.563
			c-32.35-38.539-137.901-172.059-137.901-272.134c0-77.884,63.363-141.248,141.248-141.248S397.248,78.325,397.248,156.21
			C397.248,256.285,291.697,389.805,259.347,428.344z"/>
	</g>
</g>
<g>
	<g>
		<path d="M455.951,473.999l-31.893-80.934c-4.216-10.699-14.371-17.612-25.87-17.612h-60.085c-4.132,0-7.481,3.349-7.481,7.481
			c0,4.132,3.349,7.481,7.481,7.481h60.085c5.311,0,10.002,3.193,11.949,8.136l31.893,80.934c1.583,4.016,1.097,8.368-1.333,11.937
			c-2.429,3.569-6.299,5.616-10.617,5.616H81.92c-4.318,0-8.187-2.047-10.617-5.616c-2.43-3.569-2.916-7.921-1.332-11.937
			l31.067-78.839c2.448-6.215,8.347-10.23,15.026-10.23h55.875c4.132,0,7.481-3.349,7.481-7.481c0-4.132-3.35-7.481-7.481-7.481
			h-55.875c-12.868,0-24.23,7.735-28.947,19.706L56.05,473.999c-3.377,8.568-2.299,18.23,2.884,25.842
			C64.117,507.455,72.71,512,81.92,512h348.16c9.21,0,17.802-4.545,22.985-12.158C458.248,492.228,459.327,482.568,455.951,473.999z
			"/>
	</g>
</g>
<g>
</g>
<g>
</g>
<g>
</g>
<g>
</g>
<g>
</g>
<g>
</g>
<g>
</g>
<g>
</g>
<g>
</g>
<g>
</g>
<g>
</g>
<g>
</g>
<g>
</g>
<g>
</g>
<g>
</g>
</svg>
