<?xml version="1.0" encoding="iso-8859-1"?>
<!-- Generator: Adobe Illustrator 19.0.0, SVG Export Plug-In . SVG Version: 6.00 Build 0)  -->
<svg version="1.1" id="Capa_1" xmlns="http://www.w3.org/2000/svg" xmlns:xlink="http://www.w3.org/1999/xlink" x="0px" y="0px"
	 viewBox="0 0 511.999 511.999" style="enable-background:new 0 0 511.999 511.999;" xml:space="preserve">
<g>
	<g>
		<path d="M499.004,204.518L260.417,32.526c-2.638-1.902-6.196-1.902-8.833,0l-74.376,53.616c1.581-2.606,2.509-5.651,2.509-8.916
			v-8.24c0-9.519-7.744-17.262-17.262-17.262h-82.6c-9.519,0-17.262,7.744-17.262,17.262v8.24c0,9.519,7.744,17.262,17.262,17.262
			h2.564v59.985l-69.423,50.045C4.858,210.384,0,219.875,0,229.907c0,11.805,6.528,22.48,17.037,27.86
			c10.508,5.377,22.985,4.431,32.562-2.471L256,106.505l206.401,148.791c5.454,3.931,11.846,5.931,18.282,5.931
			c4.866-0.001,9.756-1.144,14.28-3.46c10.508-5.379,17.036-16.055,17.036-27.86C512,219.875,507.142,210.384,499.004,204.518z
			 M79.854,79.382c-1.189,0-2.157-0.968-2.157-2.157v-8.24c0-1.189,0.968-2.157,2.157-2.157h82.6c1.189,0,2.157,0.968,2.157,2.157
			v8.24c0,1.189-0.968,2.157-2.157,2.157H79.854z M144.784,94.488v15.027l-47.26,34.069V94.488H144.784z M488.08,244.32
			c-5.519,2.824-11.817,2.347-16.846-1.278L260.417,91.067c-1.319-0.951-2.868-1.426-4.417-1.426s-3.098,0.475-4.417,1.426
			L40.766,243.042c-5.029,3.626-11.327,4.105-16.846,1.278c-5.519-2.824-8.814-8.213-8.814-14.413c0-5.19,2.513-10.1,6.723-13.135
			L256,47.964l234.171,168.808c4.21,3.035,6.723,7.945,6.723,13.135C496.894,236.107,493.599,241.496,488.08,244.32z"/>
	</g>
</g>
<g>
	<g>
		<path d="M428.325,248.801c-4.171,0-7.553,3.381-7.553,7.553v196.562c0,7.101-5.777,12.878-12.879,12.878H104.106
			c-7.101,0-12.879-5.777-12.879-12.878V256.353c0-4.172-3.382-7.553-7.553-7.553s-7.553,3.381-7.553,7.553v196.562
			c0,15.43,12.554,27.984,27.984,27.984h303.787c15.431,0,27.984-12.554,27.984-27.984V256.353
			C435.878,252.182,432.496,248.801,428.325,248.801z"/>
	</g>
</g>
<g>
	<g>
		<path d="M304.633,215.065c-18.443,0-35.735,7.17-48.634,19.929c-12.899-12.759-30.19-19.929-48.634-19.929
			c-38.198,0-69.274,31.076-69.274,69.273c0,34.192,20.134,67.219,58.227,95.508c28.078,20.852,55.765,31.798,56.93,32.255
			c0.885,0.346,1.818,0.519,2.752,0.519s1.868-0.173,2.752-0.519c1.165-0.456,28.852-11.403,56.928-32.255
			c38.093-28.289,58.227-61.316,58.227-95.508C373.907,246.14,342.831,215.065,304.633,215.065z M306.934,367.525
			c-21.538,16.045-43.395,26.109-50.935,29.358c-7.544-3.251-29.399-13.315-50.935-29.358
			c-34.415-25.639-51.866-53.627-51.866-83.187c0-29.868,24.3-54.168,54.168-54.168c16.775,0,32.333,7.587,42.685,20.817
			c1.432,1.829,3.625,2.898,5.948,2.898s4.516-1.069,5.948-2.898c10.353-13.23,25.911-20.817,42.685-20.817
			c29.868,0,54.168,24.3,54.168,54.168C358.8,313.898,341.349,341.887,306.934,367.525z"/>
	</g>
</g>
<g>
</g>
<g>
</g>
<g>
</g>
<g>
</g>
<g>
</g>
<g>
</g>
<g>
</g>
<g>
</g>
<g>
</g>
<g>
</g>
<g>
</g>
<g>
</g>
<g>
</g>
<g>
</g>
<g>
</g>
</svg>
