<?xml version="1.0" encoding="iso-8859-1"?>
<!-- Generator: Adobe Illustrator 19.0.0, SVG Export Plug-In . SVG Version: 6.00 Build 0)  -->
<svg version="1.1" id="Capa_1" xmlns="http://www.w3.org/2000/svg" xmlns:xlink="http://www.w3.org/1999/xlink" x="0px" y="0px"
	 viewBox="0 0 511.998 511.998" style="enable-background:new 0 0 511.998 511.998;" xml:space="preserve">
<g>
	<g>
		<path d="M501.395,86.026c-0.108-0.122-0.212-0.246-0.328-0.361c-6.043-6.005-13.797-9.669-22.153-10.549
			c-0.06-0.006-0.118-0.016-0.178-0.022c-0.513-0.052-1.029-0.088-1.545-0.118c-0.113-0.007-0.223-0.019-0.336-0.025
			c-0.625-0.031-1.251-0.048-1.881-0.048H37.026c-0.63,0-1.257,0.017-1.881,0.048c-0.113,0.006-0.224,0.018-0.336,0.025
			c-0.517,0.03-1.033,0.066-1.545,0.118c-0.06,0.006-0.118,0.015-0.178,0.022c-8.356,0.88-16.11,4.544-22.153,10.549
			c-0.116,0.115-0.22,0.239-0.328,0.361C4.051,92.709,0,101.854,0,111.931v288.137c0,10.506,4.406,19.996,11.457,26.741
			c0.1,0.105,0.195,0.214,0.302,0.313c1.88,1.757,3.921,3.29,6.08,4.602c0.002,0.002,0.005,0.003,0.007,0.005
			c0.497,0.302,1,0.592,1.51,0.869c0.03,0.017,0.061,0.033,0.091,0.049c0.481,0.26,0.966,0.509,1.457,0.747
			c0.065,0.031,0.13,0.062,0.195,0.093c0.457,0.218,0.917,0.427,1.382,0.626c0.104,0.045,0.209,0.089,0.313,0.132
			c0.428,0.178,0.859,0.349,1.293,0.511c0.143,0.053,0.286,0.106,0.43,0.158c0.399,0.143,0.801,0.279,1.205,0.409
			c0.18,0.058,0.36,0.115,0.541,0.17c0.373,0.113,0.749,0.219,1.125,0.32c0.211,0.057,0.422,0.115,0.635,0.168
			c0.354,0.089,0.711,0.169,1.069,0.247c0.234,0.051,0.468,0.104,0.704,0.151c0.346,0.069,0.693,0.128,1.041,0.186
			c0.248,0.042,0.495,0.087,0.745,0.124c0.351,0.052,0.704,0.093,1.057,0.135c0.247,0.029,0.493,0.063,0.741,0.088
			c0.391,0.038,0.784,0.064,1.177,0.09c0.212,0.014,0.423,0.034,0.636,0.045c0.609,0.03,1.219,0.047,1.832,0.047h437.947
			c0.613,0,1.224-0.017,1.832-0.047c0.213-0.01,0.424-0.031,0.636-0.045c0.393-0.026,0.786-0.051,1.177-0.09
			c0.249-0.024,0.494-0.058,0.741-0.088c0.353-0.042,0.706-0.083,1.057-0.135c0.25-0.037,0.497-0.082,0.745-0.124
			c0.348-0.059,0.695-0.118,1.041-0.186c0.236-0.047,0.47-0.1,0.705-0.151c0.357-0.078,0.714-0.159,1.068-0.247
			c0.213-0.053,0.424-0.111,0.635-0.168c0.377-0.101,0.752-0.207,1.125-0.32c0.181-0.055,0.361-0.113,0.541-0.17
			c0.404-0.13,0.806-0.265,1.205-0.409c0.144-0.052,0.287-0.105,0.43-0.158c0.434-0.162,0.865-0.332,1.293-0.511
			c0.105-0.044,0.209-0.088,0.313-0.132c0.465-0.199,0.925-0.408,1.382-0.626c0.065-0.031,0.13-0.062,0.195-0.093
			c0.491-0.238,0.977-0.487,1.457-0.747c0.031-0.016,0.061-0.033,0.092-0.049c0.51-0.278,1.013-0.567,1.51-0.869
			c0.002-0.002,0.005-0.003,0.007-0.005c2.159-1.312,4.2-2.845,6.08-4.602c0.106-0.1,0.202-0.208,0.302-0.313
			c7.052-6.745,11.457-16.236,11.457-26.741V111.931C512,101.854,507.949,92.709,501.395,86.026z M497,400.067
			c0,3.954-1.052,7.664-2.884,10.875L370.053,305.449c-3.156-2.683-7.891-2.299-10.572,0.855c-2.683,3.155-2.3,7.889,0.855,10.572
			l122.176,103.887c-0.027,0.01-0.055,0.018-0.082,0.028c-0.521,0.188-1.051,0.353-1.586,0.501
			c-0.076,0.021-0.151,0.045-0.228,0.065c-0.541,0.143-1.088,0.263-1.64,0.365c-0.098,0.018-0.196,0.036-0.294,0.053
			c-0.552,0.094-1.109,0.169-1.671,0.221c-0.088,0.008-0.177,0.013-0.265,0.02c-0.587,0.047-1.178,0.078-1.772,0.078H37.026
			c-0.594,0-1.185-0.03-1.772-0.078c-0.088-0.007-0.177-0.012-0.265-0.02c-0.561-0.052-1.118-0.127-1.671-0.221
			c-0.098-0.017-0.196-0.035-0.294-0.053c-0.552-0.102-1.1-0.221-1.64-0.365c-0.077-0.02-0.152-0.044-0.228-0.065
			c-0.535-0.148-1.064-0.313-1.586-0.501c-0.027-0.01-0.055-0.018-0.082-0.028l122.287-103.982
			c3.155-2.684,3.538-7.417,0.855-10.572c-2.682-3.156-7.415-3.539-10.572-0.855L17.884,410.942
			C16.052,407.731,15,404.021,15,400.067V111.931c0-3.573,0.86-6.946,2.377-9.933l115.419,101.603
			c3.11,2.735,7.849,2.435,10.586-0.674c2.736-3.109,2.435-7.849-0.674-10.586L28.362,91.683c2.661-1.143,5.59-1.779,8.665-1.779
			h437.947c3.075,0,6.004,0.635,8.665,1.779L369.262,192.368c-3.108,2.737-3.41,7.477-0.674,10.586
			c1.483,1.684,3.553,2.544,5.633,2.544c1.76,0,3.527-0.616,4.953-1.87l115.45-101.631c1.516,2.987,2.376,6.361,2.376,9.933V400.067
			z"/>
	</g>
</g>
<g>
	<g>
		<path d="M299.009,182.587c-16.255,0-31.512,6.215-43.009,17.299c-11.497-11.084-26.754-17.299-43.009-17.299
			c-34.232,0-62.083,27.851-62.083,62.083c0,30.508,17.921,59.942,51.824,85.121c24.916,18.505,49.5,28.225,50.534,28.63
			c0.879,0.344,1.807,0.516,2.733,0.516c0.926,0,1.854-0.172,2.733-0.516c1.034-0.405,25.618-10.125,50.534-28.63
			c33.903-25.179,51.824-54.613,51.824-85.121C361.092,210.437,333.241,182.587,299.009,182.587z M256,343.3
			c-15.367-6.693-90.092-42.168-90.092-98.63c0-25.962,21.121-47.083,47.083-47.083c14.579,0,28.103,6.596,37.103,18.096
			c1.422,1.816,3.6,2.878,5.906,2.878c2.306,0,4.484-1.062,5.906-2.878c9-11.5,22.523-18.096,37.103-18.096
			c25.962,0,47.083,21.121,47.083,47.083C346.092,301.132,271.364,336.607,256,343.3z"/>
	</g>
</g>
<g>
</g>
<g>
</g>
<g>
</g>
<g>
</g>
<g>
</g>
<g>
</g>
<g>
</g>
<g>
</g>
<g>
</g>
<g>
</g>
<g>
</g>
<g>
</g>
<g>
</g>
<g>
</g>
<g>
</g>
</svg>
