<?xml version="1.0" encoding="iso-8859-1"?>
<!-- Generator: Adobe Illustrator 19.0.0, SVG Export Plug-In . SVG Version: 6.00 Build 0)  -->
<svg version="1.1" id="Capa_1" xmlns="http://www.w3.org/2000/svg" xmlns:xlink="http://www.w3.org/1999/xlink" x="0px" y="0px"
	 viewBox="0 0 512 512" style="enable-background:new 0 0 512 512;" xml:space="preserve">
<g>
	<g>
		<path d="M452.715,318.989l-133.168-84.044v-61.254c8.323-2.018,14.53-9.511,14.53-18.446c0-10.476-8.522-18.998-18.998-18.998
			h-7.026L269.034,78.3c-1.436-2.132-3.343-3.84-5.53-5.028v-36.26h20.84c4.144,0,7.502-3.359,7.502-7.502s-3.358-7.502-7.502-7.502
			h-20.84V7.502C263.503,3.359,260.145,0,256.001,0c-4.144,0-7.502,3.359-7.502,7.502v14.505h-20.84
			c-4.144,0-7.502,3.359-7.502,7.502c0,4.143,3.359,7.502,7.502,7.502h20.84v36.26c-2.187,1.189-4.094,2.896-5.529,5.027
			l-39.02,57.948h-7.026c-10.476,0-18.998,8.522-18.998,18.998c0,8.935,6.207,16.428,14.53,18.446v61.254L59.287,318.989
			c-6.296,3.974-10.055,10.857-10.055,18.414c0,7.964,4.266,15.265,11.134,19.051c3.19,1.759,6.644,2.635,10.088,2.635
			c3.852,0,7.693-1.095,11.143-3.273L256.001,245.75l174.403,110.066c6.534,4.126,14.471,4.363,21.231,0.639
			c6.868-3.786,11.134-11.087,11.134-19.051C462.77,329.846,459.011,322.963,452.715,318.989z M255.415,86.68
			c0.057-0.085,0.209-0.311,0.585-0.311c0.376,0,0.529,0.226,0.586,0.312l33.376,49.567h-67.924L255.415,86.68z M196.923,151.252
			h118.155c2.202,0,3.993,1.792,3.993,3.993c0,2.202-1.792,3.993-3.993,3.993H196.923c-2.202,0-3.993-1.792-3.993-3.993
			S194.721,151.252,196.923,151.252z M304.542,174.244v51.231l-44.537-28.108c-2.446-1.543-5.562-1.543-8.008,0l-44.537,28.108
			v-51.231H304.542z M444.391,343.315c-0.91,0.502-3.319,1.492-5.978-0.188L260.005,230.533c-2.446-1.543-5.562-1.543-8.008,0
			L73.589,343.128c-2.66,1.676-5.068,0.688-5.979,0.187c-2.113-1.165-3.374-3.375-3.374-5.911c0-2.341,1.172-4.534,3.059-5.725
			l188.706-119.094l188.706,119.094c1.886,1.191,3.059,3.384,3.059,5.725C447.765,339.939,446.504,342.149,444.391,343.315z"/>
	</g>
</g>
<g>
	<g>
		<path d="M412.921,363.357c-4.144,0-7.502,3.359-7.502,7.502v126.136h-88.516v-98.463c0-33.582-27.32-60.903-60.902-60.903
			c-33.582,0-60.902,27.32-60.902,60.903v98.463h-88.516V370.86c0-4.144-3.359-7.502-7.502-7.502s-7.502,3.359-7.502,7.502v133.638
			c0,4.144,3.359,7.502,7.502,7.502h313.84c4.144,0,7.502-3.359,7.502-7.502V370.86
			C420.423,366.716,417.065,363.357,412.921,363.357z M301.899,496.995L301.899,496.995h-91.794v-98.463
			c0-25.308,20.589-45.898,45.897-45.898c25.308,0,45.897,20.59,45.897,45.898V496.995z"/>
	</g>
</g>
<g>
</g>
<g>
</g>
<g>
</g>
<g>
</g>
<g>
</g>
<g>
</g>
<g>
</g>
<g>
</g>
<g>
</g>
<g>
</g>
<g>
</g>
<g>
</g>
<g>
</g>
<g>
</g>
<g>
</g>
</svg>
