<?xml version="1.0" encoding="iso-8859-1"?>
<!-- Generator: Adobe Illustrator 19.0.0, SVG Export Plug-In . SVG Version: 6.00 Build 0)  -->
<svg version="1.1" id="Capa_1" xmlns="http://www.w3.org/2000/svg" xmlns:xlink="http://www.w3.org/1999/xlink" x="0px" y="0px"
	 viewBox="0 0 512 512" style="enable-background:new 0 0 512 512;" xml:space="preserve">
<g>
	<g>
		<path d="M154.17,328.832l-6.76-75.802c-0.506-5.657-5.17-9.922-10.849-9.922H39.163c-5.678,0-10.342,4.265-10.85,9.924
			l-6.76,75.799c-1.656,18.564,4.609,37.097,17.189,50.848c10.879,11.893,25.741,19.387,41.614,21.199v71.384
			c-3.727,0.924-7.266,2.528-10.463,4.788l-17.409,12.31c-4.452,3.148-6.334,8.755-4.683,13.951S54.227,512,59.679,512h56.365
			c5.453,0,10.226-3.492,11.878-8.688c1.652-5.196-0.231-10.803-4.683-13.951L105.83,477.05c-3.196-2.26-6.736-3.863-10.463-4.787
			v-71.384c15.873-1.812,30.735-9.307,41.614-21.199C149.561,365.928,155.826,347.395,154.17,328.832z M42.931,258.12h89.861
			l5.047,56.587H37.885L42.931,258.12z M97.163,489.307l10.861,7.681H67.699l10.861-7.68c2.736-1.934,5.952-2.957,9.302-2.957
			S94.428,487.373,97.163,489.307z M125.906,369.547c-9.886,10.807-23.397,16.759-38.044,16.759
			c-14.647,0-28.158-5.952-38.044-16.759s-14.614-24.793-13.312-39.382l0.04-0.446h102.632l0.04,0.446
			C140.519,344.754,135.792,358.74,125.906,369.547z"/>
	</g>
</g>
<g>
	<g>
		<path d="M490.448,328.831l-6.761-75.801c-0.506-5.657-5.17-9.922-10.849-9.922H375.44c-5.678,0-10.342,4.265-10.85,9.924
			l-6.76,75.799c-1.656,18.564,4.609,37.097,17.189,50.848c10.879,11.893,25.741,19.387,41.614,21.199v71.384
			c-3.727,0.924-7.266,2.528-10.463,4.788l-17.409,12.31c-4.452,3.148-6.334,8.755-4.683,13.951
			c1.652,5.197,6.425,8.688,11.878,8.688h56.365c5.453,0,10.226-3.492,11.878-8.688c1.652-5.197-0.231-10.803-4.683-13.951
			l-17.409-12.311c-3.196-2.26-6.736-3.863-10.463-4.787v-71.384c15.873-1.812,30.735-9.307,41.614-21.199
			C485.838,365.928,492.103,347.394,490.448,328.831z M379.208,258.12h89.861l5.047,56.587h-99.954L379.208,258.12z M433.44,489.307
			l10.861,7.681h-40.326l10.861-7.68c2.736-1.934,5.952-2.957,9.302-2.957C427.488,486.351,430.704,487.373,433.44,489.307z
			 M462.182,369.547c-9.886,10.807-23.397,16.759-38.044,16.759c-14.647,0-28.158-5.952-38.044-16.759
			c-9.886-10.807-14.614-24.793-13.312-39.382l0.04-0.446h102.632l0.04,0.446C476.796,344.754,472.068,358.74,462.182,369.547z"/>
	</g>
</g>
<g>
	<g>
		<path d="M307.149,189.981c-13.185-15.961-20.448-36.153-20.448-56.858V95.687h1.008c7.932,0,14.385-6.453,14.385-14.385V70.596
			c0-6.807-4.757-12.512-11.119-13.997V17.392c0-9.59-7.801-17.392-17.391-17.392h-35.168c-9.59,0-17.392,7.802-17.392,17.392V56.6
			c-6.361,1.485-11.118,7.19-11.118,13.996v10.706c0,7.932,6.453,14.385,14.385,14.385h1.008v37.436
			c0,20.704-7.263,40.897-20.45,56.859c-15.405,18.646-23.889,42.234-23.889,66.42c0,4.145,3.36,7.506,7.506,7.506
			s7.506-3.361,7.506-7.506c0-20.704,7.263-40.897,20.45-56.859c15.405-18.646,23.889-42.234,23.889-66.42V95.687h31.377v37.436
			c0,24.187,8.484,47.776,23.889,66.42c13.188,15.962,20.45,36.155,20.45,56.859v32.139h-70.65c-9.239,0-16.756,7.517-16.756,16.756
			v78.246c0,9.239,7.517,16.756,16.756,16.756h70.65v29.978c0,4.145,3.36,7.506,7.506,7.506c4.146,0,7.506-3.361,7.506-7.506
			V256.402C331.039,232.216,322.555,208.627,307.149,189.981z M238.416,15.013h35.168c1.312,0,2.379,1.067,2.379,2.379v38.819
			h-39.926V17.392h-0.001C236.036,16.08,237.103,15.013,238.416,15.013z M224.919,80.674v-9.451h62.162v9.451H224.919z
			 M316.028,385.286h-70.65c-0.962,0-1.744-0.782-1.744-1.744v-78.246c0-0.961,0.782-1.744,1.744-1.744h70.65V385.286z"/>
	</g>
</g>
<g>
	<g>
		<path d="M323.534,457.696c-4.146,0-7.506,3.361-7.506,7.506v17.853c0,7.33-5.963,13.293-13.293,13.293h-93.469
			c-7.33,0-13.293-5.963-13.293-13.293v-191.66c0-4.145-3.36-7.506-7.506-7.506s-7.506,3.361-7.506,7.506v191.66
			c0,15.608,12.698,28.306,28.305,28.306h93.469c15.608,0,28.305-12.698,28.305-28.306v-17.853
			C331.04,461.056,327.68,457.696,323.534,457.696z"/>
	</g>
</g>
<g>
</g>
<g>
</g>
<g>
</g>
<g>
</g>
<g>
</g>
<g>
</g>
<g>
</g>
<g>
</g>
<g>
</g>
<g>
</g>
<g>
</g>
<g>
</g>
<g>
</g>
<g>
</g>
<g>
</g>
</svg>
