<?xml version="1.0" encoding="iso-8859-1"?>
<!-- Generator: Adobe Illustrator 19.0.0, SVG Export Plug-In . SVG Version: 6.00 Build 0)  -->
<svg version="1.1" id="Capa_1" xmlns="http://www.w3.org/2000/svg" xmlns:xlink="http://www.w3.org/1999/xlink" x="0px" y="0px"
	 viewBox="0 0 512 512" style="enable-background:new 0 0 512 512;" xml:space="preserve">
<g>
	<g>
		<path d="M318.493,200.52c-23.859,0-46.179,9.578-62.492,26.554c-16.313-16.976-38.633-26.554-62.492-26.554
			c-47.856,0-86.788,38.933-86.788,86.789c0,24.278,7.901,48.008,23.485,70.532c12.226,17.673,29.195,34.632,50.434,50.405
			c35.841,26.618,71.148,40.578,72.634,41.16c0.877,0.343,1.802,0.514,2.726,0.514s1.85-0.171,2.726-0.514
			c1.485-0.582,36.793-14.542,72.634-41.16c21.239-15.773,38.208-32.732,50.436-50.405c15.583-22.524,23.485-46.254,23.485-70.532
			C405.281,239.453,366.348,200.52,318.493,200.52z M369.587,349.191c-11.253,16.304-27.027,32.066-46.887,46.85
			c-28.705,21.369-57.821,34.522-66.697,38.3c-19.307-8.24-134.322-60.984-134.322-147.032c0-39.606,32.222-71.828,71.827-71.828
			c22.243,0,42.873,10.061,56.601,27.603c1.417,1.812,3.59,2.87,5.891,2.87s4.474-1.059,5.891-2.87
			c13.728-17.542,34.359-27.603,56.601-27.603c39.606,0,71.827,32.222,71.827,71.828
			C390.319,308.439,383.344,329.259,369.587,349.191z"/>
	</g>
</g>
<g>
	<g>
		<path d="M478.232,48.858h-27.938v-18.87C450.294,13.452,436.842,0,420.306,0c-16.535,0-29.987,13.452-29.987,29.988v18.871
			h-49.563V29.988C340.756,13.452,327.304,0,310.769,0s-29.987,13.452-29.987,29.988v18.871h-49.564V29.988
			C231.218,13.452,217.766,0,201.231,0c-16.535,0-29.987,13.452-29.987,29.988v18.871h-49.563V29.988
			C121.681,13.452,108.229,0,91.694,0C75.158,0,61.706,13.452,61.706,29.988v18.871H33.768c-17.977,0-32.603,14.626-32.603,32.603
			v61.367v5.621c0,4.131,3.349,7.48,7.48,7.48h494.71c4.132,0,7.48-3.349,7.48-7.48V81.462
			C510.836,63.484,496.21,48.858,478.232,48.858z M405.28,56.339V29.988c0-8.285,6.741-15.027,15.026-15.027
			c8.286,0,15.027,6.741,15.027,15.027v26.351v27.658c0,6.732-4.45,12.444-10.563,14.35c-1.411,0.44-2.91,0.677-4.464,0.677
			c-1.553,0-3.053-0.237-4.463-0.677c-6.113-1.906-10.563-7.618-10.563-14.35V56.339z M295.743,29.988
			c0-8.285,6.741-15.027,15.026-15.027c8.285,0,15.026,6.741,15.026,15.027v26.351v27.658c0,8.285-6.741,15.027-15.026,15.027
			c-8.285,0-15.026-6.741-15.026-15.027V29.988z M186.205,56.339V29.988c0-8.285,6.741-15.027,15.026-15.027
			c8.285,0,15.026,6.741,15.026,15.027v54.009c0,8.285-6.741,15.027-15.026,15.027c-8.285,0-15.026-6.741-15.026-15.027V56.339z
			 M76.667,56.339V29.988c0-8.285,6.741-15.027,15.027-15.027c8.285,0,15.026,6.741,15.026,15.027v26.351v27.658
			c0,6.732-4.45,12.444-10.563,14.35c-1.411,0.44-2.91,0.677-4.463,0.677c-1.554,0-3.053-0.237-4.464-0.677
			c-6.113-1.906-10.563-7.618-10.563-14.35V56.339z M16.125,140.969V81.462c0-9.728,7.914-17.642,17.642-17.642h27.938v20.178
			c0,16.535,13.452,29.988,29.988,29.988c16.535,0,29.987-13.452,29.987-29.988V63.819h49.563v20.178
			c0,16.535,13.452,29.988,29.987,29.988c16.536,0,29.988-13.452,29.988-29.988V63.819h49.562v20.178
			c0,16.535,13.452,29.988,29.988,29.988c16.535,0,29.987-13.452,29.987-29.988V63.819h49.563v20.178
			c0,16.535,13.452,29.988,29.987,29.988c16.536,0,29.988-13.452,29.988-29.988V63.819h27.938c9.729,0,17.642,7.914,17.642,17.642
			v59.508H16.125z"/>
	</g>
</g>
<g>
	<g>
		<path d="M503.355,176.802c-4.132,0-7.48,3.349-7.48,7.48v295.114c0,9.728-7.914,17.643-17.642,17.643H33.768
			c-9.729,0-17.642-7.914-17.642-17.643V183.409c0-4.131-3.349-7.48-7.48-7.48s-7.48,3.349-7.48,7.48v295.987
			C1.164,497.374,15.79,512,33.768,512h444.464c17.977,0,32.603-14.626,32.603-32.604V184.282
			C510.836,180.151,507.487,176.802,503.355,176.802z"/>
	</g>
</g>
<g>
</g>
<g>
</g>
<g>
</g>
<g>
</g>
<g>
</g>
<g>
</g>
<g>
</g>
<g>
</g>
<g>
</g>
<g>
</g>
<g>
</g>
<g>
</g>
<g>
</g>
<g>
</g>
<g>
</g>
</svg>
