<?xml version="1.0" encoding="iso-8859-1"?>
<!-- Generator: Adobe Illustrator 19.0.0, SVG Export Plug-In . SVG Version: 6.00 Build 0)  -->
<svg version="1.1" id="Capa_1" xmlns="http://www.w3.org/2000/svg" xmlns:xlink="http://www.w3.org/1999/xlink" x="0px" y="0px"
	 viewBox="0 0 512 512" style="enable-background:new 0 0 512 512;" xml:space="preserve">
<g>
	<g>
		<path d="M470.806,180.162h-73.098c-5.725,0-10.383,4.657-10.383,10.382c0,17.18,10.765,31.884,25.901,37.746v9.957
			c0,35.377-28.78,64.157-64.157,64.157h-72.04V228.29c15.135-5.862,25.901-20.566,25.901-37.746
			c0-5.724-4.657-10.382-10.382-10.382H219.45c-5.725,0-10.382,4.657-10.382,10.382c0,17.18,10.766,31.884,25.901,37.746v74.115
			H162.93c-35.377,0-64.157-28.781-64.157-64.157v-9.958c15.135-5.862,25.901-20.566,25.901-37.746
			c0-5.724-4.657-10.382-10.382-10.382H41.193c-5.725,0-10.382,4.657-10.382,10.382c0,17.18,10.765,31.884,25.901,37.746v9.957
			c0,58.569,47.649,106.218,106.219,106.218h72.039v32.952c0,28.036-7.882,55.218-22.798,78.887H187.11
			c-22.642,0-41.062,18.42-41.062,41.062v7.129c0,4.145,3.36,7.505,7.505,7.505h204.895c4.145,0,7.505-3.36,7.505-7.505v-7.129
			c0-22.642-18.42-41.062-41.062-41.062h-25.062c-14.916-23.67-22.798-50.852-22.798-78.887v-32.952h72.039
			c58.569,0,106.218-47.649,106.218-106.218v-9.957c15.135-5.862,25.901-20.566,25.901-37.746
			C481.187,184.819,476.53,180.162,470.806,180.162z M224.499,195.172h63c-1.888,10.239-9.928,18.34-20.127,20.343
			c-0.195,0.038-0.389,0.078-0.585,0.112c-0.601,0.103-1.208,0.187-1.823,0.247c-0.16,0.016-0.32,0.026-0.48,0.039
			c-0.669,0.053-1.342,0.091-2.024,0.091h-12.922c-0.682,0-1.356-0.038-2.025-0.091c-0.16-0.013-0.32-0.023-0.48-0.039
			c-0.614-0.06-1.221-0.144-1.822-0.247c-0.197-0.034-0.392-0.074-0.589-0.112C234.425,213.51,226.387,205.41,224.499,195.172z
			 M69.255,215.913c-0.16-0.013-0.32-0.023-0.479-0.039c-0.614-0.06-1.222-0.144-1.823-0.247c-0.196-0.034-0.391-0.074-0.586-0.112
			c-10.199-2.004-18.238-10.104-20.126-20.343h62.999c-1.888,10.239-9.926,18.339-20.124,20.343
			c-0.196,0.038-0.391,0.078-0.588,0.112c-0.601,0.103-1.208,0.187-1.822,0.247c-0.16,0.016-0.319,0.026-0.479,0.039
			c-0.669,0.053-1.342,0.091-2.025,0.091H71.28C70.598,216.004,69.924,215.966,69.255,215.913z M324.89,471.314
			c14.24,0,25.848,11.484,26.049,25.676h-189.88c0.202-14.193,11.81-25.676,26.05-25.676H324.89z M440.277,238.248
			c0,50.292-40.916,91.208-91.209,91.208h-79.544c-4.145,0-7.505,3.36-7.505,7.505v40.457c0,27.763,7.001,54.771,20.353,78.887
			h-52.747c13.353-24.115,20.353-51.123,20.353-78.887v-40.457c0-4.145-3.36-7.505-7.505-7.505h-79.544
			c-50.292,0-91.209-40.916-91.209-91.208v-7.234h12.042v7.234c0,43.653,35.514,79.167,79.167,79.167h79.544
			c4.145,0,7.505-3.36,7.505-7.505v-78.896h12.041v78.896c0,4.145,3.36,7.505,7.505,7.505h79.544
			c43.652,0,79.167-35.514,79.167-79.167v-7.234h12.042V238.248z M445.629,215.515c-0.195,0.038-0.389,0.078-0.585,0.112
			c-0.601,0.103-1.208,0.187-1.823,0.247c-0.16,0.016-0.32,0.026-0.48,0.039c-0.669,0.053-1.342,0.091-2.024,0.091h-12.923
			c-0.682,0-1.355-0.038-2.024-0.091c-0.16-0.013-0.32-0.023-0.48-0.039c-0.614-0.06-1.222-0.144-1.823-0.247
			c-0.195-0.034-0.39-0.073-0.585-0.112c-10.199-2.003-18.239-10.104-20.127-20.343h63.001
			C463.868,205.411,455.828,213.512,445.629,215.515z"/>
	</g>
</g>
<g>
	<g>
		<path d="M272.823,76.91h-9.102v-5.226c6.191-2.786,14.041-9.441,14.351-25.324c0.428-21.835-15.466-42.583-16.143-43.456
			C260.508,1.072,258.319,0,255.999,0c-2.319,0-4.508,1.072-5.93,2.905c-0.677,0.873-16.57,21.621-16.142,43.456
			c0.318,16.255,8.534,22.848,14.784,25.516v5.033h-9.536c-7.769,0-14.09,6.321-14.09,14.09v61.748c0,4.145,3.36,7.505,7.505,7.505
			s7.505-3.36,7.505-7.505V91.92h31.808v60.828c0,4.145,3.36,7.505,7.505,7.505s7.505-3.36,7.505-7.505V91
			C286.913,83.231,280.592,76.91,272.823,76.91z M255.999,58.627c-2.086-0.369-6.865-2.339-7.066-12.56
			c-0.173-8.855,3.557-17.955,7.066-24.505c3.509,6.55,7.239,15.65,7.065,24.505C262.865,56.288,258.084,58.258,255.999,58.627z"/>
	</g>
</g>
<g>
	<g>
		<path d="M94.566,76.91h-9.319v-5.129c6.222-2.728,14.253-9.351,14.568-25.42c0.427-21.835-15.466-42.583-16.143-43.456
			C82.25,1.072,80.061,0,77.742,0c-2.319,0-4.508,1.072-5.93,2.905c-0.677,0.873-16.57,21.621-16.143,43.456
			c0.315,16.069,8.346,22.692,14.568,25.42v5.129h-9.319c-7.769,0-14.09,6.321-14.09,14.09v61.748c0,4.145,3.36,7.505,7.505,7.505
			c4.145,0,7.505-3.36,7.505-7.505V91.92h31.808v60.828c0,4.145,3.36,7.505,7.505,7.505c4.145,0,7.505-3.36,7.505-7.505V91
			C108.656,83.231,102.335,76.91,94.566,76.91z M77.742,58.627c-2.086-0.369-6.866-2.339-7.066-12.56
			c-0.174-8.855,3.557-17.955,7.066-24.505c3.509,6.55,7.239,15.65,7.066,24.505C84.608,56.288,79.828,58.258,77.742,58.627z"/>
	</g>
</g>
<g>
	<g>
		<path d="M451.081,76.91h-9.102v-5.226c6.19-2.786,14.039-9.441,14.351-25.323c0.428-21.835-15.466-42.583-16.143-43.456
			C438.765,1.072,436.576,0,434.257,0c-2.32,0-4.509,1.072-5.93,2.905c-0.677,0.873-16.571,21.621-16.144,43.456
			c0.319,16.255,8.535,22.848,14.786,25.516v5.033h-9.536c-7.769,0-14.089,6.321-14.089,14.09v61.748
			c-0.001,4.145,3.358,7.505,7.504,7.505c4.145,0,7.505-3.36,7.505-7.505V91.92h31.808v60.828c0,4.145,3.36,7.505,7.505,7.505
			s7.505-3.36,7.505-7.505V91C465.171,83.231,458.85,76.91,451.081,76.91z M434.257,58.627c-2.086-0.369-6.866-2.339-7.066-12.56
			c-0.175-8.855,3.556-17.955,7.066-24.505c3.509,6.55,7.239,15.65,7.065,24.505C441.122,56.288,436.342,58.258,434.257,58.627z"/>
	</g>
</g>
<g>
</g>
<g>
</g>
<g>
</g>
<g>
</g>
<g>
</g>
<g>
</g>
<g>
</g>
<g>
</g>
<g>
</g>
<g>
</g>
<g>
</g>
<g>
</g>
<g>
</g>
<g>
</g>
<g>
</g>
</svg>
