<?xml version="1.0" encoding="iso-8859-1"?>
<!-- Generator: Adobe Illustrator 19.0.0, SVG Export Plug-In . SVG Version: 6.00 Build 0)  -->
<svg version="1.1" id="Capa_1" xmlns="http://www.w3.org/2000/svg" xmlns:xlink="http://www.w3.org/1999/xlink" x="0px" y="0px"
	 viewBox="0 0 512 512" style="enable-background:new 0 0 512 512;" xml:space="preserve">
<g>
	<g>
		<path d="M430.715,0H91.178C69.364,0,51.617,17.747,51.617,39.561v180.564c0,4.142,3.358,7.5,7.5,7.5s7.5-3.358,7.5-7.5V39.561
			C66.617,26.018,77.635,15,91.178,15h339.537c8.086,0,14.666,6.579,14.666,14.666v190.459c0,4.142,3.358,7.5,7.5,7.5
			c4.142,0,7.5-3.358,7.5-7.5V29.666C460.38,13.308,447.072,0,430.715,0z"/>
	</g>
</g>
<g>
	<g>
		<path d="M355.451,133.676h-69.273V89.73c0-6.924-5.633-12.557-12.557-12.557h-31.167c-6.924,0-12.557,5.633-12.557,12.557v43.946
			h-69.273c-6.924,0-12.557,5.633-12.557,12.557V177.4c0,6.924,5.633,12.558,12.557,12.558h69.273v188.605
			c-0.001,6.924,5.633,12.557,12.557,12.557h31.167c6.924,0,12.557-5.633,12.557-12.557V189.958h69.273
			c6.924,0,12.557-5.633,12.557-12.558v-31.167C368.008,139.309,362.375,133.676,355.451,133.676z M353.009,174.958h-69.273
			c-6.924,0-12.558,5.633-12.558,12.557V376.12h-26.281V187.515c0-6.924-5.633-12.557-12.558-12.557h-69.273v-26.282h69.273
			c6.924,0,12.558-5.633,12.558-12.558V92.173h26.281v43.945c0,6.924,5.633,12.558,12.558,12.558h69.273V174.958z"/>
	</g>
</g>
<g>
	<g>
		<path d="M460.38,443.343V255.021c0-4.142-3.358-7.5-7.5-7.5c-4.142,0-7.5,3.358-7.5,7.5v181.303H89.795
			c-8.683,0-16.732,2.925-23.178,7.862V255.021c0-4.142-3.358-7.5-7.5-7.5c-4.142,0-7.5,3.358-7.5,7.5v217.606v1.192v0.002
			c0,0.019,0.001,0.037,0.001,0.056c0.001,0.632,0.017,1.261,0.048,1.888c0.005,0.103,0.016,0.204,0.023,0.307
			c0.032,0.549,0.07,1.096,0.125,1.641c0.003,0.026,0.007,0.051,0.009,0.077c0.893,8.697,4.708,16.76,10.975,23.027
			c6.27,6.27,14.337,10.087,23.04,10.978c0.022,0.002,0.044,0.006,0.066,0.008c0.548,0.055,1.1,0.094,1.653,0.126
			c0.099,0.006,0.196,0.017,0.294,0.022c0.645,0.032,1.294,0.049,1.944,0.049h362.607c0.662,0,1.321-0.087,1.96-0.261
			c0.419-0.114,0.823-0.261,1.208-0.438c2.697-1.24,4.491-3.958,4.491-6.989c0-1.979-0.751-3.861-2.114-5.3
			c-1.161-1.226-2.702-2.023-4.373-2.265c-11.418-1.649-20.029-11.605-20.029-23.158v-0.231c0.022-0.171,0.039-0.345,0.049-0.52
			c0-0.006,0.002-0.012,0.002-0.019c0.042-0.684,0.113-1.361,0.213-2.029c0.01-0.068,0.027-0.134,0.038-0.201
			c1.168-7.369,5.786-13.637,12.204-17.019c0.044-0.023,0.088-0.047,0.132-0.069c0.487-0.252,0.987-0.482,1.493-0.7
			c0.155-0.066,0.309-0.135,0.467-0.198c0.398-0.162,0.806-0.306,1.216-0.446c0.262-0.089,0.522-0.18,0.788-0.259
			c0.322-0.098,0.65-0.18,0.978-0.264c0.344-0.088,0.688-0.176,1.039-0.248c0.111-0.023,0.225-0.038,0.337-0.06h0.379
			c4.142,0,7.5-3.358,7.5-7.5l0.001-0.152c0-0.008,0.001-0.017,0.001-0.025v-0.112C460.383,443.471,460.382,443.407,460.38,443.343z
			 M89.795,496.997V497c-0.74,0-1.474-0.039-2.201-0.107c-0.047-0.004-0.094-0.006-0.141-0.011c-0.669-0.067-1.33-0.17-1.985-0.293
			c-0.111-0.021-0.223-0.037-0.333-0.06c-0.587-0.119-1.165-0.271-1.739-0.435c-0.209-0.06-0.419-0.12-0.626-0.186
			c-0.473-0.15-0.939-0.321-1.401-0.501c-0.297-0.116-0.591-0.237-0.882-0.365c-0.374-0.164-0.743-0.34-1.109-0.525
			c-0.331-0.167-0.656-0.341-0.978-0.524c-0.331-0.187-0.657-0.383-0.978-0.587c-0.307-0.195-0.609-0.396-0.905-0.604
			c-0.338-0.237-0.67-0.483-0.996-0.74c-0.253-0.198-0.501-0.401-0.745-0.609c-0.356-0.305-0.705-0.62-1.045-0.948
			c-0.211-0.203-0.418-0.411-0.622-0.622c-0.328-0.341-0.644-0.69-0.949-1.047c-0.207-0.243-0.409-0.491-0.606-0.742
			c-0.258-0.328-0.506-0.663-0.745-1.003c-0.206-0.294-0.405-0.592-0.597-0.895c-0.207-0.326-0.405-0.656-0.594-0.991
			c-0.18-0.317-0.352-0.639-0.517-0.966c-0.186-0.369-0.364-0.742-0.53-1.12c-0.126-0.287-0.246-0.578-0.361-0.872
			c-0.181-0.465-0.353-0.933-0.504-1.41c-0.065-0.205-0.124-0.412-0.183-0.619c-0.164-0.574-0.316-1.153-0.435-1.741
			c-0.022-0.109-0.038-0.221-0.059-0.331c-0.123-0.656-0.227-1.317-0.293-1.986c-0.005-0.047-0.006-0.095-0.011-0.143
			c-0.068-0.727-0.107-1.46-0.107-2.2v-0.225c0.022-0.17,0.039-0.343,0.049-0.517c0.736-12.199,10.896-21.754,23.129-21.754h336.337
			c-3.09,4.156-5.356,8.949-6.565,14.162c-0.033,0.141-0.055,0.287-0.087,0.429c-0.16,0.727-0.314,1.456-0.433,2.197
			c-0.138,0.854-0.245,1.718-0.326,2.589c-0.005,0.051-0.015,0.101-0.019,0.152c-0.021,0.102-0.031,0.208-0.048,0.311
			c-0.065,0.399-0.109,0.805-0.109,1.222v1.204c0,8.713,2.986,16.873,8.034,23.41H89.795z"/>
	</g>
</g>
<g>
</g>
<g>
</g>
<g>
</g>
<g>
</g>
<g>
</g>
<g>
</g>
<g>
</g>
<g>
</g>
<g>
</g>
<g>
</g>
<g>
</g>
<g>
</g>
<g>
</g>
<g>
</g>
<g>
</g>
</svg>
