<?xml version="1.0" encoding="iso-8859-1"?>
<!-- Generator: Adobe Illustrator 19.0.0, SVG Export Plug-In . SVG Version: 6.00 Build 0)  -->
<svg version="1.1" id="Capa_1" xmlns="http://www.w3.org/2000/svg" xmlns:xlink="http://www.w3.org/1999/xlink" x="0px" y="0px"
	 viewBox="0 0 512 512" style="enable-background:new 0 0 512 512;" xml:space="preserve">
<g>
	<g>
		<path d="M438.549,43.294H73.451C32.95,43.294,0,76.244,0,116.745v64.933c0,4.146,3.361,7.507,7.507,7.507s7.507-3.361,7.507-7.507
			v-64.933c0-32.222,26.215-58.437,58.437-58.437h365.098c32.222,0,58.436,26.214,58.436,58.437v65.261
			c0,4.146,3.361,7.507,7.507,7.507c4.147,0,7.507-3.361,7.507-7.507v-65.261C512,76.244,479.05,43.294,438.549,43.294z"/>
	</g>
</g>
<g>
	<g>
		<path d="M504.493,209.427c-4.147,0-7.507,3.361-7.507,7.507v56.201c0,32.222-26.215,58.436-58.436,58.436H168.093
			c-2.442,0-4.731,1.188-6.138,3.184L89.591,437.502v-98.422c0-4.146-3.361-7.507-7.507-7.507h-8.632
			c-32.222,0-58.437-26.214-58.437-58.436v-56.201c0-4.146-3.361-7.507-7.507-7.507S0,212.789,0,216.935v56.201
			c0,40.501,32.95,73.451,73.451,73.451h1.125v114.611c0,3.273,2.12,6.168,5.24,7.157c0.748,0.237,1.51,0.351,2.266,0.351
			c2.396,0,4.706-1.151,6.139-3.185l83.767-118.934h266.561c40.501,0,73.451-32.95,73.451-73.451v-56.201
			C512,212.789,508.639,209.427,504.493,209.427z"/>
	</g>
</g>
<g>
	<g>
		<path d="M90.543,161.185c-4.739,0-6.958,1.009-10.285,6.958l-12.402,22.586l-12.402-22.586c-3.328-5.949-5.445-6.958-10.184-6.958
			c-3.327,0-6.554,1.714-6.554,6.554v63.019c0,2.722,3.227,4.134,6.554,4.134c3.227,0,6.555-1.412,6.555-4.134v-44.164
			l11.595,21.779c1.109,2.017,2.722,2.622,4.336,2.622c1.614,0,3.328-0.605,4.437-2.622l11.795-20.973v43.358
			c0,2.722,3.227,4.134,6.555,4.134c3.227,0,6.554-1.412,6.554-4.134v-63.019C97.097,162.898,93.87,161.185,90.543,161.185z"/>
	</g>
</g>
<g>
	<g>
		<path d="M161.529,228.439l-19.46-63.422c-0.907-3.026-4.639-4.437-8.47-4.437c-3.73,0-7.462,1.412-8.369,4.437l-19.46,63.422
			c-0.1,0.403-0.202,0.806-0.202,1.008c0,3.226,4.74,5.445,8.267,5.445c2.218,0,3.933-0.706,4.437-2.622l3.831-13.411h23.091
			l3.831,13.411c0.504,1.916,2.218,2.622,4.437,2.622c3.53,0,8.268-2.32,8.268-5.445C161.73,229.145,161.63,228.841,161.529,228.439
			z M124.828,208.575l8.772-30.955l8.771,30.955H124.828z"/>
	</g>
</g>
<g>
	<g>
		<path d="M218.296,226.925l-13.209-24.501c7.563-2.319,13.209-8.571,13.209-20.166c0-16.032-10.687-21.074-23.896-21.074h-19.965
			c-2.52,0-4.234,1.916-4.234,4.033H170.2v65.54c0,2.722,3.327,4.134,6.554,4.134c3.327,0,6.554-1.412,6.554-4.134V204.44h8.471
			l14.317,27.829c1.009,2.016,2.723,3.125,4.537,3.125c3.832,0,8.167-3.528,8.167-6.856
			C218.8,228.135,218.699,227.43,218.296,226.925z M194.4,194.156h-11.091V172.68H194.4c6.554,0,10.789,2.824,10.789,10.789
			C205.189,191.433,200.954,194.156,194.4,194.156z"/>
	</g>
</g>
<g>
	<g>
		<path d="M277.283,226.925l-13.209-24.501c7.563-2.319,13.209-8.571,13.209-20.166c0-16.032-10.687-21.074-23.896-21.074h-19.965
			c-2.52,0-4.234,1.916-4.234,4.033h-0.001v65.54c0,2.722,3.327,4.134,6.554,4.134c3.327,0,6.554-1.412,6.554-4.134V204.44h8.471
			l14.317,27.829c1.009,2.016,2.723,3.125,4.537,3.125c3.832,0,8.167-3.528,8.167-6.856
			C277.787,228.135,277.686,227.43,277.283,226.925z M253.387,194.156h-11.092V172.68h11.092c6.554,0,10.789,2.824,10.789,10.789
			C264.176,191.433,259.941,194.156,253.387,194.156z"/>
	</g>
</g>
<g>
	<g>
		<path d="M329.717,161.185c-2.118,0-3.026,0.908-3.933,2.622l-15.427,29.14l-15.326-29.14c-0.908-1.815-1.916-2.622-4.033-2.622
			c-3.529,0-8.672,2.218-8.672,5.445c0,0.303,0.102,0.807,0.303,1.311l20.872,36.097c0.201,0.302,0.302,0.807,0.302,1.311h0v25.409
			c0,2.722,3.328,4.134,6.555,4.134c3.327,0,6.554-1.412,6.554-4.134v-25.409c0-0.504,0.202-1.009,0.403-1.311l20.771-36.097
			c0.302-0.504,0.302-1.009,0.302-1.311C338.388,163.404,333.246,161.185,329.717,161.185z"/>
	</g>
</g>
<g>
	<g>
		<path d="M420.362,161.185c-4.738,0-6.957,1.009-10.284,6.958l-12.402,22.586l-12.401-22.586
			c-3.329-5.949-5.446-6.958-10.185-6.958c-3.327,0-6.554,1.714-6.554,6.554v63.019c0,2.722,3.227,4.134,6.554,4.134
			c3.227,0,6.554-1.412,6.554-4.134v-44.164l11.596,21.779c1.109,2.017,2.722,2.622,4.336,2.622s3.328-0.605,4.437-2.622
			l11.795-20.973v43.358c0,2.722,3.227,4.134,6.554,4.134c3.227,0,6.555-1.412,6.555-4.134v-63.019
			C426.917,162.898,423.69,161.185,420.362,161.185z"/>
	</g>
</g>
<g>
	<g>
		<path d="M482.173,223.396h-28.534V203.13h15.326c2.822,0,4.134-2.722,4.134-5.041c0-2.722-1.513-5.243-4.134-5.243h-15.326
			v-20.167h28.534c2.622,0,4.134-2.723,4.134-5.849c0-2.722-1.311-5.646-4.134-5.646h-35.896c-2.924,0-5.747,1.412-5.747,4.134
			v65.439c0,2.722,2.823,4.134,5.747,4.134h35.896c2.823,0,4.134-2.923,4.134-5.646
			C486.307,226.118,484.795,223.396,482.173,223.396z"/>
	</g>
</g>
<g>
</g>
<g>
</g>
<g>
</g>
<g>
</g>
<g>
</g>
<g>
</g>
<g>
</g>
<g>
</g>
<g>
</g>
<g>
</g>
<g>
</g>
<g>
</g>
<g>
</g>
<g>
</g>
<g>
</g>
</svg>
