<?xml version="1.0" encoding="iso-8859-1"?>
<!-- Generator: Adobe Illustrator 19.0.0, SVG Export Plug-In . SVG Version: 6.00 Build 0)  -->
<svg version="1.1" id="Capa_1" xmlns="http://www.w3.org/2000/svg" xmlns:xlink="http://www.w3.org/1999/xlink" x="0px" y="0px"
	 viewBox="0 0 512.001 512.001" style="enable-background:new 0 0 512.001 512.001;" xml:space="preserve">
<g>
	<g>
		<path d="M378.682,82.735c-0.16-0.046-0.323-0.088-0.488-0.124c-0.156-0.036-0.312-0.067-0.469-0.092
			c-1.683-0.33-3.391-0.614-5.082-0.843c-4.111-0.558-7.899,2.325-8.457,6.437c-0.558,4.113,2.324,7.899,6.437,8.457
			c1.419,0.192,2.854,0.431,4.267,0.709c39.125,10.006,63.505,50.953,54.362,91.359c-5.887,26.016-23.603,53.709-48.604,75.978
			c-23.395,20.839-43.502,28.551-49.765,27.217c-0.003-0.001-0.007-0.002-0.011-0.002c-6.918-1.614-22.793-19.67-34.604-49.371
			c-1.533-3.857-5.902-5.739-9.76-4.207c-3.856,1.534-5.739,5.903-4.206,9.76c11.27,28.342,25.021,46.227,36.234,54.116
			c-17.036,31.192-43.473,81.898-54.978,109.184h-0.053V228.169c15.283-5.106,33.984-23.863,47.272-42.454
			c12.488-17.471,33.439-52.86,33.439-93.572c0-49.47-39.327-90.744-87.723-92.129c-0.164-0.01-0.324-0.015-0.494-0.014
			c-0.174-0.001-0.33,0.003-0.493,0.014C207.11,1.4,167.782,42.673,167.782,92.143c0,40.712,20.95,76.101,33.439,93.572
			c13.283,18.584,31.975,37.333,47.255,42.448v183.149h-0.035c-11.064-26.242-37.352-76.939-54.874-109.26
			c11.154-7.905,24.811-25.684,36.03-53.788c1.539-3.855-0.339-8.227-4.193-9.765c-3.857-1.54-8.228,0.339-9.765,4.193
			c-11.801,29.562-27.626,47.532-34.512,49.139c-0.003,0-0.007,0.001-0.011,0.002c-6.267,1.334-26.37-6.379-49.764-27.217
			c-25.002-22.269-42.717-49.962-48.604-75.978c-9.143-40.406,15.237-81.354,54.362-91.359c1.527-0.301,3.082-0.556,4.623-0.757
			c4.116-0.537,7.016-4.309,6.479-8.424c-0.537-4.115-4.306-7.013-8.424-6.479c-1.837,0.24-3.69,0.543-5.511,0.9
			c-0.158,0.026-0.315,0.057-0.472,0.093c-0.163,0.036-0.325,0.077-0.485,0.123c-46.897,12.033-76.149,60.97-65.231,109.221
			c8.985,39.708,37.23,69.6,53.266,83.884c17.928,15.969,41.722,30.802,57.86,31.122c19.484,34.947,36.987,69.658,49.525,97.946
			c-7.548-4.999-16.846-9.49-25.957-9.557c-6.906-0.062-13.081,2.46-17.882,7.261c-1.705,1.704-2.701,4.023-3.949,9.189
			c-4.108,16.995-4.114,34.998-0.019,52.063c1.255,5.23,2.257,7.573,3.968,9.282c4.753,4.753,10.862,7.261,17.679,7.261
			c0.068,0,0.136,0,0.204,0c14.671-0.107,29.824-11.683,37.358-18.365c2.368,1.514,5.172,2.404,8.185,2.404h0.151v40.04
			c0,4.15,3.365,7.515,7.515,7.515c4.15,0,7.515-3.365,7.515-7.515v-40.04h0.68c3.014,0,5.819-0.89,8.187-2.405
			c7.557,6.702,22.698,18.259,37.357,18.366c0.068,0,0.135,0,0.203,0c6.816,0,12.926-2.508,17.679-7.261
			c1.711-1.711,2.712-4.053,3.967-9.282c4.095-17.064,4.089-35.067-0.019-52.062c-1.249-5.167-2.246-7.486-3.949-9.189
			c-4.8-4.8-10.992-7.296-17.882-7.261c-9.051,0.066-18.285,4.499-25.802,9.454c12.865-28.299,30.703-62.998,50.227-97.902
			c16.093-1.092,39.065-15.542,56.491-31.064c16.036-14.284,44.281-44.176,53.266-83.884
			C454.829,143.705,425.579,94.768,378.682,82.735z M233.074,448.099c-5.754,5.596-19.869,17.212-30.417,17.279
			c-2.508,0.022-4.549-0.665-6.332-2.132c-0.171-0.535-0.432-1.44-0.78-2.889c-3.543-14.762-3.538-30.332,0.014-45.026
			c0.34-1.408,0.596-2.292,0.764-2.818c1.782-1.467,3.847-2.133,6.334-2.133c10.529,0.067,24.615,11.644,30.417,17.281V448.099z
			 M213.448,176.975c-19.47-27.238-30.636-58.158-30.636-84.832c0-41.428,32.818-75.984,73.187-77.108
			c40.369,1.124,73.187,35.68,73.187,77.108c0,26.674-11.166,57.594-30.636,84.832c-18.239,25.517-36.166,37.476-42.551,37.529
			C249.614,214.451,231.687,202.493,213.448,176.975z M264.391,449.228c-0.018,0.104-0.098,0.188-0.207,0.188h-15.86
			c-0.118,0-0.21-0.094-0.216-0.211c-0.002-0.008-0.002-0.017-0.004-0.026l0.013-22.648c0.017-0.105,0.098-0.19,0.208-0.19h15.86
			c0.122,0,0.221,0.099,0.221,0.221L264.391,449.228z M309.852,410.38c2.499-0.006,4.552,0.666,6.333,2.133
			c0.168,0.526,0.425,1.41,0.765,2.819c3.551,14.693,3.555,30.263,0.013,45.025c-0.348,1.45-0.609,2.355-0.78,2.89
			c-1.781,1.466-3.804,2.134-6.331,2.131c-10.53-0.066-24.617-11.645-30.417-17.28V427.66
			C285.188,422.064,299.304,410.446,309.852,410.38z"/>
	</g>
</g>
<g>
</g>
<g>
</g>
<g>
</g>
<g>
</g>
<g>
</g>
<g>
</g>
<g>
</g>
<g>
</g>
<g>
</g>
<g>
</g>
<g>
</g>
<g>
</g>
<g>
</g>
<g>
</g>
<g>
</g>
</svg>
