<?xml version="1.0" encoding="iso-8859-1"?>
<!-- Generator: Adobe Illustrator 19.0.0, SVG Export Plug-In . SVG Version: 6.00 Build 0)  -->
<svg version="1.1" id="Capa_1" xmlns="http://www.w3.org/2000/svg" xmlns:xlink="http://www.w3.org/1999/xlink" x="0px" y="0px"
	 viewBox="0 0 512 512" style="enable-background:new 0 0 512 512;" xml:space="preserve">
<g>
	<g>
		<path d="M228.132,356.324c-0.2-4.141-3.698-7.336-7.862-7.135c-4.141,0.201-7.335,3.721-7.135,7.862l5.111,105.432
			c0.195,4.018,3.514,7.144,7.493,7.144c0.122,0,0.245-0.003,0.369-0.009c4.141-0.201,7.335-3.721,7.135-7.862L228.132,356.324z"/>
	</g>
</g>
<g>
	<g>
		<path d="M291.729,349.19c-4.168-0.204-7.66,2.995-7.862,7.135l-5.111,105.432c-0.2,4.14,2.995,7.66,7.135,7.861
			c0.124,0.006,0.247,0.009,0.37,0.009c3.979,0,7.298-3.126,7.492-7.143l5.111-105.432
			C299.064,352.911,295.87,349.391,291.729,349.19z"/>
	</g>
</g>
<g>
	<g>
		<path d="M172.734,462.119l-8.337-57.311c-0.598-4.103-4.405-6.948-8.51-6.348c-4.102,0.597-6.945,4.406-6.348,8.509l8.337,57.311
			c0.543,3.736,3.752,6.427,7.419,6.427c0.36,0,0.724-0.026,1.091-0.079C170.488,470.031,173.33,466.222,172.734,462.119z"/>
	</g>
</g>
<g>
	<g>
		<path d="M159.366,370.217l-1.968-13.528c-0.597-4.103-4.421-6.946-8.509-6.348c-4.103,0.597-6.946,4.406-6.349,8.509l1.968,13.528
			c0.543,3.736,3.752,6.427,7.419,6.427c0.36,0,0.724-0.026,1.09-0.079C157.119,378.129,159.963,374.32,159.366,370.217z"/>
	</g>
</g>
<g>
	<g>
		<path d="M349.646,443.379c-4.096-0.6-7.913,2.245-8.509,6.348l-1.802,12.393c-0.597,4.103,2.245,7.912,6.349,8.509
			c0.366,0.053,0.73,0.079,1.09,0.079c3.667,0,6.876-2.691,7.419-6.427l1.802-12.393
			C356.591,447.785,353.75,443.975,349.646,443.379z"/>
	</g>
</g>
<g>
	<g>
		<path d="M363.179,350.341c-4.092-0.598-7.912,2.245-8.509,6.348l-8.505,58.47c-0.597,4.102,2.246,7.912,6.349,8.509
			c0.366,0.053,0.73,0.079,1.09,0.079c3.668,0,6.876-2.691,7.419-6.427l8.505-58.47
			C370.125,354.747,367.283,350.937,363.179,350.341z"/>
	</g>
</g>
<g>
	<g>
		<path d="M468.947,270.479h-8.532c0.061-6.877-1.175-14.157-3.651-21.191c-2.227-6.328-5.332-12.132-9.072-17.086v-40.511
			C447.691,85.992,361.699,0,255.999,0S64.309,85.992,64.309,191.691v39.004c0,0.459,0.048,0.906,0.126,1.342
			c-3.797,4.99-6.946,10.853-9.198,17.251c-2.476,7.034-3.712,14.315-3.651,21.191h-8.532c-13.514,0-24.508,10.994-24.508,24.508
			c0,13.514,10.995,24.508,24.508,24.508h5.709l48.337,157.357C103.557,497.875,122.674,512,144.666,512h222.666
			c21.993,0,41.109-14.125,47.566-35.149l48.339-157.356h5.709c13.514,0,24.508-10.994,24.508-24.508
			C493.455,281.474,482.46,270.479,468.947,270.479z M436.823,242.812c2.327,3.393,4.311,7.294,5.778,11.462
			c1.926,5.471,2.879,11.047,2.808,16.206h-44.904c-3.549-13.902-16.236-24.268-31.15-24.268c-14.913,0-27.6,10.366-31.15,24.268
			h-43.452c-0.07-5.16,0.883-10.736,2.808-16.206c2.844-8.082,7.623-15.177,13.112-19.467c1.232-0.963,3.008-2.168,5.038-3.021
			c0.05-0.019,0.102-0.033,0.152-0.053c2.079-0.844,4.016-1.157,5.782-0.939c0.085,0.011,0.17,0.03,0.255,0.044
			c0.205,0.032,0.409,0.063,0.609,0.109c0.29,0.068,0.58,0.15,0.868,0.251c0.94,0.33,2.972,1.24,6.017,3.618
			c2.657,2.075,6.37,2.124,9.081,0.121s3.754-5.567,2.552-8.716c-1.278-3.344-2.01-6.453-2.01-8.529
			c0-1.025,0.215-2.065,0.619-3.099c1.493-1.64,2.813-3.438,3.946-5.36c5.165-4.645,14.362-8.23,25.773-8.23
			c8.503,0,16.728,2.126,22.59,5.83c4.907,3.123,7.748,7.093,7.748,10.859c0,2.404-0.985,6.174-2.634,10.086
			c-1.359,3.22-0.315,6.95,2.515,8.999c2.831,2.048,6.701,1.873,9.335-0.423c4.139-3.608,6.887-4.808,7.878-5.156
			c4.854-1.708,10.042,1.527,12.703,3.608c1.179,0.922,2.323,1.98,3.425,3.143C433.454,240.081,434.9,241.846,436.823,242.812z
			 M384.549,270.479h-30.389c2.872-5.487,8.629-9.254,15.194-9.254C375.92,261.225,381.678,264.993,384.549,270.479z
			 M255.273,246.211c-9.7,0-18.456,4.388-24.373,11.277c-0.583-2.745-1.347-5.491-2.301-8.2c-1.672-4.751-3.836-9.21-6.394-13.234
			c0.77-0.245,1.509-0.617,2.186-1.117c2.711-2.002,3.755-5.566,2.553-8.715c-1.277-3.346-2.009-6.455-2.009-8.531
			c0-5.228,5.144-10.474,13.426-13.693c0.002-0.001,0.004-0.001,0.006-0.002c5.041-1.958,10.887-2.994,16.905-2.994
			c17.879,0,30.338,8.795,30.338,16.689c0,2.404-0.985,6.174-2.634,10.086c-1.359,3.22-0.315,6.95,2.515,8.999
			c0.939,0.679,1.993,1.103,3.077,1.297c-2.028,3.48-3.772,7.244-5.17,11.215c-1.118,3.177-1.984,6.405-2.592,9.623
			C274.91,251.206,265.627,246.211,255.273,246.211z M270.469,270.479H240.08c2.872-5.487,8.629-9.254,15.194-9.254
			C261.838,261.225,267.596,264.993,270.469,270.479z M194.684,160.813c-16.614,0-30.325,12.666-31.984,28.849
			c-6.367-2.348-13.675-3.673-21.508-3.673c-0.873,0-1.737,0.021-2.596,0.053c-0.155,0.006-0.31,0.016-0.465,0.023
			c-0.764,0.034-1.522,0.081-2.274,0.14c-0.07,0.006-0.139,0.012-0.209,0.017c-5.46,0.446-10.595,1.541-15.245,3.182
			c-0.826-6.178,0.01-13.49,2.487-20.529c5.937-16.866,18.38-25.695,25.815-23.076c0.94,0.331,2.973,1.241,6.018,3.619
			c2.657,2.075,6.37,2.122,9.081,0.12c2.711-2.003,3.755-5.567,2.552-8.716c-1.278-3.344-2.01-6.452-2.01-8.529
			c0-7.894,12.459-16.689,30.338-16.689c17.879,0,30.338,8.795,30.338,16.689c0,2.404-0.985,6.174-2.634,10.086
			c-1.359,3.22-0.315,6.95,2.515,8.999c2.831,2.048,6.701,1.873,9.335-0.423c1.489-1.298,2.797-2.284,3.909-3.031
			c-0.092,0.128-0.178,0.261-0.269,0.39c-0.255,0.361-0.507,0.725-0.755,1.095c-0.152,0.226-0.302,0.454-0.451,0.684
			c-0.236,0.362-0.469,0.728-0.698,1.098c-0.151,0.243-0.301,0.487-0.449,0.732c-0.22,0.366-0.437,0.737-0.651,1.11
			c-0.146,0.255-0.293,0.511-0.436,0.769c-0.208,0.375-0.411,0.754-0.613,1.135c-0.139,0.264-0.28,0.526-0.416,0.793
			c-0.198,0.388-0.39,0.781-0.582,1.175c-0.129,0.266-0.26,0.53-0.386,0.799c-0.192,0.41-0.377,0.825-0.561,1.241
			c-0.116,0.26-0.234,0.518-0.347,0.781c-0.196,0.457-0.382,0.92-0.569,1.383c-0.091,0.227-0.187,0.451-0.276,0.679
			c-0.271,0.694-0.532,1.395-0.781,2.103c-0.247,0.703-0.479,1.408-0.701,2.114c-0.069,0.219-0.133,0.439-0.2,0.659
			c-0.151,0.498-0.297,0.996-0.436,1.495c-0.068,0.244-0.134,0.487-0.199,0.731c-0.134,0.506-0.261,1.011-0.383,1.517
			c-0.051,0.212-0.104,0.423-0.153,0.635c-0.163,0.709-0.316,1.419-0.454,2.128c-0.011,0.058-0.02,0.115-0.031,0.173
			c-0.125,0.652-0.238,1.304-0.341,1.955c-0.035,0.222-0.066,0.444-0.099,0.666c-0.073,0.496-0.141,0.991-0.202,1.485
			c-0.03,0.24-0.058,0.48-0.085,0.719c-0.057,0.512-0.106,1.021-0.149,1.531c-0.017,0.197-0.037,0.394-0.052,0.59
			c-0.053,0.698-0.095,1.394-0.122,2.086c-0.004,0.098-0.004,0.194-0.007,0.292c-0.02,0.594-0.031,1.186-0.033,1.774
			c0,0.221,0.003,0.441,0.005,0.662c0.005,0.475,0.015,0.948,0.032,1.419c0.008,0.229,0.017,0.457,0.028,0.685
			c0.002,0.036,0.002,0.072,0.004,0.108C223.65,172.272,210.484,160.813,194.684,160.813z M211.824,192.966
			c0,9.451-7.689,17.139-17.139,17.139c-4.349,0-8.312-1.641-11.337-4.32c-1.137-2.016-2.562-3.921-4.233-5.699
			c-0.997-2.172-1.568-4.578-1.568-7.12c0-9.45,7.689-17.139,17.139-17.139S211.824,183.516,211.824,192.966z M226.908,192.797
			c-0.025,0.014-0.048,0.029-0.074,0.043c-0.001-0.222-0.011-0.441-0.017-0.662C226.848,192.384,226.874,192.592,226.908,192.797z
			 M283.714,192.824c-7.728-4.294-17.581-6.835-28.44-6.835c-4.74,0-9.432,0.505-13.892,1.481c-0.001-0.018-0.004-0.036-0.005-0.054
			c-0.048-0.642-0.075-1.296-0.089-1.956c-0.004-0.176-0.003-0.354-0.005-0.532c-0.004-0.519,0.002-1.043,0.018-1.57
			c0.005-0.181,0.009-0.361,0.017-0.542c0.03-0.68,0.072-1.365,0.135-2.057c0.008-0.086,0.02-0.173,0.028-0.259
			c0.059-0.612,0.133-1.228,0.217-1.847c0.028-0.203,0.058-0.407,0.088-0.61c0.086-0.571,0.183-1.144,0.29-1.718
			c0.027-0.145,0.05-0.289,0.079-0.434c0.138-0.702,0.293-1.405,0.464-2.108c0.043-0.176,0.09-0.351,0.135-0.526
			c0.14-0.552,0.29-1.105,0.45-1.656c0.059-0.204,0.117-0.407,0.179-0.611c0.212-0.7,0.435-1.398,0.68-2.093
			c0.002-0.007,0.005-0.014,0.007-0.021c0.194-0.551,0.398-1.096,0.609-1.636c0.075-0.192,0.155-0.381,0.232-0.572
			c0.137-0.339,0.276-0.677,0.419-1.012c0.103-0.241,0.21-0.479,0.317-0.717c0.123-0.274,0.247-0.547,0.374-0.817
			c0.125-0.266,0.252-0.531,0.381-0.794c0.112-0.228,0.227-0.455,0.342-0.68c0.147-0.287,0.293-0.573,0.445-0.856
			c0.097-0.181,0.196-0.359,0.295-0.537c0.173-0.314,0.346-0.628,0.524-0.936c0.041-0.07,0.083-0.137,0.124-0.207
			c0.682-1.159,1.403-2.271,2.159-3.332c0.085-0.119,0.169-0.241,0.255-0.359c0.201-0.277,0.406-0.546,0.612-0.815
			c0.116-0.151,0.232-0.303,0.349-0.452c0.192-0.244,0.387-0.484,0.583-0.721c0.141-0.17,0.283-0.338,0.425-0.505
			c0.181-0.212,0.363-0.422,0.547-0.627c0.174-0.194,0.35-0.384,0.527-0.572c0.16-0.171,0.319-0.343,0.48-0.509
			c0.252-0.258,0.506-0.508,0.762-0.755c0.092-0.089,0.182-0.182,0.275-0.269c0.369-0.347,0.742-0.683,1.119-1.004
			c0.003-0.002,0.005-0.004,0.008-0.007c1.165-0.992,2.365-1.859,3.588-2.582c0.008-0.005,0.016-0.011,0.024-0.016
			c2.787-1.648,6.501-3.034,10.039-1.787c0.94,0.331,2.972,1.24,6.017,3.619c2.659,2.074,6.37,2.123,9.081,0.12
			c2.711-2.002,3.755-5.566,2.552-8.715c-1.277-3.345-2.009-6.454-2.009-8.53c0-7.894,12.459-16.689,30.337-16.689
			c17.879,0,30.338,8.795,30.338,16.689c0,2.406-0.984,6.176-2.634,10.085c-1.359,3.219-0.316,6.95,2.515,9
			c2.829,2.048,6.701,1.873,9.335-0.423c4.138-3.607,6.887-4.807,7.878-5.156c4.855-1.707,10.042,1.528,12.703,3.608
			c5.489,4.291,10.267,11.386,13.112,19.468c2.563,7.28,3.375,14.778,2.427,21.045c-4.881-1.876-10.336-3.141-16.173-3.659
			c-0.129-0.012-0.259-0.022-0.388-0.033c-0.754-0.063-1.515-0.113-2.281-0.15c-0.206-0.01-0.41-0.022-0.616-0.031
			c-0.901-0.036-1.807-0.059-2.723-0.059c-3.074,0-6.067,0.204-8.955,0.593c-0.001,0-0.003,0-0.005,0.001
			c-4.469,0.603-8.681,1.655-12.548,3.081c-1.659-16.183-15.37-28.85-31.984-28.85C298.182,160.813,283.792,175.16,283.714,192.824z
			 M333.003,192.966c0,2.538-0.569,4.941-1.564,7.11c-1.672,1.778-3.092,3.686-4.23,5.701c-3.026,2.683-6.993,4.328-11.346,4.328
			c-9.45,0-17.139-7.688-17.139-17.139c0-9.45,7.689-17.139,17.139-17.139S333.003,183.516,333.003,192.966z M79.322,191.691
			c0-97.42,79.257-176.677,176.677-176.677s176.677,79.257,176.677,176.677v27.394c-5.987-3.068-12.235-4.074-18.015-2.853
			c-0.43-6.951-3.921-13.255-9.577-18.286c2.938-9.961,2.351-22.223-1.814-34.056c-3.826-10.871-10.227-20.215-18.027-26.312
			c-7.689-6.01-16.3-8.388-24.074-6.744c-1.056-17.075-20.576-30.245-45.307-30.245c-24.606,0-44.054,13.039-45.289,29.988
			c-4.716-0.693-9.695,0.059-14.558,2.157c-5.38-2.333-10.893-2.991-16.024-1.901c-1.056-17.075-20.576-30.244-45.307-30.244
			c-24.602,0-44.047,13.031-45.289,29.976c-15.742-2.377-32.936,11.359-40.668,33.325c-4.006,11.382-4.697,23.277-2.09,33.061
			c-6.27,5.125-10.201,11.708-10.734,19.024c-5.374-0.789-11.087,0.297-16.581,3.113V191.691z M69.398,254.273
			c2.844-8.082,7.623-15.177,13.112-19.467c2.662-2.081,7.852-5.317,12.703-3.608c0.94,0.331,2.972,1.24,6.017,3.619
			c2.657,2.075,6.371,2.123,9.08,0.121c2.711-2.002,3.755-5.566,2.553-8.715c-1.277-3.346-2.009-6.455-2.009-8.531
			c0-3.955,3.129-8.136,8.499-11.324c0.019-0.011,0.04-0.019,0.059-0.03c5.121-3.005,11.672-4.829,18.701-5.243
			c0.038-0.002,0.076-0.003,0.114-0.005c0.98-0.055,1.969-0.086,2.964-0.086c11.413,0,20.61,3.586,25.775,8.232
			c1.131,1.92,2.451,3.717,3.943,5.356c0.405,1.035,0.62,2.076,0.62,3.101c0,2.406-0.984,6.176-2.634,10.085
			c-1.359,3.219-0.316,6.95,2.515,9c0.342,0.248,0.701,0.46,1.069,0.642c0.124,0.062,0.255,0.102,0.382,0.156
			c0.249,0.107,0.497,0.214,0.753,0.293c0.155,0.047,0.313,0.074,0.47,0.111c0.236,0.056,0.47,0.113,0.708,0.146
			c0.168,0.023,0.337,0.027,0.506,0.039c0.171,0.012,0.341,0.039,0.512,0.039c0.084,0,0.167-0.008,0.25-0.011
			c0.058-0.002,0.116-0.004,0.175-0.008c0.359-0.02,0.717-0.066,1.071-0.137c0.054-0.011,0.108-0.024,0.162-0.036
			c0.358-0.081,0.71-0.185,1.054-0.318c0.043-0.017,0.085-0.036,0.128-0.054c0.352-0.144,0.697-0.311,1.028-0.51
			c0.026-0.016,0.05-0.034,0.076-0.05c0.344-0.213,0.677-0.451,0.99-0.724c1.034-0.902,1.982-1.653,2.837-2.279
			c2.566-1.876,4.298-2.616,5.04-2.878c0.289-0.102,0.58-0.183,0.871-0.251c0.194-0.045,0.393-0.075,0.592-0.106
			c0.09-0.014,0.18-0.035,0.271-0.046c1.766-0.218,3.701,0.095,5.78,0.939c0.056,0.023,0.113,0.038,0.169,0.059
			c2.023,0.853,3.792,2.054,5.02,3.014c5.489,4.29,10.267,11.386,13.112,19.467c1.926,5.471,2.879,11.047,2.808,16.206H172.34
			c-3.55-13.903-16.237-24.268-31.15-24.268c-14.914,0-27.601,10.366-31.15,24.268H66.59
			C66.52,265.32,67.473,259.744,69.398,254.273z M156.387,270.479h-30.389c2.872-5.487,8.63-9.254,15.195-9.254
			S153.515,264.993,156.387,270.479z M400.547,472.443c-4.508,14.68-17.857,24.543-33.214,24.543H144.666
			c-15.357,0-28.706-9.863-33.216-24.543L64.468,319.496h383.064L400.547,472.443z M468.947,304.481H43.054
			c-5.235,0-9.494-4.259-9.494-9.494s4.259-9.494,9.494-9.494h425.893c5.235,0,9.494,4.259,9.494,9.494
			S474.182,304.481,468.947,304.481z"/>
	</g>
</g>
<g>
</g>
<g>
</g>
<g>
</g>
<g>
</g>
<g>
</g>
<g>
</g>
<g>
</g>
<g>
</g>
<g>
</g>
<g>
</g>
<g>
</g>
<g>
</g>
<g>
</g>
<g>
</g>
<g>
</g>
</svg>
