<?xml version="1.0" encoding="iso-8859-1"?>
<!-- Generator: Adobe Illustrator 19.0.0, SVG Export Plug-In . SVG Version: 6.00 Build 0)  -->
<svg version="1.1" id="Capa_1" xmlns="http://www.w3.org/2000/svg" xmlns:xlink="http://www.w3.org/1999/xlink" x="0px" y="0px"
	 viewBox="0 0 512 512" style="enable-background:new 0 0 512 512;" xml:space="preserve">
<g>
	<g>
		<path d="M471.83,115.251h-78.137c-3.927,0-7.439-2.632-8.542-6.401l-10.453-35.715c-2.999-10.244-12.549-17.399-23.223-17.399
			H194.524c-10.674,0-20.223,7.155-23.222,17.399l-10.454,35.715c-1.103,3.769-4.615,6.401-8.542,6.401h-16.815V97.037
			c0-9.207-7.49-16.697-16.697-16.697H55.206c-9.207,0-16.697,7.49-16.697,16.697v18.256C17.127,116.168,0,133.828,0,155.421
			v260.673c0,0.498,0.013,1.059,0.042,1.669c0.879,21.378,18.537,38.501,40.128,38.501h430.233c22.937,0,41.597-18.66,41.597-41.597
			V155.421C512,133.271,493.979,115.251,471.83,115.251z M53.508,97.037c0-0.936,0.761-1.697,1.697-1.697h63.589
			c0.936,0,1.697,0.761,1.697,1.697v18.214H53.508V97.037z M79.927,441.263H57.17c-25.89,0-41.109-8.563-42.113-23.566
			c-0.004-0.057-0.01-0.114-0.013-0.171c-0.028-0.472-0.044-0.949-0.044-1.433V155.421c0-13.879,11.291-25.17,25.17-25.17h39.756
			c13.891,0,25.191,11.301,25.191,25.191v260.63h0.001C105.118,429.963,93.817,441.263,79.927,441.263z M470.403,441.264H111.211
			c5.565-6.897,8.907-15.66,8.907-25.191v-260.63c0-9.532-3.342-18.294-8.907-25.191h41.096c10.544,0,19.977-7.068,22.938-17.187
			l10.453-35.715c1.14-3.894,4.77-6.613,8.826-6.613h156.951c4.057,0,7.687,2.719,8.826,6.613l10.453,35.715
			c2.962,10.119,12.395,17.187,22.938,17.187h78.137c13.879,0,25.17,11.291,25.17,25.17v259.245H497
			C497,429.333,485.068,441.264,470.403,441.264z"/>
	</g>
</g>
<g>
	<g>
		<path d="M273,141.754c-77.028,0-139.696,62.667-139.696,139.696S195.972,421.146,273,421.146s139.696-62.667,139.696-139.696
			S350.028,141.754,273,141.754z M273,406.146c-68.757,0-124.696-55.938-124.696-124.696S204.243,156.754,273,156.754
			c68.758,0,124.696,55.938,124.696,124.696S341.758,406.146,273,406.146z"/>
	</g>
</g>
<g>
	<g>
		<path d="M273,170c-61.454,0-111.45,49.996-111.45,111.45S211.546,392.9,273,392.9s111.45-49.996,111.45-111.45
			S334.454,170,273,170z M273,377.9c-53.183,0-96.45-43.268-96.45-96.45c0-53.182,43.267-96.45,96.45-96.45
			s96.45,43.268,96.45,96.45S326.183,377.9,273,377.9z"/>
	</g>
</g>
<g>
	<g>
		<path d="M300.507,225.751c-10.243,0-19.906,3.613-27.507,10.115c-7.601-6.502-17.264-10.115-27.507-10.115
			c-23.384,0-42.409,19.025-42.409,42.409c0,48.422,64.439,74.194,67.183,75.268c0.879,0.344,1.807,0.516,2.733,0.516
			c0.926,0,1.854-0.172,2.733-0.516c0.675-0.264,16.724-6.61,32.946-18.658c22.397-16.634,34.236-36.209,34.236-56.61
			C342.916,244.776,323.892,225.751,300.507,225.751z M272.991,328.29c-4.944-2.204-15.854-7.486-26.728-15.562
			c-18.699-13.887-28.18-28.882-28.18-44.568c0-15.113,12.296-27.409,27.409-27.409c8.488,0,16.36,3.84,21.601,10.536
			c1.421,1.816,3.6,2.878,5.906,2.878c2.306,0,4.485-1.062,5.906-2.878c5.24-6.695,13.113-10.536,21.601-10.536
			c15.113,0,27.409,12.296,27.409,27.409C327.916,301.488,284.429,323.167,272.991,328.29z"/>
	</g>
</g>
<g>
</g>
<g>
</g>
<g>
</g>
<g>
</g>
<g>
</g>
<g>
</g>
<g>
</g>
<g>
</g>
<g>
</g>
<g>
</g>
<g>
</g>
<g>
</g>
<g>
</g>
<g>
</g>
<g>
</g>
</svg>
