<?xml version="1.0" encoding="iso-8859-1"?>
<!-- Generator: Adobe Illustrator 19.0.0, SVG Export Plug-In . SVG Version: 6.00 Build 0)  -->
<svg version="1.1" id="Capa_1" xmlns="http://www.w3.org/2000/svg" xmlns:xlink="http://www.w3.org/1999/xlink" x="0px" y="0px"
	 viewBox="0 0 512 512" style="enable-background:new 0 0 512 512;" xml:space="preserve">
<g>
	<g>
		<path d="M206.415,168.267c-4.284,0-7.757,3.473-7.757,7.757v14.688c0,4.284,3.473,7.757,7.757,7.757s7.757-3.473,7.757-7.757
			v-14.688C214.172,171.74,210.699,168.267,206.415,168.267z"/>
	</g>
</g>
<g>
	<g>
		<path d="M305.583,168.267c-4.284,0-7.757,3.473-7.757,7.757v14.688c0,4.284,3.473,7.757,7.757,7.757
			c4.284,0,7.757-3.473,7.757-7.757v-14.688C313.34,171.74,309.867,168.267,305.583,168.267z"/>
	</g>
</g>
<g>
	<g>
		<path d="M287.859,240.536c-3.477-2.502-8.325-1.712-10.827,1.765c-3.95,5.488-12.206,9.034-21.033,9.034
			c-8.828,0-17.083-3.546-21.033-9.034c-2.502-3.477-7.349-4.268-10.827-1.765c-3.477,2.502-4.267,7.35-1.765,10.827
			c6.874,9.552,19.759,15.486,33.625,15.486c13.867,0,26.751-5.934,33.625-15.486C292.126,247.886,291.336,243.038,287.859,240.536z
			"/>
	</g>
</g>
<g>
	<g>
		<path d="M445.237,373.728c-12.741-11.735-28.847-19.86-46.578-23.497c-0.023-0.004-0.046-0.009-0.07-0.014l-59.515-11.626
			c-2.054-10.129-11.026-17.776-21.752-17.776h-7.88c-3.559-2.059-5.798-5.859-5.798-10.03V300.33
			c34.302-14.524,60.662-44.24,70.617-80.659h5.125c14.296,0,25.927-11.631,25.927-25.927v-20.373c0-3.843-0.847-7.491-2.354-10.775
			v-35.212C402.958,57.144,345.814,0,275.575,0h-39.152c-28.97,0-57.326,9.988-79.846,28.125c-3.244,2.613-3.756,7.362-1.143,10.606
			c2.613,3.243,7.361,3.757,10.606,1.143c20.135-16.217,44.473-24.788,70.383-24.788h39.152
			c61.921,0,112.298,50.376,112.298,112.298v21.493c-1.312-0.456-2.672-0.809-4.07-1.05c-0.047-0.008-0.094-0.017-0.141-0.025
			c-0.649-0.108-1.305-0.192-1.969-0.251c-0.103-0.009-0.207-0.016-0.31-0.024c-0.66-0.051-1.325-0.085-1.998-0.085h-1.351
			c-0.008-0.063-0.017-0.131-0.025-0.195c-0.078-0.639-0.161-1.289-0.251-1.953c-0.007-0.051-0.013-0.102-0.02-0.153
			c-0.094-0.688-0.196-1.391-0.303-2.101c-0.022-0.147-0.044-0.295-0.067-0.443c-0.107-0.704-0.219-1.415-0.336-2.135
			c-0.014-0.083-0.028-0.167-0.042-0.25c-0.108-0.657-0.22-1.32-0.335-1.987c-0.028-0.165-0.056-0.328-0.085-0.494
			c-0.123-0.703-0.248-1.409-0.377-2.117c-0.034-0.186-0.068-0.372-0.103-0.558c-0.115-0.627-0.232-1.255-0.351-1.883
			c-0.025-0.13-0.049-0.26-0.074-0.391c-0.133-0.696-0.268-1.39-0.404-2.083c-0.045-0.228-0.089-0.454-0.134-0.681
			c-0.132-0.667-0.266-1.333-0.4-1.992c-0.042-0.207-0.084-0.41-0.126-0.615c-0.105-0.515-0.211-1.025-0.316-1.532
			c-0.05-0.24-0.1-0.48-0.15-0.719c-0.128-0.609-0.255-1.21-0.382-1.804c-0.057-0.266-0.113-0.527-0.169-0.789
			c-0.098-0.454-0.195-0.902-0.291-1.345c-0.067-0.308-0.133-0.611-0.2-0.913c-0.1-0.454-0.199-0.902-0.296-1.341
			c-0.056-0.252-0.111-0.501-0.167-0.748c-0.114-0.509-0.226-1.009-0.336-1.493c-0.052-0.231-0.102-0.451-0.154-0.676
			c-0.082-0.362-0.163-0.715-0.242-1.061c-0.043-0.187-0.086-0.376-0.128-0.557c-0.108-0.468-0.211-0.914-0.312-1.347
			c-0.036-0.155-0.071-0.303-0.106-0.453c-0.106-0.453-0.209-0.892-0.305-1.298c-2.789-11.809-10.061-21.755-20.476-28.005
			c-10.399-6.24-22.574-7.98-34.281-4.891c-4.039,1.065-8.147,2.223-12.496,3.449c-9.852,2.778-20.038,5.65-30.946,7.873
			c-11.18,2.279-22.517,2.279-33.697,0c-10.907-2.224-21.093-5.096-30.944-7.873c-4.35-1.227-8.458-2.385-12.497-3.45
			c-11.706-3.086-23.881-1.35-34.281,4.891c-10.415,6.25-17.688,16.196-20.478,28.005c-0.102,0.433-0.213,0.903-0.326,1.39
			c-0.02,0.088-0.04,0.173-0.061,0.262c-0.116,0.498-0.237,1.018-0.363,1.565c-0.014,0.06-0.028,0.122-0.042,0.182
			c-0.124,0.538-0.251,1.096-0.382,1.675c-0.012,0.052-0.023,0.101-0.035,0.154c-0.135,0.594-0.273,1.209-0.414,1.841
			c-0.026,0.118-0.053,0.236-0.079,0.355c-0.287,1.289-0.584,2.645-0.886,4.053c-0.028,0.129-0.055,0.256-0.083,0.386
			c-0.149,0.694-0.298,1.399-0.448,2.114c-0.021,0.101-0.042,0.203-0.063,0.305c-0.144,0.691-0.289,1.39-0.433,2.095
			c-0.014,0.071-0.029,0.141-0.043,0.212c-0.15,0.739-0.299,1.484-0.448,2.232c-0.027,0.138-0.054,0.275-0.081,0.413
			c-0.15,0.761-0.298,1.524-0.444,2.29c-0.006,0.032-0.012,0.064-0.018,0.096c-0.14,0.735-0.277,1.471-0.412,2.206
			c-0.024,0.132-0.048,0.263-0.072,0.395c-0.135,0.744-0.268,1.485-0.396,2.223c-0.022,0.126-0.043,0.251-0.065,0.377
			c-0.122,0.704-0.24,1.405-0.354,2.099c-0.011,0.065-0.022,0.131-0.033,0.197c-0.119,0.733-0.233,1.455-0.342,2.171
			c-0.02,0.134-0.04,0.266-0.06,0.399c-0.108,0.718-0.211,1.427-0.306,2.122c-0.007,0.05-0.013,0.098-0.02,0.147
			c-0.09,0.662-0.173,1.309-0.25,1.945c-0.008,0.068-0.019,0.139-0.027,0.206h-1.351c-0.673,0-1.338,0.034-1.998,0.085
			c-0.104,0.008-0.207,0.014-0.311,0.024c-0.664,0.059-1.32,0.143-1.968,0.251c-0.048,0.008-0.095,0.017-0.143,0.026
			c-1.397,0.241-2.756,0.594-4.068,1.05v-21.493c0-22.505,6.63-44.214,19.175-62.781c2.332-3.452,1.424-8.141-2.028-10.473
			c-3.452-2.332-8.141-1.425-10.473,2.028c-14.235,21.071-21.76,45.7-21.76,71.227v35.212c-1.507,3.284-2.354,6.931-2.354,10.774
			v20.373c0,14.296,11.631,25.927,25.928,25.927h5.124c9.732,35.606,35.147,64.8,68.333,79.659v11.913
			c0,3.882-1.895,7.424-5.035,9.572h-6.36c-10.725,0-19.698,7.648-21.752,17.776l-59.584,11.64
			c-17.73,3.636-33.837,11.762-46.578,23.497c-20.028,18.447-31.514,44.634-31.514,71.848v50.149
			c0,8.974,7.301,16.275,16.275,16.275h408.953c8.974,0,16.275-7.301,16.275-16.275v-50.149
			C476.75,418.363,465.264,392.175,445.237,373.728z M377.425,204.197c0.172-1.249,0.329-2.502,0.463-3.763
			c0.006-0.057,0.014-0.114,0.02-0.17c0.141-1.342,0.258-2.692,0.355-4.046c0.016-0.226,0.028-0.452,0.043-0.678
			c0.071-1.083,0.128-2.171,0.172-3.261c0.013-0.331,0.027-0.661,0.038-0.991c0.041-1.297,0.069-2.597,0.069-3.904v-24.855h0.801
			c0.447,0,0.89,0.035,1.327,0.09c0.109,0.013,0.216,0.033,0.324,0.049c0.354,0.055,0.704,0.125,1.048,0.215
			c0.083,0.021,0.166,0.041,0.249,0.064c0.864,0.246,1.693,0.597,2.466,1.045c0.048,0.028,0.095,0.058,0.143,0.087
			c0.347,0.208,0.683,0.436,1.005,0.682c0.042,0.032,0.086,0.062,0.127,0.095c0.707,0.556,1.346,1.203,1.902,1.928
			c0.041,0.054,0.082,0.109,0.122,0.163c0.266,0.361,0.517,0.735,0.74,1.132c0,0,0,0,0,0.001c0.88,1.566,1.387,3.369,1.387,5.29
			v20.373c0,5.978-4.864,10.842-10.842,10.842h-2.007C377.396,204.456,377.407,204.326,377.425,204.197z M132.614,204.584v0.001
			c-5.978,0-10.842-4.864-10.842-10.842V173.37c0-1.925,0.51-3.731,1.393-5.3c0.22-0.391,0.468-0.762,0.73-1.118
			c0.043-0.058,0.086-0.117,0.131-0.175c0.554-0.721,1.19-1.365,1.894-1.919c0.045-0.036,0.093-0.069,0.139-0.104
			c0.318-0.243,0.649-0.467,0.991-0.673c0.051-0.031,0.102-0.063,0.154-0.093c0.772-0.447,1.598-0.796,2.46-1.042
			c0.084-0.024,0.169-0.044,0.253-0.065c0.343-0.089,0.692-0.159,1.045-0.214c0.108-0.017,0.215-0.036,0.325-0.05
			c0.438-0.055,0.88-0.09,1.327-0.09h0.8v24.855c0,1.307,0.028,2.607,0.069,3.904c0.01,0.33,0.025,0.66,0.038,0.99
			c0.043,1.094,0.1,2.184,0.172,3.27c0.015,0.222,0.026,0.445,0.042,0.667c0.097,1.359,0.215,2.712,0.356,4.058
			c0.005,0.045,0.011,0.091,0.016,0.136c0.136,1.278,0.295,2.55,0.47,3.816c0.017,0.12,0.028,0.241,0.044,0.361H132.614z
			 M150.823,209.642c-0.088-0.419-0.175-0.839-0.258-1.259c-0.088-0.443-0.173-0.888-0.256-1.333
			c-0.098-0.53-0.192-1.06-0.282-1.591c-0.061-0.361-0.122-0.722-0.18-1.084c-0.099-0.622-0.191-1.246-0.279-1.87
			c-0.041-0.29-0.083-0.58-0.122-0.87c-0.092-0.692-0.175-1.385-0.253-2.078c-0.027-0.241-0.057-0.482-0.083-0.723
			c-0.078-0.734-0.145-1.468-0.208-2.204c-0.018-0.213-0.04-0.425-0.057-0.638c-0.06-0.751-0.108-1.504-0.152-2.257
			c-0.012-0.205-0.028-0.408-0.039-0.613c-0.041-0.762-0.068-1.525-0.093-2.288c-0.006-0.196-0.017-0.391-0.022-0.588
			c-0.025-0.954-0.039-1.909-0.039-2.863l0.001-32.394c0.003-6.18,2.736-21.577,7.132-40.186c1.5-6.35,4.96-11.887,9.904-15.96
			c0.38-0.313,0.769-0.618,1.167-0.914c0.795-0.591,1.625-1.147,2.487-1.664c0.522-0.313,1.053-0.604,1.588-0.882
			c0.158-0.082,0.317-0.16,0.476-0.24c0.404-0.202,0.812-0.394,1.222-0.576c0.155-0.069,0.308-0.14,0.464-0.205
			c0.546-0.231,1.097-0.45,1.653-0.647c0.073-0.026,0.147-0.047,0.22-0.072c0.49-0.169,0.985-0.324,1.481-0.467
			c0.173-0.05,0.347-0.096,0.521-0.143c0.434-0.116,0.87-0.221,1.308-0.317c0.15-0.033,0.3-0.069,0.451-0.099
			c0.574-0.116,1.15-0.216,1.729-0.296c0.113-0.016,0.227-0.026,0.34-0.04c0.477-0.061,0.955-0.11,1.435-0.147
			c0.179-0.014,0.359-0.026,0.539-0.036c0.464-0.027,0.929-0.043,1.395-0.047c0.134-0.001,0.268-0.007,0.403-0.007
			c0.569,0.002,1.138,0.02,1.708,0.055c0.121,0.007,0.243,0.021,0.364,0.031c0.454,0.034,0.908,0.077,1.361,0.133
			c0.186,0.023,0.371,0.049,0.556,0.075c0.41,0.058,0.821,0.125,1.23,0.201c0.173,0.032,0.347,0.061,0.52,0.096
			c0.57,0.115,1.139,0.242,1.706,0.392c3.914,1.032,7.963,2.174,12.249,3.382c8.438,2.379,17.861,5.036,27.757,7.227
			c1.414,0.313,2.837,0.616,4.269,0.908c2.471,0.504,4.949,0.913,7.43,1.228c7.445,0.944,14.927,1.039,22.379,0.283
			c3.312-0.336,6.619-0.839,9.914-1.511c7.158-1.459,14.112-3.21,20.675-4.982c3.938-1.063,7.735-2.134,11.351-3.154
			c4.286-1.208,8.334-2.35,12.248-3.382c7.741-2.041,15.792-0.889,22.672,3.239c6.897,4.139,11.712,10.722,13.558,18.538
			c4.395,18.607,7.128,34.005,7.132,40.186v32.393c0,0.954-0.013,1.909-0.039,2.863c-0.005,0.2-0.017,0.398-0.023,0.598
			c-0.024,0.759-0.052,1.518-0.092,2.277c-0.011,0.211-0.028,0.421-0.04,0.632c-0.044,0.745-0.091,1.489-0.151,2.232
			c-0.018,0.225-0.041,0.449-0.06,0.673c-0.062,0.723-0.128,1.445-0.205,2.166c-0.027,0.254-0.058,0.507-0.087,0.76
			c-0.077,0.68-0.158,1.359-0.248,2.036c-0.041,0.306-0.085,0.611-0.129,0.916c-0.086,0.607-0.175,1.214-0.272,1.82
			c-0.06,0.378-0.124,0.755-0.188,1.131c-0.087,0.513-0.177,1.025-0.272,1.536c-0.086,0.466-0.175,0.93-0.268,1.394
			c-0.079,0.396-0.16,0.792-0.243,1.187c-7.789,36.912-34.574,66.898-69.611,79.22c-0.483,0.169-0.966,0.341-1.451,0.503
			c-0.689,0.231-1.379,0.457-2.074,0.675c-0.941,0.294-1.886,0.576-2.834,0.843c-0.613,0.173-1.229,0.338-1.846,0.501
			c-0.983,0.258-1.969,0.508-2.959,0.738c-0.559,0.13-1.123,0.251-1.686,0.372c-0.918,0.198-1.837,0.385-2.76,0.559
			c-0.539,0.102-1.08,0.201-1.622,0.294c-1.073,0.185-2.149,0.353-3.229,0.504c-0.386,0.055-0.77,0.112-1.157,0.163
			c-1.271,0.165-2.546,0.305-3.824,0.424c-0.34,0.032-0.681,0.062-1.022,0.091c-1.337,0.112-2.678,0.204-4.023,0.266
			c-0.243,0.012-0.487,0.018-0.73,0.028c-1.448,0.057-2.899,0.095-4.355,0.095c-0.899,0-1.795-0.012-2.689-0.034
			c-0.212-0.005-0.424-0.016-0.636-0.022c-0.693-0.021-1.385-0.045-2.074-0.079c-0.199-0.01-0.397-0.024-0.596-0.035
			c-0.715-0.039-1.43-0.083-2.142-0.136c-0.144-0.011-0.287-0.024-0.43-0.035c-0.78-0.062-1.558-0.129-2.333-0.208
			c-0.071-0.007-0.141-0.015-0.212-0.022C198.243,289.498,160.356,254.739,150.823,209.642z M224.939,320.815h-5.537
			c1.143-2.996,1.754-6.23,1.754-9.572v-6.299c2.25,0.667,4.522,1.249,6.804,1.784c0.172,0.04,0.342,0.083,0.514,0.122
			c0.837,0.192,1.676,0.375,2.517,0.549c0.36,0.075,0.722,0.145,1.084,0.217c1.28,0.253,2.565,0.486,3.854,0.699
			c0.546,0.09,1.092,0.184,1.641,0.267c0.648,0.098,1.298,0.186,1.949,0.273c0.676,0.091,1.354,0.176,2.033,0.256
			c0.558,0.065,1.115,0.134,1.674,0.192c1.182,0.123,2.37,0.23,3.561,0.319c0.387,0.029,0.776,0.049,1.163,0.074
			c0.966,0.063,1.935,0.115,2.908,0.155c0.4,0.016,0.801,0.033,1.202,0.046c1.308,0.042,2.62,0.07,3.939,0.07
			c1.247,0,2.489-0.025,3.728-0.062c0.398-0.012,0.795-0.03,1.192-0.045c0.858-0.034,1.714-0.076,2.568-0.128
			c0.445-0.027,0.89-0.053,1.335-0.085c0.906-0.065,1.808-0.142,2.709-0.226c0.479-0.045,0.959-0.089,1.437-0.14
			c0.981-0.104,1.96-0.218,2.934-0.344c0.581-0.075,1.16-0.16,1.74-0.244c0.596-0.086,1.19-0.176,1.783-0.27
			c0.639-0.102,1.278-0.206,1.915-0.318c0.497-0.088,0.991-0.183,1.486-0.277c1.373-0.259,2.74-0.541,4.103-0.847
			c0.274-0.062,0.55-0.119,0.823-0.182c0.79-0.183,1.577-0.379,2.363-0.578c0.307-0.078,0.613-0.156,0.919-0.237
			c0.508-0.133,1.019-0.253,1.525-0.392v5.193c0,3.508,0.686,6.903,1.955,10.03h-3.454H224.939z M277.736,335.9l-1.95,9.131h-39.573
			l-1.95-9.131H277.736z M180.712,372.219v124.696h-57.107v-38.877c0-4.284-3.473-7.757-7.757-7.757s-7.757,3.473-7.757,7.757
			v38.877H51.523c-0.656,0-1.189-0.533-1.189-1.189v-50.149c0-23.01,9.713-45.153,26.649-60.752
			c10.724-9.878,24.345-16.73,39.32-19.802l65.17-12.731c3.541-0.692,6.097-3.794,6.097-7.403v-1.88c0-3.92,3.188-7.109,7.108-7.109
			h8.389h15.771l3.3,15.455c0.194,0.909,0.503,1.77,0.903,2.577h-24.042C188.916,353.932,180.712,362.135,180.712,372.219z
			 M461.668,495.725h-0.002c0,0.656-0.533,1.189-1.189,1.189h-56.569v-38.877c0-4.284-3.473-7.757-7.757-7.757
			s-7.757,3.473-7.757,7.757v38.877h-57.107v-34.987c0-4.166-3.377-7.543-7.543-7.543c-4.166,0-7.543,3.377-7.543,7.543v34.733
			H195.798V372.219c0-1.765,1.436-3.201,3.201-3.201h114c1.766,0,3.202,1.436,3.202,3.201v53.612c0,4.166,3.377,7.543,7.543,7.543
			c4.166,0,7.543-3.377,7.543-7.543v-53.612c0-10.084-8.204-18.287-18.287-18.287h-24.041c0.4-0.806,0.709-1.667,0.903-2.576
			l3.301-15.456h14.501h9.659c3.92,0,7.109,3.189,7.109,7.109v1.88c0,3.608,2.556,6.711,6.097,7.403l65.135,12.724
			c15.031,3.09,28.639,9.939,39.355,19.809c16.935,15.599,26.648,37.742,26.648,60.752V495.725z"/>
	</g>
</g>
<g>
	<g>
		<path d="M282.89,407.518h-19.348v-12.656c0-4.166-3.377-7.543-7.543-7.543s-7.543,3.377-7.543,7.543v12.656h-19.348
			c-4.166,0-7.543,3.377-7.543,7.543c0,4.166,3.377,7.543,7.543,7.543h19.348v54.766c0,4.166,3.377,7.543,7.543,7.543
			s7.543-3.377,7.543-7.543v-54.766h19.348c4.166,0,7.543-3.377,7.543-7.543C290.432,410.895,287.056,407.518,282.89,407.518z"/>
	</g>
</g>
<g>
</g>
<g>
</g>
<g>
</g>
<g>
</g>
<g>
</g>
<g>
</g>
<g>
</g>
<g>
</g>
<g>
</g>
<g>
</g>
<g>
</g>
<g>
</g>
<g>
</g>
<g>
</g>
<g>
</g>
</svg>
