<?xml version="1.0" encoding="iso-8859-1"?>
<!-- Generator: Adobe Illustrator 19.0.0, SVG Export Plug-In . SVG Version: 6.00 Build 0)  -->
<svg version="1.1" id="Capa_1" xmlns="http://www.w3.org/2000/svg" xmlns:xlink="http://www.w3.org/1999/xlink" x="0px" y="0px"
	 viewBox="0 0 512.003 512.003" style="enable-background:new 0 0 512.003 512.003;" xml:space="preserve">
<g>
	<g>
		<path d="M209.588,202.254c-4.142,0-7.499,3.358-7.499,7.499v13.749c0,4.142,3.358,7.499,7.499,7.499
			c4.142,0,7.499-3.358,7.499-7.499v-13.749C217.087,205.612,213.73,202.254,209.588,202.254z"/>
	</g>
</g>
<g>
	<g>
		<path d="M302.413,202.255c-4.141,0-7.499,3.357-7.499,7.499v13.749c0,4.142,3.358,7.499,7.499,7.499s7.499-3.358,7.499-7.499
			v-13.749C309.912,205.612,306.553,202.255,302.413,202.255z"/>
	</g>
</g>
<g>
	<g>
		<path d="M285.963,269.947c-3.362-2.42-8.049-1.655-10.467,1.706c-3.654,5.077-11.305,8.357-19.495,8.357
			s-15.841-3.28-19.494-8.357c-2.418-3.362-7.104-4.127-10.467-1.706c-3.362,2.419-4.126,7.105-1.707,10.467
			c6.478,9.003,18.613,14.595,31.669,14.595c13.056,0,25.19-5.592,31.669-14.595C290.088,277.052,289.324,272.365,285.963,269.947z"
			/>
	</g>
</g>
<g>
	<g>
		<path d="M447.393,353.096l-22.033,6.978c-3.948,1.25-6.135,5.465-4.885,9.414c1.251,3.948,5.462,6.137,9.414,4.885l22.032-6.978
			c15.063-4.77,24.946-19.135,24.035-34.934c-1.829-31.679-9.54-95.853-40.63-169.73C396.575,70.658,341.097,36.186,300.387,23.596
			C290.743,9.369,274.446,0,256.001,0s-34.743,9.369-44.387,23.596c-40.71,12.589-96.188,47.062-134.936,139.137
			c-31.09,73.877-38.801,138.052-40.63,169.73c-0.912,15.799,8.972,30.164,24.034,34.934l21.857,6.922
			c3.946,1.25,8.163-0.937,9.414-4.885c1.25-3.949-0.936-8.163-4.885-9.414l-21.858-6.922c-8.517-2.697-14.105-10.827-13.589-19.771
			c1.774-30.716,9.261-92.968,39.481-164.777c32.629-77.536,77.156-111.516,113.094-126.171c-0.007,0.034-0.012,0.069-0.019,0.103
			c-0.159,0.75-0.296,1.507-0.423,2.269c-0.025,0.152-0.057,0.303-0.082,0.456c-0.123,0.781-0.224,1.569-0.313,2.361
			c-0.015,0.137-0.038,0.272-0.052,0.409c-0.082,0.787-0.141,1.58-0.188,2.376c-0.009,0.142-0.025,0.283-0.032,0.425
			c-0.048,0.93-0.074,1.866-0.074,2.808c0,0.952,0.029,1.907,0.081,2.861c0.017,0.319,0.051,0.637,0.074,0.956
			c0.04,0.559,0.073,1.117,0.131,1.675c-22.73,9.833-42.191,25.68-56.548,46.113c-10.587,15.068-17.83,31.914-21.504,49.678
			c-0.03,0.146-0.063,0.292-0.093,0.439c-0.185,0.909-0.359,1.82-0.525,2.734c-0.105,0.573-0.201,1.148-0.298,1.723
			c-0.185,1.102-0.36,2.205-0.518,3.313c-0.132,0.92-0.258,1.842-0.371,2.768c-0.073,0.597-0.141,1.195-0.206,1.794
			c-0.132,1.211-0.249,2.426-0.348,3.647c-0.026,0.32-0.054,0.639-0.077,0.96c-0.102,1.381-0.177,2.769-0.237,4.161
			c-0.017,0.411-0.033,0.822-0.047,1.233c-0.051,1.521-0.087,3.047-0.087,4.58v1.637c0,0.499,0.03,0.99,0.083,1.475
			c0.017,0.161,0.05,0.316,0.073,0.475c0.046,0.321,0.094,0.642,0.162,0.956c0.04,0.184,0.093,0.363,0.14,0.544
			c0.073,0.281,0.148,0.562,0.239,0.836c0.061,0.186,0.132,0.366,0.201,0.548c0.099,0.261,0.201,0.519,0.316,0.772
			c0.034,0.076,0.059,0.157,0.095,0.233c-0.017,0.017-0.033,0.035-0.05,0.052c-0.154,0.153-0.302,0.311-0.451,0.468
			c-0.124,0.13-0.251,0.258-0.372,0.39c-0.149,0.163-0.292,0.332-0.437,0.499c-0.115,0.133-0.233,0.263-0.345,0.399
			c-0.144,0.173-0.281,0.351-0.42,0.528c-0.107,0.135-0.216,0.269-0.32,0.407c-0.137,0.182-0.267,0.369-0.399,0.555
			c-0.099,0.139-0.2,0.275-0.296,0.416c-0.131,0.192-0.254,0.389-0.379,0.585c-0.089,0.14-0.182,0.277-0.269,0.419
			c-0.123,0.201-0.238,0.407-0.355,0.612c-0.082,0.142-0.167,0.282-0.245,0.426c-0.114,0.208-0.219,0.42-0.327,0.631
			c-0.074,0.146-0.153,0.29-0.224,0.437c-0.104,0.214-0.199,0.432-0.297,0.65c-0.067,0.15-0.139,0.297-0.203,0.449
			c-0.094,0.221-0.179,0.446-0.267,0.67c-0.059,0.152-0.123,0.301-0.18,0.455c-0.084,0.229-0.16,0.463-0.238,0.695
			c-0.051,0.153-0.107,0.303-0.155,0.457c-0.073,0.232-0.136,0.468-0.202,0.704c-0.044,0.158-0.093,0.314-0.135,0.474
			c-0.06,0.234-0.111,0.471-0.165,0.707c-0.037,0.165-0.08,0.327-0.114,0.493c-0.051,0.247-0.092,0.498-0.135,0.748
			c-0.027,0.157-0.06,0.313-0.084,0.472c-0.041,0.269-0.072,0.541-0.104,0.812c-0.017,0.143-0.04,0.285-0.055,0.428
			c-0.029,0.281-0.046,0.565-0.065,0.849c-0.009,0.137-0.024,0.273-0.031,0.411c-0.022,0.422-0.033,0.847-0.033,1.274v19.071
			c0,13.624,11.084,24.708,24.708,24.708h4.449c0.055,0.201,0.118,0.399,0.175,0.6c0.089,0.315,0.183,0.628,0.275,0.943
			c0.193,0.663,0.387,1.326,0.592,1.985c0.024,0.076,0.049,0.151,0.073,0.228c1.092,3.483,2.353,6.91,3.771,10.272
			c0.021,0.05,0.041,0.1,0.062,0.149c4.75,11.216,11.271,21.686,19.337,30.918c11.46,13.116,25.814,23.515,41.754,30.296v10.043
			c0,4.488-3.194,8.387-7.594,9.272l-9.139,1.837c-0.289,0.058-0.572,0.133-0.847,0.222l-70.989,20.902
			c-18.209,5.362-33.845,16.231-45.216,31.432c-11.37,15.201-17.38,33.269-17.38,52.252v43.662c0,8.79,7.151,15.942,15.942,15.942
			h360.461c0.003-0.003-0.004-0.003,0-0.003c8.79,0,15.942-7.151,15.942-15.942v-43.662c0-18.983-6.01-37.052-17.38-52.252
			c-11.37-15.201-27.006-26.07-45.216-31.432l-70.986-20.901c-0.276-0.09-0.559-0.164-0.849-0.223l-11.16-2.243
			c-4.4-0.884-7.594-4.784-7.594-9.272v-8.804c5.724-2.308,11.212-5.079,16.434-8.243c0.144-0.087,0.288-0.173,0.432-0.261
			c0.607-0.372,1.21-0.749,1.81-1.131c0.306-0.195,0.611-0.392,0.915-0.59c0.484-0.315,0.968-0.631,1.447-0.954
			c0.516-0.347,1.027-0.7,1.537-1.055c0.282-0.197,0.567-0.389,0.848-0.588c16.969-12.016,30.554-28.504,39.035-47.73
			c0.01-0.022,0.019-0.044,0.029-0.066c0.401-0.911,0.79-1.827,1.168-2.75c0.065-0.159,0.131-0.318,0.195-0.477
			c0.322-0.797,0.635-1.598,0.939-2.403c0.085-0.224,0.172-0.447,0.256-0.672c0.295-0.796,0.58-1.597,0.859-2.401
			c0.071-0.205,0.147-0.409,0.217-0.615c0.319-0.938,0.625-1.882,0.92-2.831c0.148-0.476,0.286-0.956,0.428-1.435
			c0.148-0.498,0.297-0.996,0.438-1.497c0.049-0.175,0.104-0.348,0.153-0.523h4.45c13.624,0,24.708-11.084,24.708-24.708v-19.071
			c0-0.427-0.011-0.852-0.033-1.274c-0.007-0.138-0.022-0.274-0.031-0.411c-0.019-0.284-0.037-0.568-0.065-0.849
			c-0.015-0.144-0.037-0.285-0.055-0.428c-0.033-0.271-0.063-0.543-0.104-0.812c-0.024-0.158-0.057-0.314-0.084-0.472
			c-0.043-0.25-0.084-0.501-0.135-0.748c-0.034-0.166-0.077-0.329-0.114-0.493c-0.054-0.236-0.104-0.473-0.165-0.707
			c-0.041-0.159-0.09-0.316-0.135-0.474c-0.066-0.235-0.129-0.471-0.202-0.704c-0.048-0.154-0.104-0.305-0.155-0.457
			c-0.078-0.232-0.153-0.466-0.238-0.695c-0.057-0.153-0.12-0.303-0.18-0.455c-0.088-0.224-0.173-0.45-0.267-0.67
			c-0.064-0.151-0.136-0.299-0.203-0.449c-0.098-0.217-0.193-0.436-0.297-0.65c-0.072-0.148-0.15-0.291-0.224-0.437
			c-0.108-0.211-0.213-0.424-0.327-0.631c-0.079-0.144-0.164-0.284-0.245-0.426c-0.117-0.205-0.233-0.411-0.355-0.612
			c-0.087-0.142-0.179-0.279-0.269-0.419c-0.125-0.196-0.249-0.393-0.379-0.585c-0.096-0.141-0.198-0.277-0.296-0.416
			c-0.132-0.186-0.262-0.373-0.399-0.555c-0.104-0.138-0.213-0.271-0.32-0.407c-0.139-0.177-0.276-0.355-0.42-0.528
			c-0.112-0.135-0.23-0.266-0.345-0.399c-0.145-0.167-0.288-0.336-0.437-0.499c-0.121-0.133-0.248-0.26-0.372-0.39
			c-0.15-0.157-0.298-0.315-0.452-0.468c-0.017-0.017-0.033-0.035-0.05-0.052c0.036-0.075,0.061-0.157,0.095-0.233
			c0.114-0.253,0.217-0.511,0.316-0.772c0.069-0.182,0.14-0.363,0.201-0.548c0.091-0.274,0.166-0.554,0.239-0.836
			c0.047-0.181,0.1-0.36,0.14-0.544c0.068-0.314,0.116-0.634,0.162-0.956c0.023-0.159,0.055-0.314,0.073-0.475
			c0.052-0.485,0.083-0.977,0.083-1.475v-1.637c0-1.534-0.035-3.059-0.087-4.58c-0.014-0.411-0.03-0.822-0.047-1.233
			c-0.06-1.392-0.135-2.78-0.237-4.161c-0.023-0.32-0.051-0.64-0.077-0.96c-0.099-1.221-0.216-2.436-0.348-3.647
			c-0.065-0.599-0.133-1.197-0.206-1.794c-0.113-0.926-0.239-1.848-0.371-2.768c-0.158-1.108-0.333-2.211-0.518-3.313
			c-0.097-0.575-0.194-1.151-0.298-1.723c-0.166-0.914-0.34-1.825-0.525-2.734c-0.03-0.147-0.063-0.292-0.093-0.439
			c-3.674-17.764-10.917-34.61-21.504-49.678c-14.356-20.433-33.818-36.281-56.548-46.113c0.058-0.558,0.09-1.117,0.131-1.675
			c0.023-0.319,0.057-0.637,0.074-0.956c0.052-0.955,0.081-1.909,0.081-2.861c0-0.943-0.026-1.879-0.074-2.81
			c-0.007-0.131-0.022-0.261-0.03-0.393c-0.048-0.808-0.108-1.613-0.191-2.411c-0.013-0.122-0.033-0.242-0.046-0.364
			c-0.09-0.807-0.193-1.61-0.319-2.406c-0.023-0.144-0.053-0.285-0.077-0.429c-0.128-0.769-0.267-1.534-0.427-2.292
			c-0.007-0.034-0.012-0.069-0.019-0.103c35.938,14.656,80.465,48.636,113.095,126.171c30.219,71.808,37.707,134.06,39.481,164.777
			C461.498,342.269,455.91,350.399,447.393,353.096z M217.493,51.216c0.013-0.212,0.032-0.423,0.048-0.634
			c0.048-0.612,0.109-1.222,0.185-1.829c0.024-0.192,0.046-0.384,0.073-0.575c0.221-1.568,0.538-3.118,0.949-4.642
			c0.05-0.185,0.104-0.367,0.157-0.55c0.165-0.58,0.346-1.154,0.538-1.726c0.07-0.208,0.138-0.417,0.211-0.624
			c0.249-0.699,0.515-1.391,0.804-2.075c0.089-0.211,0.19-0.416,0.283-0.625c0.209-0.47,0.425-0.937,0.653-1.399
			c0.156-0.315,0.317-0.627,0.481-0.937c0.189-0.358,0.388-0.712,0.588-1.065c6.649-11.655,19.186-19.536,33.538-19.536
			c14.347,0,26.881,7.876,33.53,19.526c0.205,0.359,0.407,0.72,0.599,1.085c0.161,0.305,0.319,0.611,0.472,0.921
			c0.234,0.475,0.457,0.954,0.672,1.437c0.087,0.197,0.182,0.389,0.266,0.587c0.291,0.689,0.559,1.386,0.81,2.09
			c0.071,0.199,0.136,0.401,0.204,0.602c0.196,0.58,0.379,1.163,0.547,1.752c0.051,0.177,0.103,0.353,0.151,0.531
			c0.412,1.527,0.73,3.081,0.952,4.651c0.027,0.189,0.049,0.379,0.072,0.569c0.077,0.609,0.138,1.22,0.186,1.833
			c0.016,0.211,0.035,0.421,0.048,0.633c0.048,0.788,0.08,1.578,0.08,2.371c0,0.039-0.003,0.078-0.003,0.117
			c-0.444-0.133-0.893-0.247-1.339-0.375c-0.54-0.156-1.082-0.306-1.625-0.456c-1.127-0.31-2.257-0.606-3.392-0.886
			c-0.748-0.185-1.495-0.37-2.247-0.542c-0.694-0.159-1.39-0.308-2.086-0.455c-0.721-0.153-1.444-0.299-2.169-0.44
			c-0.632-0.123-1.263-0.25-1.896-0.364c-1.23-0.221-2.466-0.424-3.707-0.612c-0.556-0.084-1.114-0.158-1.672-0.235
			c-0.913-0.126-1.828-0.243-2.746-0.351c-0.512-0.06-1.024-0.122-1.538-0.176c-1.351-0.142-2.707-0.267-4.069-0.369
			c-0.345-0.026-0.691-0.043-1.037-0.066c-1.141-0.076-2.285-0.138-3.433-0.186c-0.419-0.017-0.839-0.035-1.258-0.048
			c-1.452-0.047-2.907-0.079-4.37-0.079c-1.463,0-2.918,0.032-4.37,0.079c-0.42,0.013-0.839,0.031-1.258,0.048
			c-1.148,0.048-2.293,0.11-3.433,0.186c-0.345,0.023-0.692,0.04-1.037,0.066c-1.362,0.102-2.719,0.227-4.069,0.369
			c-0.514,0.054-1.025,0.117-1.538,0.176c-0.918,0.108-1.834,0.224-2.746,0.351c-0.558,0.077-1.116,0.151-1.672,0.235
			c-1.241,0.187-2.477,0.39-3.707,0.612c-0.634,0.114-1.264,0.241-1.896,0.364c-0.725,0.141-1.448,0.287-2.169,0.44
			c-0.696,0.148-1.392,0.296-2.086,0.455c-0.752,0.172-1.5,0.357-2.247,0.542c-1.134,0.28-2.264,0.576-3.392,0.886
			c-0.543,0.15-1.085,0.3-1.625,0.456c-0.445,0.129-0.894,0.242-1.339,0.375c0-0.039-0.003-0.078-0.003-0.117
			C217.413,52.794,217.444,52.004,217.493,51.216z M140.506,236.048L140.506,236.048c-5.354,0.001-9.71-4.355-9.71-9.708v-19.071
			c0-5.351,4.35-9.704,9.7-9.709h0.32v22.826c0,1.196,0.024,2.387,0.061,3.574c0.01,0.311,0.023,0.621,0.035,0.931
			c0.037,0.955,0.085,1.908,0.146,2.858c0.016,0.258,0.031,0.515,0.049,0.772c0.172,2.453,0.421,4.885,0.745,7.294
			c0.01,0.077,0.017,0.156,0.028,0.233H140.506z M133.266,497.001v-35.509c0-1.948,0.623-3.861,1.754-5.386
			c12.073-16.282,30.598-25.62,50.823-25.62c18.837,0,36.558,8.316,48.619,22.816c5.36,6.443,13.21,10.138,21.538,10.138
			c8.328,0,16.178-3.695,21.538-10.138c12.061-14.5,29.782-22.816,48.619-22.816c20.226,0,38.75,9.338,50.823,25.62
			c1.131,1.526,1.754,3.439,1.754,5.386v35.509H133.266z M303.625,360.05l10.805,2.172l70.91,20.879
			c15.079,4.44,28.026,13.44,37.442,26.027c9.415,12.587,14.392,27.549,14.392,43.268v43.662c0,0.52-0.423,0.943-0.943,0.943
			h-42.496v-35.509c0-5.143-1.671-10.228-4.705-14.32c-14.712-19.84-38.215-31.685-62.871-31.685
			c-23.306,0-45.23,10.287-60.15,28.222c-2.501,3.007-6.148,4.731-10.007,4.731s-7.506-1.724-10.007-4.731
			c-14.92-17.936-36.844-28.222-60.15-28.222c-24.656,0-48.16,11.845-62.871,31.685c-3.034,4.092-4.705,9.177-4.705,14.32v35.509
			H75.771c-0.52,0-0.943-0.423-0.943-0.943v-43.662c0-15.719,4.977-30.681,14.392-43.268c9.415-12.587,22.362-21.588,37.441-26.027
			l70.91-20.879l8.784-1.766c11.378-2.287,19.637-12.371,19.637-23.977v-4.862c0.356,0.096,0.715,0.177,1.072,0.27
			c0.224,0.058,0.449,0.113,0.674,0.17c2.332,0.589,4.681,1.105,7.046,1.546c0.45,0.084,0.9,0.168,1.352,0.247
			c0.606,0.105,1.212,0.207,1.819,0.302c0.547,0.086,1.096,0.166,1.645,0.244c0.54,0.077,1.079,0.158,1.62,0.227
			c1.031,0.133,2.067,0.252,3.107,0.357c0.397,0.04,0.796,0.07,1.193,0.106c0.758,0.069,1.517,0.133,2.279,0.187
			c0.43,0.03,0.861,0.057,1.292,0.082c0.776,0.046,1.555,0.084,2.336,0.114c0.375,0.015,0.749,0.032,1.125,0.043
			c1.146,0.034,2.296,0.056,3.45,0.056c1.1,0,2.195-0.019,3.288-0.05c0.362-0.01,0.724-0.028,1.086-0.041
			c0.731-0.027,1.461-0.059,2.188-0.1c0.432-0.024,0.863-0.053,1.294-0.082c0.661-0.045,1.32-0.095,1.977-0.151
			c0.452-0.038,0.903-0.077,1.354-0.121c0.65-0.063,1.297-0.135,1.944-0.208c0.443-0.05,0.886-0.097,1.328-0.152
			c0.789-0.099,1.574-0.211,2.358-0.326c0.701-0.103,1.4-0.215,2.099-0.331c0.56-0.093,1.12-0.184,1.678-0.285
			c0.578-0.104,1.153-0.219,1.729-0.332c0.45-0.089,0.899-0.177,1.347-0.271c0.617-0.129,1.233-0.264,1.849-0.403
			c0.376-0.085,0.751-0.174,1.126-0.263c0.448-0.106,0.898-0.203,1.344-0.314v3.934c0,0.857,0.059,1.703,0.147,2.541
			c0.21,1.999,0.651,3.939,1.321,5.78c0.097,0.267,0.219,0.523,0.325,0.786c0.154,0.38,0.297,0.765,0.47,1.136
			c0.037,0.08,0.083,0.154,0.12,0.233C289.609,353.336,295.892,358.496,303.625,360.05z M356.15,223.055
			c-0.005,0.182-0.015,0.362-0.021,0.543c-0.023,0.712-0.049,1.425-0.087,2.137c-0.01,0.191-0.025,0.38-0.036,0.571
			c-0.041,0.701-0.086,1.402-0.142,2.102c-0.016,0.199-0.036,0.396-0.053,0.595c-0.059,0.685-0.122,1.371-0.194,2.055
			c-0.024,0.224-0.052,0.448-0.077,0.672c-0.073,0.647-0.15,1.293-0.236,1.939c-0.036,0.27-0.075,0.539-0.113,0.809
			c-0.082,0.583-0.168,1.166-0.261,1.748c-0.053,0.335-0.11,0.67-0.167,1.004c-0.084,0.496-0.171,0.991-0.263,1.485
			c-0.077,0.416-0.157,0.831-0.239,1.245c-0.077,0.391-0.158,0.781-0.24,1.171c-0.099,0.468-0.2,0.934-0.305,1.4
			c-0.113,0.499-0.233,0.995-0.353,1.491c-0.131,0.541-0.263,1.082-0.403,1.62c-0.19,0.728-0.385,1.454-0.591,2.177
			c-0.14,0.49-0.289,0.975-0.436,1.462c-0.131,0.433-0.262,0.866-0.398,1.296c-0.146,0.462-0.296,0.921-0.449,1.38
			c-0.167,0.501-0.339,1-0.514,1.498c-0.133,0.378-0.263,0.758-0.4,1.134c-0.319,0.873-0.646,1.742-0.989,2.604
			c-0.052,0.132-0.108,0.261-0.161,0.392c-0.325,0.809-0.66,1.614-1.006,2.413c-0.071,0.165-0.144,0.329-0.217,0.494
			c-0.381,0.867-0.771,1.73-1.177,2.585c-0.009,0.02-0.018,0.04-0.028,0.06c-6.779,14.273-16.882,26.792-29.327,36.462
			c-0.208,0.162-0.418,0.322-0.628,0.482c-0.523,0.4-1.051,0.792-1.582,1.182c-0.304,0.223-0.607,0.447-0.913,0.667
			c-0.417,0.299-0.84,0.59-1.262,0.882c-0.85,0.589-1.708,1.167-2.577,1.729c-0.14,0.091-0.278,0.183-0.418,0.273
			c-0.615,0.394-1.235,0.781-1.859,1.161c-0.078,0.048-0.156,0.095-0.235,0.143c-6.145,3.726-12.72,6.811-19.632,9.16
			c-0.816,0.277-1.635,0.545-2.457,0.8c-0.563,0.175-1.129,0.34-1.696,0.506c-0.663,0.193-1.329,0.379-1.996,0.558
			c-0.656,0.176-1.314,0.347-1.975,0.51c-0.774,0.191-1.55,0.374-2.328,0.546c-0.431,0.096-0.862,0.193-1.296,0.283
			c-1.045,0.217-2.093,0.416-3.145,0.599c-0.377,0.066-0.756,0.127-1.134,0.188c-1.115,0.181-2.231,0.351-3.353,0.494
			c-0.193,0.025-0.387,0.044-0.58,0.067c-1.079,0.131-2.161,0.243-3.246,0.34c-0.273,0.024-0.546,0.051-0.82,0.073
			c-1.192,0.096-2.387,0.17-3.585,0.224c-0.257,0.011-0.515,0.02-0.772,0.029c-1.258,0.047-2.517,0.078-3.78,0.078
			c-1.356,0-2.708-0.035-4.057-0.089c-0.226-0.009-0.453-0.015-0.679-0.026c-1.252-0.058-2.499-0.143-3.744-0.247
			c-0.32-0.027-0.64-0.055-0.959-0.085c-1.189-0.111-2.374-0.241-3.556-0.394c-0.363-0.047-0.725-0.101-1.087-0.153
			c-0.993-0.14-1.983-0.294-2.97-0.464c-0.52-0.09-1.039-0.184-1.556-0.282c-0.847-0.159-1.692-0.331-2.534-0.512
			c-0.543-0.117-1.086-0.234-1.626-0.359c-0.904-0.21-1.804-0.438-2.702-0.673c-0.59-0.155-1.179-0.313-1.765-0.479
			c-0.869-0.245-1.734-0.503-2.597-0.772c-0.667-0.208-1.331-0.426-1.992-0.648c-0.393-0.132-0.785-0.271-1.176-0.408
			c-5.087-1.78-9.991-3.953-14.668-6.494c-0.038-0.021-0.076-0.042-0.114-0.062c-0.66-0.36-1.316-0.727-1.966-1.101
			c-0.248-0.143-0.494-0.291-0.741-0.436c-0.553-0.324-1.105-0.65-1.651-0.985c-0.757-0.466-1.509-0.938-2.253-1.422
			c-0.069-0.045-0.138-0.091-0.207-0.136c-18.211-11.94-32.333-29.689-39.736-50.226c-0.038-0.106-0.075-0.213-0.113-0.32
			c-0.268-0.753-0.524-1.51-0.775-2.27c-0.095-0.29-0.191-0.58-0.284-0.872c-0.19-0.594-0.369-1.192-0.548-1.791
			c-0.104-0.351-0.213-0.7-0.314-1.053c-0.235-0.821-0.457-1.646-0.671-2.475c-0.117-0.455-0.225-0.914-0.336-1.372
			c-0.115-0.476-0.23-0.951-0.338-1.429c-0.106-0.467-0.208-0.937-0.307-1.407c-0.082-0.39-0.163-0.78-0.24-1.171
			c-0.082-0.414-0.162-0.829-0.239-1.245c-0.091-0.494-0.179-0.989-0.263-1.485c-0.057-0.334-0.113-0.668-0.167-1.004
			c-0.092-0.582-0.179-1.165-0.261-1.748c-0.038-0.269-0.077-0.538-0.113-0.809c-0.086-0.645-0.163-1.292-0.236-1.939
			c-0.025-0.224-0.053-0.447-0.077-0.672c-0.073-0.684-0.136-1.369-0.194-2.055c-0.017-0.198-0.037-0.396-0.053-0.595
			c-0.056-0.7-0.101-1.401-0.142-2.102c-0.011-0.191-0.026-0.38-0.036-0.571c-0.038-0.712-0.064-1.424-0.087-2.137
			c-0.006-0.181-0.016-0.362-0.021-0.543c-0.024-0.889-0.036-1.779-0.036-2.669v-23.264c0.001,0,0.003-0.001,0.004-0.001
			c0.052-0.011,0.102-0.027,0.153-0.039c0.346-0.08,0.689-0.17,1.029-0.269c0.135-0.04,0.268-0.085,0.403-0.127
			c0.256-0.081,0.51-0.167,0.761-0.259c0.144-0.053,0.286-0.107,0.428-0.164c0.247-0.098,0.49-0.201,0.732-0.309
			c0.13-0.058,0.261-0.114,0.389-0.175c0.293-0.139,0.58-0.286,0.865-0.44c0.07-0.038,0.142-0.072,0.211-0.11
			c0.349-0.194,0.691-0.401,1.026-0.618c0.1-0.064,0.196-0.134,0.294-0.2c0.237-0.16,0.472-0.323,0.702-0.494
			c0.117-0.087,0.231-0.176,0.346-0.266c0.21-0.164,0.417-0.333,0.62-0.506c0.109-0.093,0.219-0.186,0.326-0.282
			c0.22-0.197,0.435-0.401,0.646-0.608c0.078-0.077,0.159-0.151,0.236-0.23c0.283-0.288,0.557-0.585,0.821-0.893
			c0.053-0.062,0.103-0.128,0.156-0.191c0.209-0.25,0.412-0.504,0.608-0.765c0.083-0.11,0.162-0.224,0.242-0.337
			c0.161-0.225,0.317-0.453,0.469-0.686c0.08-0.123,0.159-0.247,0.236-0.373c0.15-0.243,0.292-0.491,0.431-0.743
			c0.063-0.114,0.129-0.227,0.19-0.343c0.193-0.368,0.378-0.742,0.547-1.125c0.157-0.355,0.286-0.723,0.386-1.098l9.064-34.02
			c0.309-1.161,0.816-2.213,1.488-3.126c1.121-1.522,2.706-2.655,4.614-3.255c0.764-0.24,1.536-0.381,2.3-0.424
			c2.295-0.129,4.534,0.618,6.373,2.172c1.296,1.095,2.634,2.202,3.992,3.313c0.344,0.282,0.688,0.565,1.03,0.844
			c1.091,0.885,2.199,1.774,3.327,2.665c0.735,0.582,1.465,1.152,2.195,1.719c0.29,0.225,0.583,0.451,0.875,0.676
			c15.235,11.766,29.244,20.365,41.929,26.571c0.063,0.031,0.127,0.063,0.19,0.094c0.89,0.434,1.771,0.853,2.648,1.264
			c0.468,0.22,0.935,0.441,1.405,0.657c0.51,0.234,1.015,0.459,1.521,0.685c0.834,0.375,1.67,0.746,2.51,1.108
			c0.104,0.045,0.207,0.087,0.311,0.132c12.482,5.347,25.535,9.183,38.724,10.499c0.29,0.029,0.58,0.059,0.866,0.086
			c0.61,0.056,1.219,0.11,1.83,0.155c0.987,0.074,1.954,0.132,2.898,0.175c0.272,0.012,0.545,0.02,0.817,0.03
			c1.166,0.043,2.309,0.07,3.407,0.07h52.797v22.825h0.007C356.186,221.276,356.174,222.165,356.15,223.055z M381.205,207.269
			v19.071c0,5.354-4.356,9.709-9.71,9.709h-1.375c0.011-0.077,0.017-0.156,0.028-0.233c0.324-2.409,0.573-4.841,0.745-7.294
			c0.018-0.257,0.033-0.515,0.049-0.772c0.06-0.95,0.109-1.902,0.146-2.858c0.012-0.311,0.026-0.621,0.035-0.931
			c0.036-1.188,0.061-2.378,0.061-3.574v-22.826h0.32C376.855,197.565,381.205,201.918,381.205,207.269z M372.701,158.08
			c0.014,0.067,0.029,0.133,0.042,0.2c0.17,0.831,0.328,1.667,0.481,2.504c0.085,0.468,0.164,0.937,0.243,1.406
			c0.175,1.029,0.336,2.062,0.484,3.1c0.112,0.788,0.221,1.578,0.317,2.37c0.066,0.541,0.128,1.084,0.187,1.627
			c0.114,1.064,0.218,2.129,0.305,3.198c0.024,0.3,0.05,0.599,0.072,0.9c0.089,1.222,0.157,2.447,0.209,3.675
			c0.016,0.365,0.029,0.73,0.042,1.096c0.045,1.353,0.077,2.708,0.077,4.068v0.338h-3.665h-7.811h-60.295
			c-39.074,0-79.925-29.574-100.797-47.202c-0.496-0.419-1.01-0.808-1.531-1.182c-0.147-0.105-0.296-0.207-0.444-0.308
			c-0.419-0.287-0.845-0.56-1.277-0.818c-0.125-0.075-0.249-0.154-0.375-0.227c-0.545-0.312-1.099-0.602-1.663-0.869
			c-0.127-0.06-0.256-0.113-0.383-0.17c-0.457-0.207-0.918-0.399-1.385-0.576c-0.169-0.064-0.337-0.128-0.507-0.188
			c-0.556-0.197-1.117-0.378-1.685-0.533c-0.035-0.01-0.069-0.022-0.104-0.031c-0.598-0.16-1.204-0.29-1.812-0.403
			c-0.176-0.033-0.353-0.061-0.531-0.09c-0.477-0.078-0.957-0.141-1.438-0.19c-0.156-0.016-0.312-0.036-0.468-0.049
			c-0.614-0.05-1.23-0.078-1.848-0.081c-0.036,0-0.071-0.005-0.107-0.005c-0.136,0-0.273,0.013-0.409,0.016
			c-0.389,0.007-0.777,0.019-1.167,0.044c-0.211,0.014-0.421,0.034-0.632,0.053c-0.362,0.033-0.724,0.075-1.086,0.124
			c-0.211,0.029-0.422,0.059-0.633,0.094c-0.382,0.063-0.764,0.139-1.145,0.22c-0.182,0.039-0.365,0.073-0.546,0.116
			c-0.559,0.133-1.116,0.282-1.67,0.456c-7.937,2.495-13.955,8.786-16.098,16.829l-8.871,33.295
			c-0.615,1.03-1.732,1.676-2.952,1.676h-3.506h-7.811h-3.665v-0.338c0-1.36,0.032-2.715,0.077-4.068
			c0.012-0.366,0.026-0.731,0.042-1.096c0.052-1.228,0.12-2.453,0.209-3.675c0.022-0.301,0.048-0.6,0.072-0.9
			c0.086-1.069,0.19-2.134,0.305-3.198c0.059-0.543,0.12-1.086,0.187-1.627c0.096-0.792,0.205-1.581,0.317-2.37
			c0.148-1.038,0.309-2.071,0.484-3.1c0.079-0.469,0.159-0.938,0.243-1.406c0.153-0.837,0.311-1.673,0.481-2.504
			c0.014-0.067,0.029-0.133,0.042-0.2c10.181-49.28,50.887-87.533,101.397-94.037c0.128-0.016,0.256-0.032,0.384-0.048
			c0.809-0.102,1.622-0.194,2.436-0.279c0.216-0.022,0.432-0.045,0.649-0.066c0.73-0.072,1.463-0.137,2.196-0.196
			c0.27-0.022,0.54-0.044,0.81-0.064c0.689-0.051,1.38-0.093,2.071-0.132c0.299-0.017,0.598-0.036,0.897-0.05
			c0.698-0.034,1.399-0.058,2.1-0.08c0.279-0.009,0.558-0.021,0.838-0.028c0.971-0.023,1.945-0.037,2.922-0.037
			s1.951,0.014,2.922,0.037c0.28,0.007,0.558,0.02,0.838,0.028c0.701,0.022,1.402,0.046,2.1,0.08
			c0.299,0.015,0.598,0.034,0.897,0.05c0.692,0.039,1.383,0.081,2.071,0.132c0.27,0.02,0.54,0.042,0.81,0.064
			c0.734,0.059,1.466,0.123,2.196,0.196c0.216,0.021,0.433,0.043,0.649,0.066c0.814,0.085,1.627,0.178,2.436,0.279
			c0.128,0.016,0.256,0.031,0.384,0.048C321.815,70.547,362.52,108.799,372.701,158.08z"/>
	</g>
</g>
<g>
</g>
<g>
</g>
<g>
</g>
<g>
</g>
<g>
</g>
<g>
</g>
<g>
</g>
<g>
</g>
<g>
</g>
<g>
</g>
<g>
</g>
<g>
</g>
<g>
</g>
<g>
</g>
<g>
</g>
</svg>
