<?xml version="1.0" encoding="iso-8859-1"?>
<!-- Generator: Adobe Illustrator 19.0.0, SVG Export Plug-In . SVG Version: 6.00 Build 0)  -->
<svg version="1.1" id="Capa_1" xmlns="http://www.w3.org/2000/svg" xmlns:xlink="http://www.w3.org/1999/xlink" x="0px" y="0px"
	 viewBox="0 0 512 512" style="enable-background:new 0 0 512 512;" xml:space="preserve">
<g>
	<g>
		<path d="M327.623,310.295c-0.657-4.096-4.506-6.887-8.606-6.227l-116.793,18.731c-4.096,0.657-6.884,4.51-6.227,8.606
			c0.593,3.694,3.783,6.323,7.408,6.323c0.395,0,0.795-0.031,1.198-0.096l116.793-18.731
			C325.492,318.244,328.28,314.391,327.623,310.295z"/>
	</g>
</g>
<g>
	<g>
		<path d="M176.312,334.562c-0.657-4.096-4.508-6.886-8.606-6.227l-13.992,2.244c-4.096,0.657-6.884,4.51-6.227,8.606
			c0.593,3.694,3.784,6.323,7.408,6.323c0.395,0,0.795-0.031,1.198-0.096l13.992-2.244
			C174.181,342.511,176.969,338.658,176.312,334.562z"/>
	</g>
</g>
<g>
	<g>
		<path d="M331.689,352.265c-0.658-4.096-4.507-6.883-8.606-6.227l-11.564,1.855c-4.096,0.657-6.884,4.51-6.227,8.606
			c0.593,3.693,3.783,6.323,7.408,6.323c0.395,0,0.795-0.031,1.198-0.096l11.564-1.855
			C329.558,360.214,332.346,356.361,331.689,352.265z"/>
	</g>
</g>
<g>
	<g>
		<path d="M285.606,359.655c-0.657-4.095-4.507-6.885-8.606-6.226l-119.22,19.12c-4.096,0.657-6.884,4.51-6.227,8.606
			c0.593,3.694,3.783,6.323,7.408,6.323c0.395,0,0.795-0.031,1.198-0.096l119.22-19.121
			C283.475,367.604,286.263,363.751,285.606,359.655z"/>
	</g>
</g>
<g>
	<g>
		<path d="M310.419,142.079c-10.644-9.656-24.761-14.183-39.717-12.759c-14.182,1.353-27.486,7.943-37.56,18.402
			c-10.318-8.521-23.757-12.551-38.012-11.193c-30.266,2.888-54.942,29.787-55.007,59.965c-0.06,27.372,15.991,52.176,46.416,71.732
			c22.183,14.258,44.099,20.747,45.02,21.016c0.691,0.201,1.399,0.301,2.106,0.301c1.136,0,2.268-0.258,3.305-0.766
			c0.91-0.445,22.523-11.124,44.406-29.521c29.797-25.051,45.515-52.489,45.457-79.348
			C326.801,165.087,320.972,151.652,310.419,142.079z M232.986,273.918c-14.232-4.839-77.945-29.209-77.841-77.391
			c0.048-22.663,18.624-42.869,41.41-45.042c12.394-1.181,23.83,3.24,31.386,12.131c1.49,1.753,3.702,2.728,5.999,2.643
			c2.298-0.085,4.432-1.218,5.789-3.075c7.895-10.805,19.704-17.697,32.398-18.908c10.707-1.024,20.723,2.15,28.198,8.93
			c7.383,6.699,11.463,16.193,11.485,26.735C311.916,228.946,246.971,266.421,232.986,273.918z"/>
	</g>
</g>
<g>
	<g>
		<path d="M492.441,109.142h-34.058V59.679c0-5.737-2.505-11.163-6.871-14.885c-4.367-3.722-10.12-5.336-15.786-4.427L6.322,109.237
			C2.679,109.821,0,112.964,0,116.654v347.714c0,0.067,0.009,0.133,0.011,0.199c0.004,0.132,0.002,0.264,0.013,0.397
			c0.003,0.042,0.012,0.082,0.016,0.124c0.01,0.099,0.024,0.196,0.038,0.295c0.022,0.163,0.047,0.324,0.079,0.483
			c0.019,0.091,0.04,0.181,0.062,0.272c0.04,0.167,0.086,0.331,0.137,0.494c0.025,0.08,0.05,0.159,0.078,0.238
			c0.061,0.174,0.13,0.344,0.203,0.511c0.028,0.065,0.055,0.131,0.085,0.195c0.091,0.192,0.19,0.378,0.296,0.56
			c0.022,0.038,0.041,0.077,0.063,0.114c0.134,0.222,0.278,0.437,0.433,0.642c0.017,0.023,0.037,0.044,0.055,0.067
			c0.136,0.176,0.279,0.346,0.43,0.509c0.056,0.061,0.117,0.118,0.175,0.177c0.121,0.122,0.244,0.241,0.373,0.354
			c0.032,0.028,0.059,0.06,0.091,0.087c0.05,0.042,0.103,0.079,0.154,0.12c0.087,0.071,0.175,0.14,0.266,0.207
			c0.091,0.067,0.183,0.13,0.276,0.193c0.096,0.064,0.191,0.127,0.29,0.187c0.092,0.056,0.186,0.108,0.28,0.159
			c0.105,0.058,0.211,0.115,0.319,0.167c0.092,0.045,0.185,0.085,0.278,0.126c0.114,0.05,0.228,0.1,0.345,0.144
			c0.093,0.035,0.187,0.066,0.281,0.097c0.12,0.04,0.239,0.081,0.362,0.115c0.1,0.028,0.202,0.05,0.304,0.074
			c0.117,0.028,0.234,0.057,0.353,0.079c0.125,0.023,0.252,0.038,0.378,0.055c0.099,0.013,0.196,0.03,0.296,0.039
			c0.229,0.021,0.46,0.033,0.691,0.033h484.93c10.785,0,19.559-8.774,19.559-19.558v-323.62
			C512,117.916,503.226,109.142,492.441,109.142z M15.023,123.056L438.105,55.2c1.803-0.288,3.066,0.52,3.662,1.027
			c0.595,0.507,1.593,1.63,1.593,3.452v323.312c0,2.24-1.606,4.123-3.817,4.478l-424.52,68.086V123.056z M496.977,452.32
			L496.977,452.32c0,2.501-2.035,4.536-4.536,4.536H101.777l340.144-54.553c7.75-1.243,13.773-6.838,15.76-14.074
			c0.458-1.67,0.702-3.427,0.702-5.238V124.164h34.058c2.501,0,4.536,2.035,4.536,4.536V452.32z"/>
	</g>
</g>
<g>
</g>
<g>
</g>
<g>
</g>
<g>
</g>
<g>
</g>
<g>
</g>
<g>
</g>
<g>
</g>
<g>
</g>
<g>
</g>
<g>
</g>
<g>
</g>
<g>
</g>
<g>
</g>
<g>
</g>
</svg>
