<?xml version="1.0" encoding="iso-8859-1"?>
<!-- Generator: Adobe Illustrator 19.0.0, SVG Export Plug-In . SVG Version: 6.00 Build 0)  -->
<svg version="1.1" id="Capa_1" xmlns="http://www.w3.org/2000/svg" xmlns:xlink="http://www.w3.org/1999/xlink" x="0px" y="0px"
	 viewBox="0 0 512.001 512.001" style="enable-background:new 0 0 512.001 512.001;" xml:space="preserve">
<g>
	<g>
		<path d="M485.236,179.813c-0.35-4.887-0.905-9.824-1.652-14.673c-5.679-36.864-25.374-69.311-55.457-91.363
			s-66.949-31.071-103.818-25.389c-39.712,6.118-74.176,28.512-95.85,61.947c-30.732-25.363-70.334-36.346-110.05-30.228
			c-36.864,5.679-69.311,25.374-91.363,55.457C4.996,165.647-4.021,202.517,1.658,239.382
			C20.065,358.871,150.88,422.077,227.219,449.118c0.822,0.291,1.661,0.429,2.487,0.429c3.065,0,5.937-1.908,7.019-4.962
			c1.373-3.877-0.656-8.133-4.533-9.506C61.644,374.666,23.773,285.117,16.378,237.114C5.905,169.13,52.694,105.3,120.678,94.827
			c38.178-5.882,76.251,5.932,104.453,32.412c1.67,1.567,3.967,2.28,6.231,1.931c2.263-0.349,4.241-1.72,5.361-3.717
			c18.924-33.739,51.675-56.463,89.855-62.345c32.932-5.073,65.87,2.981,92.745,22.681c26.874,19.7,44.469,48.686,49.542,81.619
			c0.686,4.452,1.196,8.983,1.516,13.468c0.293,4.102,3.861,7.197,7.959,6.896C482.442,187.479,485.53,183.915,485.236,179.813z"/>
	</g>
</g>
<g>
	<g>
		<path d="M432.714,188.169c-28.85-7.534-58.892-2.727-83.751,13.136c-13.931-25.993-37.788-44.873-66.636-52.407
			c-27.416-7.16-55.976-3.213-80.422,11.109c-24.447,14.323-41.853,37.309-49.011,64.723c-7.531,28.84-5.497,59.506,6.045,91.142
			c9.09,24.916,24.08,50.476,44.553,75.971c34.609,43.098,72.512,70.848,74.108,72.008c1.278,0.929,2.812,1.422,4.378,1.422
			c0.29,0,0.582-0.017,0.874-0.051c1.96-0.232,48.592-5.907,99.853-26.582c30.324-12.23,55.897-27.198,76.008-44.489
			c25.536-21.955,42.303-47.71,49.835-76.55C523.324,261.011,489.306,202.947,432.714,188.169z M494.136,313.84
			c-6.739,25.808-21.881,48.992-45.006,68.911c-18.828,16.217-42.95,30.334-71.697,41.958
			c-42.354,17.127-82.49,23.747-93.422,25.328c-8.764-6.725-40.538-32.123-69.111-67.771
			c-19.393-24.195-33.534-48.303-42.029-71.655c-10.434-28.681-12.307-56.31-5.568-82.117c6.153-23.566,21.115-43.324,42.129-55.636
			c14.168-8.3,29.942-12.546,45.939-12.546c7.73,0,15.514,0.992,23.191,2.997c27.32,7.133,49.432,26.107,60.667,52.056
			c0.91,2.102,2.737,3.668,4.952,4.246c2.218,0.578,4.575,0.106,6.396-1.283c22.487-17.143,51.055-22.881,78.372-15.749
			C477.597,215.282,506.839,265.194,494.136,313.84z"/>
	</g>
</g>
<g>
</g>
<g>
</g>
<g>
</g>
<g>
</g>
<g>
</g>
<g>
</g>
<g>
</g>
<g>
</g>
<g>
</g>
<g>
</g>
<g>
</g>
<g>
</g>
<g>
</g>
<g>
</g>
<g>
</g>
</svg>
